SplineFontDB: 3.2
FontName: Gontserrat-ExtraLight
FullName: Gontserrat Extra Light
FamilyName: Gontserrat
Weight: Light
Copyright: Gontserrat is a derivative work of Montserrat under the Open Font License, version 1.1. Copyright 2020 Gabriel Classon (gabeclasson.com). Montserrat copyright 2011 The Montserrat Project Authors (https://github.com/JulietaUla/Montserrat). 
Version: 6.002
ItalicAngle: 0
UnderlinePosition: -100
UnderlineWidth: 50
Ascent: 800
Descent: 200
InvalidEm: 0
sfntRevision: 0x00010000
LayerCount: 2
Layer: 0 1 "Back" 1
Layer: 1 1 "Fore" 0
XUID: [1021 930 -1503615855 49]
StyleMap: 0x0040
FSType: 0
OS2Version: 4
OS2_WeightWidthSlopeOnly: 0
OS2_UseTypoMetrics: 1
CreationTime: 1485852831
ModificationTime: 1642920908
PfmFamily: 81
TTFWeight: 275
TTFWidth: 5
LineGap: 0
VLineGap: 0
Panose: 0 0 3 0 0 0 0 0 0 0
OS2TypoAscent: 968
OS2TypoAOffset: 0
OS2TypoDescent: -251
OS2TypoDOffset: 0
OS2TypoLinegap: 0
OS2WinAscent: 1177
OS2WinAOffset: 0
OS2WinDescent: 496
OS2WinDOffset: 0
HheadAscent: 968
HheadAOffset: 0
HheadDescent: -251
HheadDOffset: 0
OS2SubXSize: 650
OS2SubYSize: 600
OS2SubXOff: 0
OS2SubYOff: 75
OS2SupXSize: 650
OS2SupYSize: 600
OS2SupXOff: 0
OS2SupYOff: 350
OS2StrikeYSize: 50
OS2StrikeYPos: 312
OS2CapHeight: 699
OS2XHeight: 521
OS2Vendor: 'ULA '
OS2CodePages: 20000193.00000000
OS2UnicodeRanges: 20000007.00000001.00000000.00000000
Lookup: 1 0 0 "'rtla' Right to Left Alternates in Latin lookup 0" { "'rtla' Right to Left Alternates in Latin lookup 0 subtable"  } ['rtla' ('DFLT' <'dflt' > 'latn' <'dflt' > ) ]
Lookup: 1 0 0 "<10,2> Inferiors lookup 1" { "<10,2> Inferiors lookup 1 subtable" ("inferior") } [<10,2> ('DFLT' <'dflt' > ) 'subs' ('DFLT' <'dflt' > ) ]
Lookup: 1 0 0 "<10,1> Superiors lookup 2" { "<10,1> Superiors lookup 2 subtable" ("superior") } [<10,1> ('DFLT' <'dflt' > ) 'sups' ('DFLT' <'dflt' > ) ]

StartChar: .notdef
Encoding: 65536 -1 0
Width: 587
Flags: W
LayerCount: 2
Fore
SplineSet
40 0 m 1,0,-1
 40 700 l 1,1,-1
 547 700 l 1,2,-1
 547 0 l 1,3,-1
 40 0 l 1,0,-1
120 70 m 1,4,-1
 467 70 l 1,5,-1
 467 630 l 1,6,-1
 120 630 l 1,7,-1
 120 70 l 1,4,-1
EndSplineSet
EndChar

StartChar: exclam
Encoding: 33 33 5
Width: 196
Flags: W
LayerCount: 2
Fore
SplineSet
81 684 m 1,0,-1
 121 684 l 1,1,-1
 121 520 l 1,2,-1
 117 197 l 1,3,-1
 86 197 l 1,4,-1
 81 520 l 1,5,-1
 81 684 l 1,0,-1
125.5 54 m 128,-1,7
 136 44 136 44 136 29 c 0,8,9
 136 13 136 13 125.5 2.5 c 128,-1,10
 115 -8 115 -8 101 -8 c 256,11,12
 87 -8 87 -8 77 2.5 c 128,-1,13
 67 13 67 13 67 29 c 0,14,15
 67 44 67 44 77 54 c 128,-1,16
 87 64 87 64 101 64 c 256,17,6
 115 64 115 64 125.5 54 c 128,-1,7
EndSplineSet
Substitution2: "<3,3> Small Caps in Latin lookup 11 subtable" exclam.sc
EndChar

StartChar: numbersign
Encoding: 35 35 7
Width: 711
Flags: W
LayerCount: 2
Fore
SplineSet
666 460 m 1,0,-1
 516 460 l 1,1,-1
 488 236 l 1,2,-1
 634 236 l 1,3,-1
 633 199 l 1,4,-1
 484 199 l 1,5,-1
 459 0 l 1,6,-1
 425 0 l 1,7,-1
 449 199 l 1,8,-1
 223 199 l 1,9,-1
 199 0 l 1,10,-1
 165 0 l 1,11,-1
 189 199 l 1,12,-1
 43 199 l 1,13,-1
 44 236 l 1,14,-1
 194 236 l 1,15,-1
 222 460 l 1,16,-1
 75 460 l 1,17,-1
 76 496 l 1,18,-1
 226 496 l 1,19,-1
 251 699 l 1,20,-1
 285 699 l 1,21,-1
 260 496 l 1,22,-1
 486 496 l 1,23,-1
 511 699 l 1,24,-1
 546 699 l 1,25,-1
 521 496 l 1,26,-1
 667 496 l 1,27,-1
 666 460 l 1,0,-1
454 236 m 1,28,-1
 482 460 l 1,29,-1
 256 460 l 1,30,-1
 228 236 l 1,31,-1
 454 236 l 1,28,-1
EndSplineSet
EndChar

StartChar: dollar
Encoding: 36 36 8
Width: 599
Flags: W
LayerCount: 2
Fore
SplineSet
146.5 462 m 128,-1,1
 172 432 172 432 209.5 415.5 c 128,-1,2
 247 399 247 399 311 379 c 0,3,4
 382 358 382 358 426 338 c 128,-1,5
 470 318 470 318 500 279 c 128,-1,6
 530 240 530 240 530 178 c 0,7,8
 530 101 530 101 471.5 52 c 128,-1,9
 413 3 413 3 314 -3 c 1,10,-1
 314 -125 l 1,11,-1
 279 -125 l 1,12,-1
 279 -4 l 1,13,14
 212 -3 212 -3 147.5 25 c 128,-1,15
 83 53 83 53 38 98 c 1,16,-1
 60 135 l 1,17,18
 102 90 102 90 164 64.5 c 128,-1,19
 226 39 226 39 288 39 c 0,20,21
 379 39 379 39 432 76.5 c 128,-1,22
 485 114 485 114 485 177 c 0,23,24
 485 226 485 226 459 256.5 c 128,-1,25
 433 287 433 287 394.5 304 c 128,-1,26
 356 321 356 321 292 340 c 0,27,28
 220 362 220 362 177.5 381.5 c 128,-1,29
 135 401 135 401 105.5 439 c 128,-1,30
 76 477 76 477 76 538 c 0,31,32
 76 608 76 608 131 653 c 128,-1,33
 186 698 186 698 279 704 c 1,34,-1
 279 811 l 1,35,-1
 314 811 l 1,36,-1
 314 705 l 1,37,38
 366 704 366 704 417 688.5 c 128,-1,39
 468 673 468 673 506 648 c 1,40,-1
 487 610 l 1,41,42
 449 635 449 635 400 648 c 128,-1,43
 351 661 351 661 304 661 c 0,44,45
 221 661 221 661 171 628 c 128,-1,46
 121 595 121 595 121 540 c 0,47,0
 121 492 121 492 146.5 462 c 128,-1,1
EndSplineSet
EndChar

StartChar: ampersand
Encoding: 38 38 10
Width: 634
Flags: W
LayerCount: 2
Fore
SplineSet
627 20 m 1,0,-1
 604 -5 l 1,1,-1
 478 120 l 1,2,3
 428 61 428 61 371.5 30 c 128,-1,4
 315 -1 315 -1 256 -1 c 0,5,6
 202 -1 202 -1 157 23 c 128,-1,7
 112 47 112 47 85.5 90 c 128,-1,8
 59 133 59 133 59 185 c 0,9,10
 59 255 59 255 103 300 c 128,-1,11
 147 345 147 345 226 387 c 1,12,13
 187 437 187 437 168 478.5 c 128,-1,14
 149 520 149 520 149 558 c 0,15,16
 149 619 149 619 193.5 659.5 c 128,-1,17
 238 700 238 700 308 700 c 0,18,19
 374 700 374 700 415 663.5 c 128,-1,20
 456 627 456 627 456 568 c 0,21,22
 456 524 456 524 432 490.5 c 128,-1,23
 408 457 408 457 372 433 c 128,-1,24
 336 409 336 409 278 378 c 1,25,26
 334 310 334 310 473 173 c 1,27,28
 517 234 517 234 554 319 c 1,29,-1
 585 296 l 1,30,31
 548 211 548 211 499 147 c 1,32,-1
 627 20 l 1,0,-1
257 403 m 1,34,35
 313 432 313 432 345 452.5 c 128,-1,36
 377 473 377 473 398.5 502 c 128,-1,37
 420 531 420 531 420 568 c 0,38,39
 420 613 420 613 390 640.5 c 128,-1,40
 360 668 360 668 309 668 c 0,41,42
 254 668 254 668 219.5 636.5 c 128,-1,43
 185 605 185 605 185 558 c 0,44,33
 185 495 185 495 257 403 c 1,34,35
452 146 m 1,46,47
 371 227 371 227 326 273.5 c 128,-1,48
 281 320 281 320 247 361 c 1,49,50
 174 321 174 321 135 282.5 c 128,-1,51
 96 244 96 244 96 187 c 0,52,53
 96 143 96 143 117.5 108.5 c 128,-1,54
 139 74 139 74 176 54.5 c 128,-1,55
 213 35 213 35 257 35 c 0,56,45
 360 35 360 35 452 146 c 1,46,47
EndSplineSet
Substitution2: "<3,3> Small Caps in Latin lookup 11 subtable" ampersand.sc
EndChar

StartChar: quotesingle
Encoding: 39 39 11
Width: 155
Flags: W
LayerCount: 2
Fore
SplineSet
60 699 m 1,0,-1
 95 699 l 1,1,-1
 95 495 l 1,2,-1
 60 495 l 1,3,-1
 60 699 l 1,0,-1
EndSplineSet
Substitution2: "<3,3> Small Caps in Latin lookup 11 subtable" quotesingle.sc
EndChar

StartChar: parenleft
Encoding: 40 40 12
Width: 284
Flags: W
LayerCount: 2
Fore
SplineSet
164.5 547.5 m 128,-1,1
 135 436 135 436 135 309 c 256,2,3
 135 182 135 182 164.5 70.5 c 128,-1,4
 194 -41 194 -41 249 -124 c 1,5,-1
 211 -124 l 1,6,7
 155 -42 155 -42 125.5 69.5 c 128,-1,8
 96 181 96 181 96 309 c 256,9,10
 96 437 96 437 125.5 548.5 c 128,-1,11
 155 660 155 660 211 742 c 1,12,-1
 249 742 l 1,13,0
 194 659 194 659 164.5 547.5 c 128,-1,1
EndSplineSet
Substitution2: "'rtla' Right to Left Alternates in Latin lookup 0 subtable" parenright
EndChar

StartChar: parenright
Encoding: 41 41 13
Width: 284
Flags: W
LayerCount: 2
Fore
SplineSet
73 742 m 1,0,1
 129 660 129 660 158.5 548.5 c 128,-1,2
 188 437 188 437 188 309 c 256,3,4
 188 181 188 181 158.5 69.5 c 128,-1,5
 129 -42 129 -42 73 -124 c 1,6,-1
 35 -124 l 1,7,8
 90 -41 90 -41 119.5 70.5 c 128,-1,9
 149 182 149 182 149 309 c 256,10,11
 149 436 149 436 119.5 547.5 c 128,-1,12
 90 659 90 659 35 742 c 1,13,-1
 73 742 l 1,0,1
EndSplineSet
Substitution2: "'rtla' Right to Left Alternates in Latin lookup 0 subtable" parenleft
EndChar

StartChar: asterisk
Encoding: 42 42 14
Width: 309
Flags: W
LayerCount: 2
Fore
SplineSet
141 722 m 1,0,-1
 168 722 l 1,1,-1
 168 609 l 1,2,-1
 266 666 l 1,3,-1
 280 640 l 1,4,-1
 181 584 l 1,5,-1
 280 528 l 1,6,-1
 266 501 l 1,7,-1
 168 558 l 1,8,-1
 168 445 l 1,9,-1
 141 445 l 1,10,-1
 141 558 l 1,11,-1
 43 501 l 1,12,-1
 29 528 l 1,13,-1
 127 584 l 1,14,-1
 29 640 l 1,15,-1
 43 666 l 1,16,-1
 141 609 l 1,17,-1
 141 722 l 1,0,-1
EndSplineSet
EndChar

StartChar: plus
Encoding: 43 43 15
Width: 484
Flags: W
LayerCount: 2
Fore
SplineSet
445 338 m 1,0,-1
 445 304 l 1,1,-1
 258 304 l 1,2,-1
 258 117 l 1,3,-1
 226 117 l 1,4,-1
 226 304 l 1,5,-1
 39 304 l 1,6,-1
 39 338 l 1,7,-1
 226 338 l 1,8,-1
 226 525 l 1,9,-1
 258 525 l 1,10,-1
 258 338 l 1,11,-1
 445 338 l 1,0,-1
EndSplineSet
EndChar

StartChar: comma
Encoding: 44 44 16
Width: 180
Flags: W
LayerCount: 2
Fore
SplineSet
116 53.5 m 128,-1,1
 126 43 126 43 126 28 c 0,2,3
 126 19 126 19 121.5 9 c 128,-1,4
 117 -1 117 -1 116 -4 c 2,5,-1
 70 -117 l 1,6,-1
 42 -117 l 1,7,-1
 80 -5 l 1,8,9
 70 -1 70 -1 64 8 c 128,-1,10
 58 17 58 17 58 28 c 0,11,12
 58 43 58 43 68 53.5 c 128,-1,13
 78 64 78 64 92 64 c 256,14,0
 106 64 106 64 116 53.5 c 128,-1,1
EndSplineSet
EndChar

StartChar: hyphen
Encoding: 45 45 17
Width: 359
Flags: W
LayerCount: 2
Fore
SplineSet
68 318 m 1,0,-1
 291 318 l 1,1,-1
 291 284 l 1,2,-1
 68 284 l 1,3,-1
 68 318 l 1,0,-1
EndSplineSet
EndChar

StartChar: period
Encoding: 46 46 18
Width: 181
Flags: W
LayerCount: 2
Fore
SplineSet
114.5 54 m 128,-1,1
 125 44 125 44 125 29 c 0,2,3
 125 13 125 13 114.5 2.5 c 128,-1,4
 104 -8 104 -8 90 -8 c 256,5,6
 76 -8 76 -8 66 2.5 c 128,-1,7
 56 13 56 13 56 29 c 0,8,9
 56 44 56 44 66 54 c 128,-1,10
 76 64 76 64 90 64 c 256,11,0
 104 64 104 64 114.5 54 c 128,-1,1
EndSplineSet
Substitution2: "<3,3> Small Caps in Latin lookup 11 subtable" period.sc
EndChar

StartChar: slash
Encoding: 47 47 19
Width: 302
Flags: W
LayerCount: 2
Fore
SplineSet
307 824 m 1,0,-1
 345 824 l 1,1,-1
 37 -127 l 1,2,-1
 -2 -127 l 1,3,-1
 307 824 l 1,0,-1
EndSplineSet
Substitution2: "<11,2> Diagonal Fractions lookup 3 subtable" fraction
EndChar

StartChar: zero
Encoding: 48 48 20
Width: 719
Flags: W
LayerCount: 2
Fore
SplineSet
588.5 611 m 128,-1,1
 661 520 661 520 661 350 c 256,2,3
 661 180 661 180 588.5 88.5 c 128,-1,4
 516 -3 516 -3 380 -3 c 0,5,6
 245 -3 245 -3 172 88.5 c 128,-1,7
 99 180 99 180 99 350 c 0,8,9
 99 519 99 519 172 610.5 c 128,-1,10
 245 702 245 702 380 702 c 0,11,0
 516 702 516 702 588.5 611 c 128,-1,1
202.5 583.5 m 128,-1,13
 141 503 141 503 141 350 c 256,14,15
 141 197 141 197 202.5 116 c 128,-1,16
 264 35 264 35 380 35 c 256,17,18
 496 35 496 35 557.5 116 c 128,-1,19
 619 197 619 197 619 350 c 256,20,21
 619 503 619 503 557.5 583.5 c 128,-1,22
 496 664 496 664 380 664 c 256,23,12
 264 664 264 664 202.5 583.5 c 128,-1,13
EndSplineSet
Substitution2: "<21,0> Lower Case Numbers lookup 10 subtable" zero.osf
Substitution2: "<6,0> Monospaced Numbers lookup 9 subtable" zero.tf
Substitution2: "<11,2> Diagonal Fractions lookup 4 subtable" zero.numr
Substitution2: "<10,1> Superiors lookup 2 subtable" uni2070
Substitution2: "<10,2> Inferiors lookup 1 subtable" uni2080
EndChar

StartChar: one
Encoding: 49 49 21
Width: 354
Flags: W
LayerCount: 2
Fore
SplineSet
6 699 m 1,0,-1
 226 699 l 1,1,-1
 226 0 l 1,2,-1
 185 0 l 1,3,-1
 185 658 l 1,4,-1
 6 658 l 1,5,-1
 6 699 l 1,0,-1
EndSplineSet
Substitution2: "<21,0> Lower Case Numbers lookup 10 subtable" one.osf
Substitution2: "<6,0> Monospaced Numbers lookup 9 subtable" one.tf
Substitution2: "<11,2> Diagonal Fractions lookup 4 subtable" one.numr
Substitution2: "<10,1> Superiors lookup 2 subtable" uni00B9
Substitution2: "<10,2> Inferiors lookup 1 subtable" uni2081
EndChar

StartChar: two
Encoding: 50 50 22
Width: 562
Flags: W
LayerCount: 2
Fore
SplineSet
526 41 m 1,0,-1
 526 0 l 1,1,-1
 39 0 l 1,2,-1
 40 43 l 1,3,-1
 321 337 l 2,4,5
 373 390 373 390 403 442 c 128,-1,6
 433 494 433 494 433 532 c 0,7,8
 433 592 433 592 386.5 626.5 c 128,-1,9
 340 661 340 661 260 661 c 0,10,11
 208 661 208 661 154.5 638.5 c 128,-1,12
 101 616 101 616 59 576 c 1,13,-1
 38 609 l 1,14,15
 84 653 84 653 143.5 677.5 c 128,-1,16
 203 702 203 702 264 702 c 0,17,18
 362 702 362 702 419 657 c 128,-1,19
 476 612 476 612 476 536 c 0,20,21
 476 490 476 490 442 431.5 c 128,-1,22
 408 373 408 373 349 311 c 2,23,-1
 89 41 l 1,24,-1
 526 41 l 1,0,-1
EndSplineSet
Substitution2: "<21,0> Lower Case Numbers lookup 10 subtable" two.osf
Substitution2: "<6,0> Monospaced Numbers lookup 9 subtable" two.tf
Substitution2: "<11,2> Diagonal Fractions lookup 4 subtable" two.numr
Substitution2: "<10,1> Superiors lookup 2 subtable" uni00B2
Substitution2: "<10,2> Inferiors lookup 1 subtable" uni2082
EndChar

StartChar: three
Encoding: 51 51 23
Width: 574
Flags: W
LayerCount: 2
Fore
SplineSet
449 346 m 128,-1,1
 518 297 518 297 518 212 c 0,2,3
 518 149 518 149 486 100 c 128,-1,4
 454 51 454 51 394 24 c 128,-1,5
 334 -3 334 -3 253 -3 c 0,6,7
 192 -3 192 -3 131.5 14 c 128,-1,8
 71 31 71 31 25 60 c 1,9,-1
 45 96 l 1,10,11
 87 69 87 69 141.5 53 c 128,-1,12
 196 37 196 37 252 37 c 0,13,14
 356 37 356 37 416.5 84 c 128,-1,15
 477 131 477 131 477 208 c 0,16,17
 477 284 477 284 417.5 323.5 c 128,-1,18
 358 363 358 363 250 363 c 2,19,-1
 166 363 l 1,20,-1
 166 395 l 1,21,-1
 426 658 l 1,22,-1
 57 658 l 1,23,-1
 57 699 l 1,24,-1
 482 699 l 1,25,-1
 482 667 l 1,26,-1
 218 398 l 1,27,-1
 263 397 l 2,28,0
 380 395 380 395 449 346 c 128,-1,1
EndSplineSet
Substitution2: "<21,0> Lower Case Numbers lookup 10 subtable" three.osf
Substitution2: "<6,0> Monospaced Numbers lookup 9 subtable" three.tf
Substitution2: "<11,2> Diagonal Fractions lookup 4 subtable" three.numr
Substitution2: "<10,1> Superiors lookup 2 subtable" uni00B3
Substitution2: "<10,2> Inferiors lookup 1 subtable" uni2083
EndChar

StartChar: four
Encoding: 52 52 24
Width: 576
Flags: W
LayerCount: 2
Fore
SplineSet
547 240 m 1,0,-1
 547 199 l 1,1,-1
 430 199 l 1,2,-1
 430 0 l 1,3,-1
 390 0 l 1,4,-1
 390 199 l 1,5,-1
 30 199 l 1,6,-1
 30 240 l 1,7,-1
 309 699 l 1,8,-1
 352 699 l 1,9,-1
 74 240 l 1,10,-1
 390 240 l 1,11,-1
 390 450 l 1,12,-1
 430 450 l 1,13,-1
 430 240 l 1,14,-1
 547 240 l 1,0,-1
EndSplineSet
Substitution2: "<21,0> Lower Case Numbers lookup 10 subtable" four.osf
Substitution2: "<6,0> Monospaced Numbers lookup 9 subtable" four.tf
Substitution2: "<11,2> Diagonal Fractions lookup 4 subtable" four.numr
Substitution2: "<10,1> Superiors lookup 2 subtable" uni2074
Substitution2: "<10,2> Inferiors lookup 1 subtable" uni2084
EndChar

StartChar: five
Encoding: 53 53 25
Width: 609
Flags: W
LayerCount: 2
Fore
SplineSet
453 399 m 128,-1,1
 509 374 509 374 539.5 329 c 128,-1,2
 570 284 570 284 570 225 c 0,3,4
 570 157 570 157 539 105 c 128,-1,5
 508 53 508 53 451.5 25 c 128,-1,6
 395 -3 395 -3 319 -3 c 0,7,8
 262 -3 262 -3 197.5 16.5 c 128,-1,9
 133 36 133 36 81 68 c 1,10,-1
 100 104 l 1,11,12
 147 74 147 74 206 56 c 128,-1,13
 265 38 265 38 317 38 c 0,14,15
 412 38 412 38 469 88 c 128,-1,16
 526 138 526 138 526 223 c 0,17,18
 526 296 526 296 469.5 339.5 c 128,-1,19
 413 383 413 383 316 383 c 0,20,21
 278 383 278 383 225 375 c 128,-1,22
 172 367 172 367 130 354 c 1,23,-1
 130 699 l 1,24,-1
 542 699 l 1,25,-1
 542 658 l 1,26,-1
 170 658 l 1,27,-1
 170 404 l 1,28,29
 204 413 204 413 247 418.5 c 128,-1,30
 290 424 290 424 323 424 c 0,31,0
 397 424 397 424 453 399 c 128,-1,1
EndSplineSet
Substitution2: "<21,0> Lower Case Numbers lookup 10 subtable" five.osf
Substitution2: "<6,0> Monospaced Numbers lookup 9 subtable" five.tf
Substitution2: "<11,2> Diagonal Fractions lookup 4 subtable" five.numr
Substitution2: "<10,1> Superiors lookup 2 subtable" uni2075
Substitution2: "<10,2> Inferiors lookup 1 subtable" uni2085
EndChar

StartChar: six
Encoding: 54 54 26
Width: 643
Flags: W
LayerCount: 2
Fore
SplineSet
449 651.5 m 128,-1,1
 403 663 403 663 361 663 c 0,2,3
 246 663 246 663 182.5 577.5 c 128,-1,4
 119 492 119 492 119 340 c 0,5,6
 119 309 119 309 122 276 c 1,7,8
 141 354 141 354 202 398 c 128,-1,9
 263 442 263 442 354 442 c 0,10,11
 458 442 458 442 518 384 c 128,-1,12
 578 326 578 326 578 225 c 0,13,14
 578 120 578 120 515 58.5 c 128,-1,15
 452 -3 452 -3 346 -3 c 0,16,17
 220 -3 220 -3 149 84.5 c 128,-1,18
 78 172 78 172 78 333 c 0,19,20
 78 444 78 444 112 527 c 128,-1,21
 146 610 146 610 209 656 c 128,-1,22
 272 702 272 702 358 702 c 0,23,24
 403 702 403 702 454 689.5 c 128,-1,25
 505 677 505 677 550 656 c 1,26,-1
 532 620 l 1,27,0
 495 640 495 640 449 651.5 c 128,-1,1
238 378 m 128,-1,29
 190 352 190 352 164.5 309.5 c 128,-1,30
 139 267 139 267 139 219 c 0,31,32
 139 178 139 178 161 136 c 128,-1,33
 183 94 183 94 229 65.5 c 128,-1,34
 275 37 275 37 341 37 c 0,35,36
 429 37 429 37 483.5 88 c 128,-1,37
 538 139 538 139 538 226 c 0,38,39
 538 308 538 308 487 356 c 128,-1,40
 436 404 436 404 349 404 c 0,41,28
 286 404 286 404 238 378 c 128,-1,29
EndSplineSet
Substitution2: "<21,0> Lower Case Numbers lookup 10 subtable" six.osf
Substitution2: "<6,0> Monospaced Numbers lookup 9 subtable" six.tf
Substitution2: "<11,2> Diagonal Fractions lookup 4 subtable" six.numr
Substitution2: "<10,1> Superiors lookup 2 subtable" uni2076
Substitution2: "<10,2> Inferiors lookup 1 subtable" uni2086
EndChar

StartChar: seven
Encoding: 55 55 27
Width: 559
Flags: W
LayerCount: 2
Fore
SplineSet
30 699 m 1,0,-1
 532 699 l 1,1,-1
 532 658 l 1,2,-1
 200 0 l 1,3,-1
 155 0 l 1,4,-1
 488 658 l 1,5,-1
 69 658 l 1,6,-1
 69 549 l 1,7,-1
 30 549 l 1,8,-1
 30 699 l 1,0,-1
EndSplineSet
Substitution2: "<21,0> Lower Case Numbers lookup 10 subtable" seven.osf
Substitution2: "<6,0> Monospaced Numbers lookup 9 subtable" seven.tf
Substitution2: "<11,2> Diagonal Fractions lookup 4 subtable" seven.numr
Substitution2: "<10,1> Superiors lookup 2 subtable" uni2077
Substitution2: "<10,2> Inferiors lookup 1 subtable" uni2087
EndChar

StartChar: eight
Encoding: 56 56 28
Width: 645
Flags: W
LayerCount: 2
Fore
SplineSet
481.5 657 m 128,-1,1
 539 612 539 612 539 532 c 0,2,3
 539 474 539 474 506.5 434.5 c 128,-1,4
 474 395 474 395 414 375 c 1,5,6
 489 356 489 356 530.5 310 c 128,-1,7
 572 264 572 264 572 195 c 0,8,9
 572 102 572 102 505.5 49.5 c 128,-1,10
 439 -3 439 -3 323 -3 c 0,11,12
 206 -3 206 -3 139.5 49.5 c 128,-1,13
 73 102 73 102 73 195 c 0,14,15
 73 263 73 263 115 309.5 c 128,-1,16
 157 356 157 356 232 375 c 1,17,18
 172 396 172 396 139 436 c 128,-1,19
 106 476 106 476 106 533 c 0,20,21
 106 612 106 612 164 657 c 128,-1,22
 222 702 222 702 323 702 c 256,23,0
 424 702 424 702 481.5 657 c 128,-1,1
192 629.5 m 128,-1,25
 144 593 144 593 144 529 c 256,26,27
 144 465 144 465 192 428 c 128,-1,28
 240 391 240 391 323 391 c 256,29,30
 406 391 406 391 453.5 427.5 c 128,-1,31
 501 464 501 464 501 529 c 0,32,33
 501 593 501 593 453.5 629.5 c 128,-1,34
 406 666 406 666 323 666 c 256,35,24
 240 666 240 666 192 629.5 c 128,-1,25
169 311.5 m 128,-1,37
 113 270 113 270 113 199 c 0,38,39
 113 122 113 122 169 78.5 c 128,-1,40
 225 35 225 35 323 35 c 0,41,42
 420 35 420 35 476 78.5 c 128,-1,43
 532 122 532 122 532 198 c 0,44,45
 532 270 532 270 476 311.5 c 128,-1,46
 420 353 420 353 322 353 c 0,47,36
 225 353 225 353 169 311.5 c 128,-1,37
EndSplineSet
Substitution2: "<21,0> Lower Case Numbers lookup 10 subtable" eight.osf
Substitution2: "<6,0> Monospaced Numbers lookup 9 subtable" eight.tf
Substitution2: "<11,2> Diagonal Fractions lookup 4 subtable" eight.numr
Substitution2: "<10,1> Superiors lookup 2 subtable" uni2078
Substitution2: "<10,2> Inferiors lookup 1 subtable" uni2088
EndChar

StartChar: nine
Encoding: 57 57 29
Width: 639
Flags: W
LayerCount: 2
Fore
SplineSet
210 48 m 128,-1,1
 255 37 255 37 296 37 c 0,2,3
 411 37 411 37 474 123 c 128,-1,4
 537 209 537 209 537 362 c 0,5,6
 537 393 537 393 534 424 c 1,7,8
 514 346 514 346 454 302 c 128,-1,9
 394 258 394 258 304 258 c 0,10,11
 201 258 201 258 141.5 316 c 128,-1,12
 82 374 82 374 82 476 c 0,13,14
 82 581 82 581 144.5 641.5 c 128,-1,15
 207 702 207 702 312 702 c 0,16,17
 438 702 438 702 508 615.5 c 128,-1,18
 578 529 578 529 578 368 c 0,19,20
 578 257 578 257 544.5 173 c 128,-1,21
 511 89 511 89 448 43 c 128,-1,22
 385 -3 385 -3 300 -3 c 0,23,24
 255 -3 255 -3 204.5 9.5 c 128,-1,25
 154 22 154 22 110 44 c 1,26,-1
 128 79 l 1,27,0
 165 59 165 59 210 48 c 128,-1,1
176 611.5 m 128,-1,29
 122 561 122 561 122 474 c 0,30,31
 122 392 122 392 172.5 344 c 128,-1,32
 223 296 223 296 309 296 c 0,33,34
 371 296 371 296 418 321.5 c 128,-1,35
 465 347 465 347 490.5 389.5 c 128,-1,36
 516 432 516 432 516 480 c 0,37,38
 516 521 516 521 494.5 563 c 128,-1,39
 473 605 473 605 428 633.5 c 128,-1,40
 383 662 383 662 317 662 c 0,41,28
 230 662 230 662 176 611.5 c 128,-1,29
EndSplineSet
Substitution2: "<21,0> Lower Case Numbers lookup 10 subtable" nine.osf
Substitution2: "<6,0> Monospaced Numbers lookup 9 subtable" nine.tf
Substitution2: "<11,2> Diagonal Fractions lookup 4 subtable" nine.numr
Substitution2: "<10,1> Superiors lookup 2 subtable" uni2079
Substitution2: "<10,2> Inferiors lookup 1 subtable" uni2089
EndChar

StartChar: less
Encoding: 60 60 32
Width: 484
Flags: W
LayerCount: 2
Fore
SplineSet
445 536 m 1,0,-1
 445 497 l 1,1,-1
 71 327 l 1,2,-1
 445 158 l 1,3,-1
 445 119 l 1,4,-1
 39 305 l 1,5,-1
 39 350 l 1,6,-1
 445 536 l 1,0,-1
EndSplineSet
Substitution2: "'rtla' Right to Left Alternates in Latin lookup 0 subtable" greater
EndChar

StartChar: equal
Encoding: 61 61 33
Width: 484
Flags: W
LayerCount: 2
Fore
SplineSet
39 440 m 1,0,-1
 445 440 l 1,1,-1
 445 405 l 1,2,-1
 39 405 l 1,3,-1
 39 440 l 1,0,-1
39 237 m 1,4,-1
 445 237 l 1,5,-1
 445 202 l 1,6,-1
 39 202 l 1,7,-1
 39 237 l 1,4,-1
EndSplineSet
EndChar

StartChar: greater
Encoding: 62 62 34
Width: 484
Flags: W
LayerCount: 2
Fore
SplineSet
39 120 m 1,0,-1
 39 159 l 1,1,-1
 413 329 l 1,2,-1
 39 498 l 1,3,-1
 39 537 l 1,4,-1
 445 351 l 1,5,-1
 445 306 l 1,6,-1
 39 120 l 1,0,-1
EndSplineSet
Substitution2: "'rtla' Right to Left Alternates in Latin lookup 0 subtable" less
EndChar

StartChar: question
Encoding: 63 63 35
Width: 406
Flags: W
LayerCount: 2
Fore
SplineSet
77 642 m 128,-1,1
 126 683 126 683 205 683 c 0,2,3
 285 683 285 683 334.5 643.5 c 128,-1,4
 384 604 384 604 384 528 c 0,5,6
 384 488 384 488 371.5 458.5 c 128,-1,7
 359 429 359 429 341 409.5 c 128,-1,8
 323 390 323 390 292 363 c 0,9,10
 248 327 248 327 226 295 c 128,-1,11
 204 263 204 263 204 211 c 1,12,-1
 169 211 l 1,13,14
 169 252 169 252 181.5 282 c 128,-1,15
 194 312 194 312 212.5 332 c 128,-1,16
 231 352 231 352 261 377 c 0,17,18
 290 402 290 402 306 420 c 128,-1,19
 322 438 322 438 333.5 463.5 c 128,-1,20
 345 489 345 489 345 524 c 0,21,22
 345 583 345 583 306 613.5 c 128,-1,23
 267 644 267 644 202 644 c 0,24,25
 138 644 138 644 100.5 613.5 c 128,-1,26
 63 583 63 583 59 524 c 1,27,-1
 24 526 l 1,28,0
 28 601 28 601 77 642 c 128,-1,1
209.5 54 m 128,-1,30
 220 44 220 44 220 29 c 0,31,32
 220 13 220 13 209.5 2.5 c 128,-1,33
 199 -8 199 -8 185 -8 c 256,34,35
 171 -8 171 -8 161 2.5 c 128,-1,36
 151 13 151 13 151 29 c 0,37,38
 151 44 151 44 161 54 c 128,-1,39
 171 64 171 64 185 64 c 256,40,29
 199 64 199 64 209.5 54 c 128,-1,30
EndSplineSet
Substitution2: "<3,3> Small Caps in Latin lookup 11 subtable" question.sc
EndChar

StartChar: at
Encoding: 64 64 36
Width: 999
Flags: W
LayerCount: 2
Fore
SplineSet
747.5 50 m 128,-1,1
 767 28 767 28 797 28 c 0,2,3
 832 28 832 28 859.5 57 c 128,-1,4
 887 86 887 86 902.5 139 c 128,-1,5
 918 192 918 192 918 262 c 0,6,7
 918 381 918 381 865 476.5 c 128,-1,8
 812 572 812 572 717.5 626 c 128,-1,9
 623 680 623 680 504 680 c 0,10,11
 384 680 384 680 287.5 626 c 128,-1,12
 191 572 191 572 136 476.5 c 128,-1,13
 81 381 81 381 81 263 c 0,14,15
 81 150 81 150 134 59 c 128,-1,16
 187 -32 187 -32 280.5 -83.5 c 128,-1,17
 374 -135 374 -135 491 -135 c 0,18,19
 534 -135 534 -135 585.5 -121.5 c 128,-1,20
 637 -108 637 -108 673 -87 c 1,21,-1
 688 -119 l 1,22,23
 649 -142 649 -142 593 -157 c 128,-1,24
 537 -172 537 -172 491 -172 c 0,25,26
 365 -172 365 -172 263 -115.5 c 128,-1,27
 161 -59 161 -59 103.5 40 c 128,-1,28
 46 139 46 139 46 263 c 0,29,30
 46 392 46 392 105.5 495.5 c 128,-1,31
 165 599 165 599 269.5 657.5 c 128,-1,32
 374 716 374 716 504 716 c 0,33,34
 632 716 632 716 734 657.5 c 128,-1,35
 836 599 836 599 894 495.5 c 128,-1,36
 952 392 952 392 952 262 c 0,37,38
 952 181 952 181 932.5 120.5 c 128,-1,39
 913 60 913 60 877 27 c 128,-1,40
 841 -6 841 -6 793 -6 c 0,41,42
 752 -6 752 -6 724 22 c 128,-1,43
 696 50 696 50 694 98 c 2,44,-1
 694 150 l 1,45,46
 665 87 665 87 607 50 c 128,-1,47
 549 13 549 13 475 13 c 0,48,49
 405 13 405 13 348 45.5 c 128,-1,50
 291 78 291 78 258.5 136 c 128,-1,51
 226 194 226 194 226 267 c 0,52,53
 226 339 226 339 257.5 397.5 c 128,-1,54
 289 456 289 456 345.5 489 c 128,-1,55
 402 522 402 522 472 522 c 0,56,57
 547 522 547 522 605.5 484.5 c 128,-1,58
 664 447 664 447 688 389 c 1,59,-1
 688 518 l 1,60,-1
 728 518 l 1,61,-1
 728 110 l 2,62,0
 728 72 728 72 747.5 50 c 128,-1,1
369.5 453.5 m 128,-1,64
 322 426 322 426 295 377 c 128,-1,65
 268 328 268 328 268 268 c 0,66,67
 268 207 268 207 295 158.5 c 128,-1,68
 322 110 322 110 369.5 82 c 128,-1,69
 417 54 417 54 477 54 c 0,70,71
 538 54 538 54 585.5 81.5 c 128,-1,72
 633 109 633 109 660 158 c 128,-1,73
 687 207 687 207 687 268 c 0,74,75
 687 328 687 328 660 377 c 128,-1,76
 633 426 633 426 585 453.5 c 128,-1,77
 537 481 537 481 477 481 c 256,78,63
 417 481 417 481 369.5 453.5 c 128,-1,64
EndSplineSet
EndChar

StartChar: A
Encoding: 65 65 37
Width: 698
Flags: W
LayerCount: 2
Fore
SplineSet
644 0 m 1,0,-1
 553 199 l 1,1,-1
 144 199 l 1,2,-1
 54 0 l 1,3,-1
 8 0 l 1,4,-1
 325 699 l 1,5,-1
 370 699 l 1,6,-1
 690 0 l 1,7,-1
 644 0 l 1,0,-1
162 241 m 1,8,-1
 534 241 l 1,9,-1
 347 651 l 1,10,-1
 162 241 l 1,8,-1
EndSplineSet
Substitution2: "<11,2> Diagonal Fractions lookup 7 nested-substitutions 0 subtable" ordfeminine
Substitution2: "<11,2> Diagonal Fractions lookup 5 nested-substitutions 0 subtable" ordfeminine
EndChar

StartChar: B
Encoding: 66 66 38
Width: 725
Flags: W
LayerCount: 2
Fore
SplineSet
566.5 653.5 m 128,-1,1
 624 608 624 608 624 526 c 0,2,3
 624 461 624 461 588.5 419 c 128,-1,4
 553 377 553 377 489 365 c 1,5,6
 570 355 570 355 614.5 308.5 c 128,-1,7
 659 262 659 262 659 188 c 0,8,9
 659 99 659 99 593 49.5 c 128,-1,10
 527 0 527 0 408 0 c 2,11,-1
 120 0 l 1,12,-1
 120 699 l 1,13,-1
 406 699 l 2,14,0
 509 699 509 699 566.5 653.5 c 128,-1,1
535.5 418 m 128,-1,16
 582 454 582 454 582 521 c 0,17,18
 582 586 582 586 535.5 622 c 128,-1,19
 489 658 489 658 405 658 c 2,20,-1
 162 658 l 1,21,-1
 162 382 l 1,22,-1
 405 382 l 2,23,15
 489 382 489 382 535.5 418 c 128,-1,16
561.5 80.5 m 128,-1,25
 617 120 617 120 617 193 c 0,26,27
 617 264 617 264 561.5 302.5 c 128,-1,28
 506 341 506 341 405 341 c 2,29,-1
 162 341 l 1,30,-1
 162 42 l 1,31,-1
 405 42 l 2,32,24
 506 41 506 41 561.5 80.5 c 128,-1,25
EndSplineSet
EndChar

StartChar: C
Encoding: 67 67 39
Width: 703
Flags: W
LayerCount: 2
Fore
SplineSet
527 641 m 128,-1,1
 470 664 470 664 408 664 c 0,2,3
 321 664 321 664 247.5 622 c 128,-1,4
 174 580 174 580 131 508 c 128,-1,5
 88 436 88 436 88 351 c 256,6,7
 88 266 88 266 131 194 c 128,-1,8
 174 122 174 122 247.5 79.5 c 128,-1,9
 321 37 321 37 408 37 c 0,10,11
 470 37 470 37 526.5 59.5 c 128,-1,12
 583 82 583 82 628 123 c 1,13,-1
 654 94 l 1,14,15
 605 48 605 48 540.5 22 c 128,-1,16
 476 -4 476 -4 407 -4 c 0,17,18
 309 -4 309 -4 226 43.5 c 128,-1,19
 143 91 143 91 94.5 172.5 c 128,-1,20
 46 254 46 254 46 350 c 256,21,22
 46 446 46 446 94.5 527.5 c 128,-1,23
 143 609 143 609 226 656.5 c 128,-1,24
 309 704 309 704 407 704 c 0,25,26
 476 704 476 704 539.5 679 c 128,-1,27
 603 654 603 654 653 609 c 1,28,-1
 628 577 l 1,29,0
 584 618 584 618 527 641 c 128,-1,1
EndSplineSet
EndChar

StartChar: D
Encoding: 68 68 40
Width: 803
Flags: W
LayerCount: 2
Fore
SplineSet
578.5 652.5 m 128,-1,1
 661 606 661 606 709 525.5 c 128,-1,2
 757 445 757 445 757 349 c 0,3,4
 757 254 757 254 709 173.5 c 128,-1,5
 661 93 661 93 578 46.5 c 128,-1,6
 495 0 495 0 397 0 c 2,7,-1
 120 0 l 1,8,-1
 120 699 l 1,9,-1
 398 699 l 2,10,0
 496 699 496 699 578.5 652.5 c 128,-1,1
556.5 82.5 m 128,-1,12
 629 124 629 124 671.5 194.5 c 128,-1,13
 714 265 714 265 714 349 c 0,14,15
 714 434 714 434 671.5 504.5 c 128,-1,16
 629 575 629 575 556.5 616.5 c 128,-1,17
 484 658 484 658 397 658 c 2,18,-1
 162 658 l 1,19,-1
 162 41 l 1,20,-1
 398 41 l 2,21,11
 484 41 484 41 556.5 82.5 c 128,-1,12
EndSplineSet
EndChar

StartChar: E
Encoding: 69 69 41
Width: 647
Flags: W
LayerCount: 2
Fore
SplineSet
120 699 m 1,0,-1
 571 699 l 1,1,-1
 571 658 l 1,2,-1
 162 658 l 1,3,-1
 162 379 l 1,4,-1
 526 379 l 1,5,-1
 526 337 l 1,6,-1
 162 337 l 1,7,-1
 162 41 l 1,8,-1
 584 41 l 1,9,-1
 584 0 l 1,10,-1
 120 0 l 1,11,-1
 120 699 l 1,0,-1
EndSplineSet
EndChar

StartChar: F
Encoding: 70 70 42
Width: 552
Flags: W
LayerCount: 2
Fore
SplineSet
120 699 m 1,0,-1
 541 699 l 1,1,-1
 541 658 l 1,2,-1
 162 658 l 1,3,-1
 162 356 l 1,4,-1
 498 356 l 1,5,-1
 498 314 l 1,6,-1
 162 314 l 1,7,-1
 162 0 l 1,8,-1
 120 0 l 1,9,-1
 120 699 l 1,0,-1
EndSplineSet
EndChar

StartChar: G
Encoding: 71 71 43
Width: 758
Flags: W
LayerCount: 2
Fore
SplineSet
409 364 m 1,0,-1
 655 364 l 1,1,-1
 655 88 l 1,2,3
 606 45 606 45 541 20.5 c 128,-1,4
 476 -4 476 -4 407 -4 c 0,5,6
 309 -4 309 -4 226 44 c 128,-1,7
 143 92 143 92 94.5 173.5 c 128,-1,8
 46 255 46 255 46 351 c 256,9,10
 46 447 46 447 95 528 c 128,-1,11
 144 609 144 609 227.5 656.5 c 128,-1,12
 311 704 311 704 409 704 c 0,13,14
 478 704 478 704 541.5 679.5 c 128,-1,15
 605 655 605 655 655 611 c 1,16,-1
 630 580 l 1,17,18
 586 620 586 620 529 642 c 128,-1,19
 472 664 472 664 409 664 c 0,20,21
 322 664 322 664 248.5 621.5 c 128,-1,22
 175 579 175 579 131.5 507.5 c 128,-1,23
 88 436 88 436 88 351 c 0,24,25
 88 265 88 265 131 193 c 128,-1,26
 174 121 174 121 248 78.5 c 128,-1,27
 322 36 322 36 409 36 c 0,28,29
 466 36 466 36 520 55 c 128,-1,30
 574 74 574 74 617 109 c 1,31,-1
 617 324 l 1,32,-1
 409 324 l 1,33,-1
 409 364 l 1,0,-1
EndSplineSet
EndChar

StartChar: H
Encoding: 72 72 44
Width: 797
Flags: W
LayerCount: 2
Fore
SplineSet
120 699 m 1,0,-1
 162 699 l 1,1,-1
 162 371 l 1,2,-1
 635 371 l 1,3,-1
 635 699 l 1,4,-1
 677 699 l 1,5,-1
 677 0 l 1,6,-1
 635 0 l 1,7,-1
 635 330 l 1,8,-1
 162 330 l 1,9,-1
 162 0 l 1,10,-1
 120 0 l 1,11,-1
 120 699 l 1,0,-1
EndSplineSet
EndChar

StartChar: I
Encoding: 73 73 45
Width: 282
Flags: W
LayerCount: 2
Fore
SplineSet
120 699 m 1,0,-1
 162 699 l 1,1,-1
 162 0 l 1,2,-1
 120 0 l 1,3,-1
 120 699 l 1,0,-1
EndSplineSet
EndChar

StartChar: J
Encoding: 74 74 46
Width: 468
Flags: W
LayerCount: 2
Fore
SplineSet
317.5 51.5 m 128,-1,1
 270 -1 270 -1 183 -1 c 0,2,3
 129 -1 129 -1 83 24 c 128,-1,4
 37 49 37 49 2 97 c 1,5,-1
 25 130 l 1,6,7
 56 87 56 87 97 64.5 c 128,-1,8
 138 42 138 42 183 42 c 0,9,10
 251 42 251 42 287 83.5 c 128,-1,11
 323 125 323 125 323 203 c 2,12,-1
 323 658 l 1,13,-1
 66 658 l 1,14,-1
 66 699 l 1,15,-1
 365 699 l 1,16,-1
 365 202 l 2,17,0
 365 104 365 104 317.5 51.5 c 128,-1,1
EndSplineSet
EndChar

StartChar: K
Encoding: 75 75 47
Width: 681
Flags: W
LayerCount: 2
Fore
SplineSet
654 0 m 1,0,-1
 601 0 l 1,1,-1
 316 356 l 1,2,-1
 162 188 l 1,3,-1
 162 0 l 1,4,-1
 120 0 l 1,5,-1
 120 699 l 1,6,-1
 162 699 l 1,7,-1
 162 248 l 1,8,-1
 580 699 l 1,9,-1
 632 699 l 1,10,-1
 347 389 l 1,11,-1
 654 0 l 1,0,-1
EndSplineSet
EndChar

StartChar: L
Encoding: 76 76 48
Width: 501
Flags: W
LayerCount: 2
Fore
SplineSet
120 699 m 1,0,-1
 162 699 l 1,1,-1
 162 41 l 1,2,-1
 473 41 l 1,3,-1
 473 0 l 1,4,-1
 120 0 l 1,5,-1
 120 699 l 1,0,-1
EndSplineSet
EndChar

StartChar: M
Encoding: 77 77 49
Width: 935
Flags: W
LayerCount: 2
Fore
SplineSet
120 699 m 1,0,-1
 178 699 l 1,1,-1
 469 148 l 1,2,-1
 758 699 l 1,3,-1
 815 699 l 1,4,-1
 815 0 l 1,5,-1
 776 0 l 1,6,-1
 775 641 l 1,7,-1
 477 76 l 1,8,-1
 459 76 l 1,9,-1
 160 641 l 1,10,-1
 160 0 l 1,11,-1
 120 0 l 1,12,-1
 120 699 l 1,0,-1
EndSplineSet
EndChar

StartChar: N
Encoding: 78 78 50
Width: 797
Flags: W
LayerCount: 2
Fore
SplineSet
636 699 m 1,0,-1
 677 699 l 1,1,-1
 677 0 l 1,2,-1
 628 0 l 1,3,-1
 162 636 l 1,4,-1
 162 0 l 1,5,-1
 120 0 l 1,6,-1
 120 699 l 1,7,-1
 169 699 l 1,8,-1
 636 62 l 1,9,-1
 636 699 l 1,0,-1
EndSplineSet
EndChar

StartChar: O
Encoding: 79 79 51
Width: 816
Flags: W
LayerCount: 2
Fore
SplineSet
589.5 656.5 m 128,-1,1
 673 609 673 609 721.5 528 c 128,-1,2
 770 447 770 447 770 351 c 256,3,4
 770 255 770 255 721.5 173.5 c 128,-1,5
 673 92 673 92 589.5 44 c 128,-1,6
 506 -4 506 -4 408 -4 c 256,7,8
 310 -4 310 -4 226.5 44 c 128,-1,9
 143 92 143 92 94.5 173.5 c 128,-1,10
 46 255 46 255 46 351 c 256,11,12
 46 447 46 447 94.5 528 c 128,-1,13
 143 609 143 609 226.5 656.5 c 128,-1,14
 310 704 310 704 408 704 c 256,15,0
 506 704 506 704 589.5 656.5 c 128,-1,1
248.5 621 m 128,-1,17
 175 579 175 579 132 507.5 c 128,-1,18
 89 436 89 436 89 351 c 256,19,20
 89 266 89 266 132 194 c 128,-1,21
 175 122 175 122 248.5 79.5 c 128,-1,22
 322 37 322 37 408 37 c 256,23,24
 494 37 494 37 567.5 79.5 c 128,-1,25
 641 122 641 122 684 194 c 128,-1,26
 727 266 727 266 727 351 c 256,27,28
 727 436 727 436 684 507.5 c 128,-1,29
 641 579 641 579 567.5 621 c 128,-1,30
 494 663 494 663 408 663 c 256,31,16
 322 663 322 663 248.5 621 c 128,-1,17
EndSplineSet
Substitution2: "<11,2> Diagonal Fractions lookup 7 nested-substitutions 0 subtable" ordmasculine
Substitution2: "<11,2> Diagonal Fractions lookup 5 nested-substitutions 0 subtable" ordmasculine
EndChar

StartChar: P
Encoding: 80 80 52
Width: 664
Flags: W
LayerCount: 2
Fore
SplineSet
565 639 m 128,-1,1
 635 579 635 579 635 469 c 0,2,3
 635 356 635 356 565 294.5 c 128,-1,4
 495 233 495 233 366 233 c 2,5,-1
 162 233 l 1,6,-1
 162 0 l 1,7,-1
 120 0 l 1,8,-1
 120 699 l 1,9,-1
 366 699 l 2,10,0
 495 699 495 699 565 639 c 128,-1,1
535 324.5 m 128,-1,12
 595 375 595 375 595 468 c 0,13,14
 595 560 595 560 535 609 c 128,-1,15
 475 658 475 658 365 658 c 2,16,-1
 162 658 l 1,17,-1
 162 274 l 1,18,-1
 365 274 l 2,19,11
 475 274 475 274 535 324.5 c 128,-1,12
EndSplineSet
EndChar

StartChar: Q
Encoding: 81 81 53
Width: 831
Flags: W
LayerCount: 2
Fore
SplineSet
810 -55 m 1,0,1
 730 -131 730 -131 643 -131 c 0,2,3
 536 -131 536 -131 428 -3 c 1,4,5
 421 -4 421 -4 408 -4 c 0,6,7
 310 -4 310 -4 226.5 44 c 128,-1,8
 143 92 143 92 94.5 173.5 c 128,-1,9
 46 255 46 255 46 351 c 256,10,11
 46 447 46 447 94.5 528 c 128,-1,12
 143 609 143 609 226.5 656.5 c 128,-1,13
 310 704 310 704 408 704 c 256,14,15
 506 704 506 704 589.5 656.5 c 128,-1,16
 673 609 673 609 721.5 528 c 128,-1,17
 770 447 770 447 770 351 c 0,18,19
 770 266 770 266 731.5 191.5 c 128,-1,20
 693 117 693 117 625.5 67 c 128,-1,21
 558 17 558 17 475 2 c 1,22,23
 522 -45 522 -45 564 -68.5 c 128,-1,24
 606 -92 606 -92 646 -92 c 0,25,26
 713 -92 713 -92 789 -24 c 1,27,-1
 810 -55 l 1,0,1
132 194 m 128,-1,29
 175 122 175 122 248.5 79.5 c 128,-1,30
 322 37 322 37 408 37 c 256,31,32
 494 37 494 37 567.5 79.5 c 128,-1,33
 641 122 641 122 684 194 c 128,-1,34
 727 266 727 266 727 351 c 256,35,36
 727 436 727 436 684 507.5 c 128,-1,37
 641 579 641 579 567.5 621 c 128,-1,38
 494 663 494 663 408 663 c 256,39,40
 322 663 322 663 248.5 621 c 128,-1,41
 175 579 175 579 132 507.5 c 128,-1,42
 89 436 89 436 89 351 c 256,43,28
 89 266 89 266 132 194 c 128,-1,29
EndSplineSet
EndChar

StartChar: R
Encoding: 82 82 54
Width: 722
Flags: W
LayerCount: 2
Fore
SplineSet
591 0 m 1,0,-1
 426 237 l 1,1,2
 401 233 401 233 367 233 c 2,3,-1
 162 233 l 1,4,-1
 162 0 l 1,5,-1
 120 0 l 1,6,-1
 120 699 l 1,7,-1
 367 699 l 2,8,9
 497 699 497 699 567.5 639 c 128,-1,10
 638 579 638 579 638 469 c 0,11,12
 638 380 638 380 594 322.5 c 128,-1,13
 550 265 550 265 466 244 c 1,14,-1
 641 0 l 1,15,-1
 591 0 l 1,0,-1
368 274 m 2,16,17
 478 274 478 274 537.5 324 c 128,-1,18
 597 374 597 374 597 468 c 0,19,20
 597 560 597 560 537.5 609 c 128,-1,21
 478 658 478 658 368 658 c 2,22,-1
 162 658 l 1,23,-1
 162 274 l 1,24,-1
 368 274 l 2,16,17
EndSplineSet
EndChar

StartChar: S
Encoding: 83 83 55
Width: 599
Flags: W
LayerCount: 2
Fore
SplineSet
400 648 m 128,-1,1
 351 661 351 661 304 661 c 0,2,3
 221 661 221 661 171 628 c 128,-1,4
 121 595 121 595 121 540 c 0,5,6
 121 492 121 492 146.5 462 c 128,-1,7
 172 432 172 432 209.5 415.5 c 128,-1,8
 247 399 247 399 311 379 c 0,9,10
 382 358 382 358 426 338 c 128,-1,11
 470 318 470 318 500 279 c 128,-1,12
 530 240 530 240 530 178 c 0,13,14
 530 124 530 124 500 82.5 c 128,-1,15
 470 41 470 41 415 18.5 c 128,-1,16
 360 -4 360 -4 287 -4 c 0,17,18
 218 -4 218 -4 151 24 c 128,-1,19
 84 52 84 52 38 98 c 1,20,-1
 60 135 l 1,21,22
 102 90 102 90 164 64.5 c 128,-1,23
 226 39 226 39 288 39 c 0,24,25
 379 39 379 39 432 76.5 c 128,-1,26
 485 114 485 114 485 177 c 0,27,28
 485 226 485 226 459 256.5 c 128,-1,29
 433 287 433 287 394.5 304 c 128,-1,30
 356 321 356 321 292 340 c 0,31,32
 220 362 220 362 177.5 381.5 c 128,-1,33
 135 401 135 401 105.5 439 c 128,-1,34
 76 477 76 477 76 538 c 0,35,36
 76 588 76 588 104.5 626 c 128,-1,37
 133 664 133 664 185.5 684.5 c 128,-1,38
 238 705 238 705 306 705 c 0,39,40
 359 705 359 705 412.5 689.5 c 128,-1,41
 466 674 466 674 506 648 c 1,42,-1
 487 610 l 1,43,0
 449 635 449 635 400 648 c 128,-1,1
EndSplineSet
EndChar

StartChar: T
Encoding: 84 84 56
Width: 538
Flags: W
LayerCount: 2
Fore
SplineSet
12 699 m 1,0,-1
 526 699 l 1,1,-1
 526 658 l 1,2,-1
 290 658 l 1,3,-1
 290 0 l 1,4,-1
 248 0 l 1,5,-1
 248 658 l 1,6,-1
 12 658 l 1,7,-1
 12 699 l 1,0,-1
EndSplineSet
EndChar

StartChar: U
Encoding: 85 85 57
Width: 771
Flags: W
LayerCount: 2
Fore
SplineSet
208.5 101.5 m 128,-1,1
 272 37 272 37 386 37 c 0,2,3
 499 37 499 37 562.5 101.5 c 128,-1,4
 626 166 626 166 626 283 c 2,5,-1
 626 699 l 1,6,-1
 668 699 l 1,7,-1
 668 283 l 2,8,9
 668 147 668 147 594 71.5 c 128,-1,10
 520 -4 520 -4 386 -4 c 256,11,12
 252 -4 252 -4 177.5 71.5 c 128,-1,13
 103 147 103 147 103 283 c 2,14,-1
 103 699 l 1,15,-1
 145 699 l 1,16,-1
 145 283 l 2,17,0
 145 166 145 166 208.5 101.5 c 128,-1,1
EndSplineSet
EndChar

StartChar: V
Encoding: 86 86 58
Width: 640
Flags: W
LayerCount: 2
Fore
SplineSet
8 699 m 1,0,-1
 55 699 l 1,1,-1
 320 50 l 1,2,-1
 586 699 l 1,3,-1
 632 699 l 1,4,-1
 342 0 l 1,5,-1
 298 0 l 1,6,-1
 8 699 l 1,0,-1
EndSplineSet
EndChar

StartChar: W
Encoding: 87 87 59
Width: 1004
Flags: W
LayerCount: 2
Fore
SplineSet
950 699 m 1,0,-1
 995 699 l 1,1,-1
 758 0 l 1,2,-1
 715 0 l 1,3,-1
 502 643 l 1,4,-1
 288 0 l 1,5,-1
 245 0 l 1,6,-1
 8 699 l 1,7,-1
 55 699 l 1,8,-1
 268 48 l 1,9,-1
 481 699 l 1,10,-1
 524 699 l 1,11,-1
 738 48 l 1,12,-1
 950 699 l 1,0,-1
EndSplineSet
EndChar

StartChar: X
Encoding: 88 88 60
Width: 638
Flags: W
LayerCount: 2
Fore
SplineSet
48 699 m 1,0,-1
 97 699 l 1,1,-1
 314 398 l 1,2,-1
 532 699 l 1,3,-1
 581 699 l 1,4,-1
 340 363 l 1,5,-1
 600 0 l 1,6,-1
 550 0 l 1,7,-1
 314 326 l 1,8,-1
 78 0 l 1,9,-1
 29 0 l 1,10,-1
 289 361 l 1,11,-1
 48 699 l 1,0,-1
EndSplineSet
EndChar

StartChar: Y
Encoding: 89 89 61
Width: 613
Flags: W
LayerCount: 2
Fore
SplineSet
605 699 m 1,0,-1
 329 256 l 1,1,-1
 329 0 l 1,2,-1
 288 0 l 1,3,-1
 288 254 l 1,4,-1
 8 699 l 1,5,-1
 53 699 l 1,6,-1
 308 306 l 1,7,-1
 560 699 l 1,8,-1
 605 699 l 1,0,-1
EndSplineSet
EndChar

StartChar: Z
Encoding: 90 90 62
Width: 654
Flags: W
LayerCount: 2
Fore
SplineSet
63 699 m 1,0,-1
 601 699 l 1,1,-1
 601 659 l 1,2,-1
 100 41 l 1,3,-1
 605 41 l 1,4,-1
 605 0 l 1,5,-1
 49 0 l 1,6,-1
 49 40 l 1,7,-1
 550 658 l 1,8,-1
 62 658 l 1,9,-1
 63 699 l 1,0,-1
EndSplineSet
EndChar

StartChar: bracketleft
Encoding: 91 91 63
Width: 294
Flags: W
LayerCount: 2
Fore
SplineSet
102 742 m 1,0,-1
 269 742 l 1,1,-1
 269 704 l 1,2,-1
 141 704 l 1,3,-1
 141 -86 l 1,4,-1
 269 -86 l 1,5,-1
 269 -124 l 1,6,-1
 102 -124 l 1,7,-1
 102 742 l 1,0,-1
EndSplineSet
Substitution2: "'rtla' Right to Left Alternates in Latin lookup 0 subtable" bracketright
EndChar

StartChar: backslash
Encoding: 92 92 64
Width: 302
Flags: W
LayerCount: 2
Fore
SplineSet
-5 824 m 1,0,-1
 304 -127 l 1,1,-1
 265 -127 l 1,2,-1
 -43 824 l 1,3,-1
 -5 824 l 1,0,-1
EndSplineSet
EndChar

StartChar: bracketright
Encoding: 93 93 65
Width: 294
Flags: W
LayerCount: 2
Fore
SplineSet
192 742 m 1,0,-1
 192 -124 l 1,1,-1
 25 -124 l 1,2,-1
 25 -86 l 1,3,-1
 153 -86 l 1,4,-1
 153 704 l 1,5,-1
 25 704 l 1,6,-1
 25 742 l 1,7,-1
 192 742 l 1,0,-1
EndSplineSet
Substitution2: "'rtla' Right to Left Alternates in Latin lookup 0 subtable" bracketleft
EndChar

StartChar: asciicircum
Encoding: 94 94 66
Width: 491
Flags: W
LayerCount: 2
Fore
SplineSet
454 129 m 1,0,-1
 415 129 l 1,1,-1
 245 496 l 1,2,-1
 76 129 l 1,3,-1
 37 129 l 1,4,-1
 223 528 l 1,5,-1
 268 528 l 1,6,-1
 454 129 l 1,0,-1
EndSplineSet
EndChar

StartChar: underscore
Encoding: 95 95 67
Width: 543
Flags: W
LayerCount: 2
Fore
SplineSet
0 -172 m 1,0,-1
 543 -172 l 1,1,-1
 543 -204 l 1,2,-1
 0 -204 l 1,3,-1
 0 -172 l 1,0,-1
EndSplineSet
EndChar

StartChar: a
Encoding: 97 97 69
Width: 567
Flags: W
LayerCount: 2
Fore
SplineSet
439 0 m 1,0,-1
 438 103 l 1,1,2
 406 50 406 50 352.5 24.5 c 128,-1,3
 299 -1 299 -1 230 -1 c 0,4,5
 179 -1 179 -1 140 19 c 128,-1,6
 101 39 101 39 79.5 73.5 c 128,-1,7
 58 108 58 108 58 152 c 0,8,9
 58 217 58 217 110 254.5 c 128,-1,10
 162 292 162 292 252 292 c 2,11,-1
 437 292 l 1,12,-1
 437 343 l 2,13,14
 436 410 436 410 397 447 c 128,-1,15
 358 484 358 484 281 484 c 0,16,17
 234 484 234 484 192 466.5 c 128,-1,18
 150 449 150 449 106 416 c 1,19,-1
 86 448 l 1,20,21
 137 485 137 485 184 503.5 c 128,-1,22
 231 522 231 522 287 522 c 0,23,24
 378 522 378 522 427.5 475 c 128,-1,25
 477 428 477 428 478 346 c 2,26,-1
 480 0 l 1,27,-1
 439 0 l 1,0,-1
363 70 m 128,-1,29
 415 103 415 103 438 170 c 1,30,-1
 438 255 l 1,31,-1
 256 255 l 2,32,33
 179 255 179 255 138.5 229 c 128,-1,34
 98 203 98 203 98 153 c 0,35,36
 98 101 98 101 135.5 69 c 128,-1,37
 173 37 173 37 236 37 c 0,38,28
 311 37 311 37 363 70 c 128,-1,29
EndSplineSet
Substitution2: "<3,3> Small Caps in Latin lookup 11 subtable" a.sc
Substitution2: "<11,2> Diagonal Fractions lookup 7 nested-substitutions 0 subtable" ordfeminine
Substitution2: "<11,2> Diagonal Fractions lookup 5 nested-substitutions 0 subtable" ordfeminine
EndChar

StartChar: b
Encoding: 98 98 70
Width: 671
Flags: W
LayerCount: 2
Fore
SplineSet
501.5 488.5 m 128,-1,1
 559 455 559 455 591 395.5 c 128,-1,2
 623 336 623 336 623 260 c 0,3,4
 623 185 623 185 591 125.5 c 128,-1,5
 559 66 559 66 502 32.5 c 128,-1,6
 445 -1 445 -1 372 -1 c 0,7,8
 296 -1 296 -1 238.5 35.5 c 128,-1,9
 181 72 181 72 151 136 c 1,10,-1
 151 0 l 1,11,-1
 109 0 l 1,12,-1
 109 742 l 1,13,-1
 151 742 l 1,14,-1
 151 384 l 1,15,16
 181 449 181 449 238.5 485.5 c 128,-1,17
 296 522 296 522 372 522 c 0,18,0
 444 522 444 522 501.5 488.5 c 128,-1,1
477.5 66.5 m 128,-1,20
 527 95 527 95 554.5 145.5 c 128,-1,21
 582 196 582 196 582 260 c 256,22,23
 582 324 582 324 554.5 374.5 c 128,-1,24
 527 425 527 425 477.5 454 c 128,-1,25
 428 483 428 483 366 483 c 256,26,27
 304 483 304 483 255 454 c 128,-1,28
 206 425 206 425 178.5 374.5 c 128,-1,29
 151 324 151 324 151 260 c 256,30,31
 151 196 151 196 178.5 145.5 c 128,-1,32
 206 95 206 95 255 66.5 c 128,-1,33
 304 38 304 38 366 38 c 256,34,19
 428 38 428 38 477.5 66.5 c 128,-1,20
EndSplineSet
Substitution2: "<3,3> Small Caps in Latin lookup 11 subtable" b.sc
EndChar

StartChar: c
Encoding: 99 99 71
Width: 559
Flags: W
LayerCount: 2
Fore
SplineSet
304 482 m 0,1,2
 242 482 242 482 193 454 c 128,-1,3
 144 426 144 426 116.5 375.5 c 128,-1,4
 89 325 89 325 89 261 c 0,5,6
 89 196 89 196 116.5 145 c 128,-1,7
 144 94 144 94 193 66 c 128,-1,8
 242 38 242 38 304 38 c 0,9,10
 356 38 356 38 400 57 c 128,-1,11
 444 76 444 76 474 111 c 1,12,-1
 499 84 l 1,13,14
 464 43 464 43 413.5 21 c 128,-1,15
 363 -1 363 -1 303 -1 c 0,16,17
 230 -1 230 -1 172 32.5 c 128,-1,18
 114 66 114 66 81 125.5 c 128,-1,19
 48 185 48 185 48 260 c 256,20,21
 48 335 48 335 81 395 c 128,-1,22
 114 455 114 455 172 488.5 c 128,-1,23
 230 522 230 522 303 522 c 0,24,25
 359 522 359 522 406.5 503 c 128,-1,26
 454 484 454 484 489 449 c 1,27,-1
 465 419 l 1,28,0
 397 482 397 482 304 482 c 0,1,2
EndSplineSet
Substitution2: "<3,3> Small Caps in Latin lookup 11 subtable" c.sc
EndChar

StartChar: d
Encoding: 100 100 72
Width: 675
Flags: W
LayerCount: 2
Fore
SplineSet
566 742 m 1,0,-1
 566 0 l 1,1,-1
 524 0 l 1,2,-1
 524 136 l 1,3,4
 494 71 494 71 436 34 c 128,-1,5
 378 -3 378 -3 302 -3 c 0,6,7
 229 -3 229 -3 171 31 c 128,-1,8
 113 65 113 65 80.5 124.5 c 128,-1,9
 48 184 48 184 48 260 c 256,10,11
 48 336 48 336 80.5 396 c 128,-1,12
 113 456 113 456 170.5 490 c 128,-1,13
 228 524 228 524 301 524 c 0,14,15
 378 524 378 524 436 487 c 128,-1,16
 494 450 494 450 524 385 c 1,17,-1
 524 742 l 1,18,-1
 566 742 l 1,0,-1
418.5 65 m 128,-1,20
 468 94 468 94 496 145 c 128,-1,21
 524 196 524 196 524 260 c 256,22,23
 524 324 524 324 496 375 c 128,-1,24
 468 426 468 426 418.5 455 c 128,-1,25
 369 484 369 484 307 484 c 256,26,27
 245 484 245 484 195.5 455 c 128,-1,28
 146 426 146 426 117.5 375 c 128,-1,29
 89 324 89 324 89 260 c 256,30,31
 89 196 89 196 117 145 c 128,-1,32
 145 94 145 94 194.5 65 c 128,-1,33
 244 36 244 36 307 36 c 0,34,19
 369 36 369 36 418.5 65 c 128,-1,20
EndSplineSet
Substitution2: "<3,3> Small Caps in Latin lookup 11 subtable" d.sc
EndChar

StartChar: e
Encoding: 101 101 73
Width: 589
Flags: W
LayerCount: 2
Fore
SplineSet
432.5 487.5 m 128,-1,1
 488 453 488 453 516.5 391 c 128,-1,2
 545 329 545 329 544 249 c 1,3,-1
 89 249 l 1,4,5
 92 186 92 186 120 138 c 128,-1,6
 148 90 148 90 196 63.5 c 128,-1,7
 244 37 244 37 304 37 c 0,8,9
 357 37 357 37 402.5 55.5 c 128,-1,10
 448 74 448 74 480 109 c 1,11,-1
 504 82 l 1,12,13
 467 42 467 42 415 20.5 c 128,-1,14
 363 -1 363 -1 302 -1 c 0,15,16
 229 -1 229 -1 171 32.5 c 128,-1,17
 113 66 113 66 80.5 125.5 c 128,-1,18
 48 185 48 185 48 260 c 256,19,20
 48 335 48 335 81 395 c 128,-1,21
 114 455 114 455 171.5 488.5 c 128,-1,22
 229 522 229 522 302 522 c 0,23,0
 377 522 377 522 432.5 487.5 c 128,-1,1
506 286 m 1,24,25
 500 376 500 376 445 430 c 128,-1,26
 390 484 390 484 302 484 c 256,27,28
 214 484 214 484 156 429.5 c 128,-1,29
 98 375 98 375 90 286 c 1,30,-1
 506 286 l 1,24,25
EndSplineSet
Substitution2: "<3,3> Small Caps in Latin lookup 11 subtable" e.sc
EndChar

StartChar: f
Encoding: 102 102 74
Width: 308
Flags: W
LayerCount: 2
Fore
SplineSet
188.5 676.5 m 128,-1,1
 156 642 156 642 156 587 c 2,2,-1
 156 508 l 1,3,-1
 317 508 l 1,4,-1
 317 472 l 1,5,-1
 156 472 l 1,6,-1
 156 0 l 1,7,-1
 115 0 l 1,8,-1
 115 472 l 1,9,-1
 49 472 l 1,10,-1
 49 508 l 1,11,-1
 115 508 l 1,12,-1
 115 583 l 2,13,14
 115 632 115 632 135.5 670 c 128,-1,15
 156 708 156 708 190.5 729.5 c 128,-1,16
 225 751 225 751 265 751 c 0,17,18
 312 751 312 751 354 727 c 1,19,-1
 341 691 l 1,20,21
 301 711 301 711 270 711 c 0,22,0
 221 711 221 711 188.5 676.5 c 128,-1,1
EndSplineSet
Substitution2: "<3,3> Small Caps in Latin lookup 11 subtable" f.sc
EndChar

StartChar: g
Encoding: 103 103 75
Width: 632
Flags: W
LayerCount: 2
Fore
SplineSet
542 521 m 1,0,-1
 542 57 l 2,1,2
 542 -19 542 -19 511 -76 c 128,-1,3
 480 -133 480 -133 423 -164 c 128,-1,4
 366 -195 366 -195 290 -195 c 0,5,6
 229 -195 229 -195 177.5 -173.5 c 128,-1,7
 126 -152 126 -152 79 -110 c 1,8,-1
 101 -79 l 1,9,10
 143 -117 143 -117 188.5 -136.5 c 128,-1,11
 234 -156 234 -156 289 -156 c 0,12,13
 386 -156 386 -156 444 -98.5 c 128,-1,14
 502 -41 502 -41 502 56 c 2,15,-1
 502 155 l 1,16,17
 475 92 475 92 419 56.5 c 128,-1,18
 363 21 363 21 289 21 c 0,19,20
 220 21 220 21 165 53 c 128,-1,21
 110 85 110 85 79 142 c 128,-1,22
 48 199 48 199 48 271 c 256,23,24
 48 343 48 343 79 400 c 128,-1,25
 110 457 110 457 164.5 489.5 c 128,-1,26
 219 522 219 522 288 522 c 0,27,28
 362 522 362 522 418 486 c 128,-1,29
 474 450 474 450 502 387 c 1,30,-1
 502 521 l 1,31,-1
 542 521 l 1,0,-1
400.5 84.5 m 128,-1,33
 448 112 448 112 475 160.5 c 128,-1,34
 502 209 502 209 502 270 c 256,35,36
 502 331 502 331 475 380 c 128,-1,37
 448 429 448 429 400.5 456.5 c 128,-1,38
 353 484 353 484 294 484 c 256,39,40
 235 484 235 484 187.5 456.5 c 128,-1,41
 140 429 140 429 113.5 380 c 128,-1,42
 87 331 87 331 87 270 c 256,43,44
 87 209 87 209 113.5 160.5 c 128,-1,45
 140 112 140 112 187 84.5 c 128,-1,46
 234 57 234 57 294 57 c 0,47,32
 353 57 353 57 400.5 84.5 c 128,-1,33
EndSplineSet
Substitution2: "<3,3> Small Caps in Latin lookup 11 subtable" g.sc
EndChar

StartChar: h
Encoding: 104 104 76
Width: 654
Flags: W
LayerCount: 2
Fore
SplineSet
513.5 467.5 m 128,-1,1
 567 413 567 413 567 318 c 2,2,-1
 567 0 l 1,3,-1
 525 0 l 1,4,-1
 525 310 l 2,5,6
 525 390 525 390 480 435 c 128,-1,7
 435 480 435 480 355 480 c 0,8,9
 259 478 259 478 205 418 c 128,-1,10
 151 358 151 358 151 255 c 2,11,-1
 151 0 l 1,12,-1
 109 0 l 1,13,-1
 109 742 l 1,14,-1
 151 742 l 1,15,-1
 151 385 l 1,16,17
 177 451 177 451 231.5 485.5 c 128,-1,18
 286 520 286 520 365 522 c 0,19,0
 460 522 460 522 513.5 467.5 c 128,-1,1
EndSplineSet
Substitution2: "<3,3> Small Caps in Latin lookup 11 subtable" h.sc
EndChar

StartChar: k
Encoding: 107 107 79
Width: 551
Flags: W
LayerCount: 2
Fore
SplineSet
488 0 m 1,0,-1
 283 289 l 1,1,-1
 151 153 l 1,2,-1
 151 0 l 1,3,-1
 109 0 l 1,4,-1
 109 742 l 1,5,-1
 151 742 l 1,6,-1
 151 213 l 1,7,-1
 459 521 l 1,8,-1
 510 521 l 1,9,-1
 313 319 l 1,10,-1
 536 0 l 1,11,-1
 488 0 l 1,0,-1
EndSplineSet
Substitution2: "<3,3> Small Caps in Latin lookup 11 subtable" k.sc
EndChar

StartChar: l
Encoding: 108 108 80
Width: 260
Flags: W
LayerCount: 2
Fore
SplineSet
109 742 m 1,0,-1
 151 742 l 1,1,-1
 151 0 l 1,2,-1
 109 0 l 1,3,-1
 109 742 l 1,0,-1
EndSplineSet
Substitution2: "<3,3> Small Caps in Latin lookup 11 subtable" l.sc
EndChar

StartChar: m
Encoding: 109 109 81
Width: 1045
Flags: W
LayerCount: 2
Fore
SplineSet
905.5 468 m 128,-1,1
 958 414 958 414 958 318 c 2,2,-1
 958 0 l 1,3,-1
 917 0 l 1,4,-1
 917 310 l 2,5,6
 917 390 917 390 873 435 c 128,-1,7
 829 480 829 480 750 480 c 0,8,9
 657 478 657 478 604.5 418 c 128,-1,10
 552 358 552 358 552 255 c 2,11,-1
 552 0 l 1,12,-1
 511 0 l 1,13,-1
 511 310 l 2,14,15
 511 390 511 390 466.5 435 c 128,-1,16
 422 480 422 480 344 480 c 0,17,18
 251 478 251 478 198 417.5 c 128,-1,19
 145 357 145 357 145 255 c 2,20,-1
 145 0 l 1,21,-1
 104 0 l 1,22,-1
 104 521 l 1,23,-1
 145 521 l 1,24,-1
 145 384 l 1,25,26
 170 451 170 451 223.5 485.5 c 128,-1,27
 277 520 277 520 355 522 c 0,28,29
 433 522 433 522 483 482.5 c 128,-1,30
 533 443 533 443 547 371 c 1,31,32
 571 444 571 444 625.5 482 c 128,-1,33
 680 520 680 520 760 522 c 0,34,0
 853 522 853 522 905.5 468 c 128,-1,1
EndSplineSet
Substitution2: "<3,3> Small Caps in Latin lookup 11 subtable" m.sc
EndChar

StartChar: n
Encoding: 110 110 82
Width: 648
Flags: W
LayerCount: 2
Fore
SplineSet
507.5 467.5 m 128,-1,1
 561 413 561 413 561 318 c 2,2,-1
 561 0 l 1,3,-1
 519 0 l 1,4,-1
 519 310 l 2,5,6
 519 390 519 390 474 435 c 128,-1,7
 429 480 429 480 349 480 c 0,8,9
 260 478 260 478 206.5 425.5 c 128,-1,10
 153 373 153 373 146 282 c 1,11,-1
 146 0 l 1,12,-1
 104 0 l 1,13,-1
 104 521 l 1,14,-1
 146 521 l 1,15,-1
 146 388 l 1,16,17
 172 452 172 452 226.5 486 c 128,-1,18
 281 520 281 520 359 522 c 0,19,0
 454 522 454 522 507.5 467.5 c 128,-1,1
EndSplineSet
Substitution2: "<3,3> Small Caps in Latin lookup 11 subtable" n.sc
EndChar

StartChar: o
Encoding: 111 111 83
Width: 610
Flags: W
LayerCount: 2
Fore
SplineSet
437.5 488.5 m 128,-1,1
 496 455 496 455 529 395.5 c 128,-1,2
 562 336 562 336 562 261 c 0,3,4
 562 185 562 185 529 125.5 c 128,-1,5
 496 66 496 66 437.5 32.5 c 128,-1,6
 379 -1 379 -1 305 -1 c 0,7,8
 232 -1 232 -1 173.5 32.5 c 128,-1,9
 115 66 115 66 81.5 125.5 c 128,-1,10
 48 185 48 185 48 261 c 0,11,12
 48 336 48 336 81.5 395.5 c 128,-1,13
 115 455 115 455 173.5 488.5 c 128,-1,14
 232 522 232 522 305 522 c 0,15,0
 379 522 379 522 437.5 488.5 c 128,-1,1
194 454 m 128,-1,17
 145 426 145 426 117 375.5 c 128,-1,18
 89 325 89 325 89 261 c 0,19,20
 89 196 89 196 117 145 c 128,-1,21
 145 94 145 94 194 66 c 128,-1,22
 243 38 243 38 305 38 c 256,23,24
 367 38 367 38 416.5 66 c 128,-1,25
 466 94 466 94 493.5 145 c 128,-1,26
 521 196 521 196 521 261 c 0,27,28
 521 325 521 325 493.5 375.5 c 128,-1,29
 466 426 466 426 416.5 454 c 128,-1,30
 367 482 367 482 305 482 c 256,31,16
 243 482 243 482 194 454 c 128,-1,17
EndSplineSet
Substitution2: "<3,3> Small Caps in Latin lookup 11 subtable" o.sc
Substitution2: "<11,2> Diagonal Fractions lookup 7 nested-substitutions 0 subtable" ordmasculine
Substitution2: "<11,2> Diagonal Fractions lookup 5 nested-substitutions 0 subtable" ordmasculine
EndChar

StartChar: p
Encoding: 112 112 84
Width: 671
Flags: W
LayerCount: 2
Fore
SplineSet
501.5 488.5 m 128,-1,1
 559 455 559 455 591 395.5 c 128,-1,2
 623 336 623 336 623 260 c 0,3,4
 623 185 623 185 591 125.5 c 128,-1,5
 559 66 559 66 502 32.5 c 128,-1,6
 445 -1 445 -1 372 -1 c 0,7,8
 296 -1 296 -1 238.5 35.5 c 128,-1,9
 181 72 181 72 151 136 c 1,10,-1
 151 -194 l 1,11,-1
 109 -194 l 1,12,-1
 109 521 l 1,13,-1
 151 521 l 1,14,-1
 151 384 l 1,15,16
 181 449 181 449 238.5 485.5 c 128,-1,17
 296 522 296 522 372 522 c 0,18,0
 444 522 444 522 501.5 488.5 c 128,-1,1
477.5 66.5 m 128,-1,20
 527 95 527 95 554.5 145.5 c 128,-1,21
 582 196 582 196 582 260 c 256,22,23
 582 324 582 324 554.5 374.5 c 128,-1,24
 527 425 527 425 477.5 454 c 128,-1,25
 428 483 428 483 366 483 c 256,26,27
 304 483 304 483 255 454 c 128,-1,28
 206 425 206 425 178.5 374.5 c 128,-1,29
 151 324 151 324 151 260 c 256,30,31
 151 196 151 196 178.5 145.5 c 128,-1,32
 206 95 206 95 255 66.5 c 128,-1,33
 304 38 304 38 366 38 c 256,34,19
 428 38 428 38 477.5 66.5 c 128,-1,20
EndSplineSet
Substitution2: "<3,3> Small Caps in Latin lookup 11 subtable" p.sc
EndChar

StartChar: q
Encoding: 113 113 85
Width: 675
Flags: W
LayerCount: 2
Fore
SplineSet
566 521 m 1,0,-1
 566 -194 l 1,1,-1
 524 -194 l 1,2,-1
 524 136 l 1,3,4
 494 71 494 71 436 34 c 128,-1,5
 378 -3 378 -3 302 -3 c 0,6,7
 229 -3 229 -3 171 31 c 128,-1,8
 113 65 113 65 80.5 124.5 c 128,-1,9
 48 184 48 184 48 260 c 256,10,11
 48 336 48 336 80.5 396 c 128,-1,12
 113 456 113 456 170.5 490 c 128,-1,13
 228 524 228 524 301 524 c 0,14,15
 378 524 378 524 436 487 c 128,-1,16
 494 450 494 450 524 385 c 1,17,-1
 524 521 l 1,18,-1
 566 521 l 1,0,-1
418.5 65 m 128,-1,20
 468 94 468 94 496 145 c 128,-1,21
 524 196 524 196 524 260 c 256,22,23
 524 324 524 324 496 375 c 128,-1,24
 468 426 468 426 418.5 455 c 128,-1,25
 369 484 369 484 307 484 c 256,26,27
 245 484 245 484 195.5 455 c 128,-1,28
 146 426 146 426 117.5 375 c 128,-1,29
 89 324 89 324 89 260 c 256,30,31
 89 196 89 196 117 145 c 128,-1,32
 145 94 145 94 194.5 65 c 128,-1,33
 244 36 244 36 307 36 c 0,34,19
 369 36 369 36 418.5 65 c 128,-1,20
EndSplineSet
Substitution2: "<3,3> Small Caps in Latin lookup 11 subtable" q.sc
EndChar

StartChar: r
Encoding: 114 114 86
Width: 350
Flags: W
LayerCount: 2
Fore
SplineSet
220.5 486.5 m 128,-1,1
 270 520 270 520 340 522 c 1,2,-1
 340 479 l 1,3,4
 255 479 255 479 204 426.5 c 128,-1,5
 153 374 153 374 146 282 c 1,6,-1
 146 0 l 1,7,-1
 104 0 l 1,8,-1
 104 521 l 1,9,-1
 146 521 l 1,10,-1
 146 390 l 1,11,0
 171 453 171 453 220.5 486.5 c 128,-1,1
EndSplineSet
Substitution2: "<3,3> Small Caps in Latin lookup 11 subtable" r.sc
EndChar

StartChar: s
Encoding: 115 115 87
Width: 437
Flags: W
LayerCount: 2
Fore
SplineSet
226 484 m 0,1,2
 168 484 168 484 132 461.5 c 128,-1,3
 96 439 96 439 96 394 c 0,4,5
 96 364 96 364 114 344 c 128,-1,6
 132 324 132 324 159 313 c 128,-1,7
 186 302 186 302 232 288 c 0,8,9
 287 271 287 271 320 256 c 128,-1,10
 353 241 353 241 376.5 213 c 128,-1,11
 400 185 400 185 400 139 c 0,12,13
 400 70 400 70 348 34.5 c 128,-1,14
 296 -1 296 -1 219 -1 c 0,15,16
 164 -1 164 -1 114 18 c 128,-1,17
 64 37 64 37 28 71 c 1,18,-1
 47 103 l 1,19,20
 81 71 81 71 126.5 54 c 128,-1,21
 172 37 172 37 221 37 c 0,22,23
 281 37 281 37 320.5 62 c 128,-1,24
 360 87 360 87 360 135 c 0,25,26
 360 167 360 167 341.5 187.5 c 128,-1,27
 323 208 323 208 295 220 c 128,-1,28
 267 232 267 232 220 246 c 0,29,30
 166 263 166 263 134 277.5 c 128,-1,31
 102 292 102 292 79 319.5 c 128,-1,32
 56 347 56 347 56 391 c 0,33,34
 56 456 56 456 104.5 489 c 128,-1,35
 153 522 153 522 227 522 c 0,36,37
 309 522 309 522 376 481 c 1,38,-1
 358 447 l 1,39,0
 300 484 300 484 226 484 c 0,1,2
EndSplineSet
Substitution2: "<3,3> Small Caps in Latin lookup 11 subtable" s.sc
EndChar

StartChar: t
Encoding: 116 116 88
Width: 372
Flags: W
LayerCount: 2
Fore
SplineSet
349 36 m 1,0,1
 294 -1 294 -1 238 -1 c 256,2,3
 182 -1 182 -1 152 35.5 c 128,-1,4
 122 72 122 72 122 144 c 2,5,-1
 122 472 l 1,6,-1
 46 472 l 1,7,-1
 46 508 l 1,8,-1
 122 508 l 1,9,-1
 122 637 l 1,10,-1
 162 637 l 1,11,-1
 162 508 l 1,12,-1
 339 508 l 1,13,-1
 339 472 l 1,14,-1
 162 472 l 1,15,-1
 162 149 l 2,16,17
 162 40 162 40 243 40 c 0,18,19
 289 40 289 40 333 70 c 1,20,-1
 349 36 l 1,0,1
EndSplineSet
Substitution2: "<3,3> Small Caps in Latin lookup 11 subtable" t.sc
EndChar

StartChar: u
Encoding: 117 117 89
Width: 641
Flags: W
LayerCount: 2
Fore
SplineSet
536 521 m 1,0,-1
 536 0 l 1,1,-1
 495 0 l 1,2,-1
 495 139 l 1,3,4
 470 71 470 71 416.5 35.5 c 128,-1,5
 363 0 363 0 286 -1 c 0,6,7
 192 -1 192 -1 139.5 53 c 128,-1,8
 87 107 87 107 87 203 c 2,9,-1
 87 521 l 1,10,-1
 128 521 l 1,11,-1
 128 211 l 2,12,13
 128 131 128 131 172 86 c 128,-1,14
 216 41 216 41 295 41 c 0,15,16
 389 43 389 43 442 103 c 128,-1,17
 495 163 495 163 495 266 c 2,18,-1
 495 521 l 1,19,-1
 536 521 l 1,0,-1
EndSplineSet
Substitution2: "<3,3> Small Caps in Latin lookup 11 subtable" u.sc
EndChar

StartChar: v
Encoding: 118 118 90
Width: 471
Flags: W
LayerCount: 2
Fore
SplineSet
8 521 m 1,0,-1
 53 521 l 1,1,-1
 241 45 l 1,2,-1
 428 521 l 1,3,-1
 472 521 l 1,4,-1
 262 0 l 1,5,-1
 219 0 l 1,6,-1
 8 521 l 1,0,-1
EndSplineSet
Substitution2: "<3,3> Small Caps in Latin lookup 11 subtable" v.sc
EndChar

StartChar: w
Encoding: 119 119 91
Width: 835
Flags: W
LayerCount: 2
Fore
SplineSet
8 521 m 1,0,-1
 53 521 l 1,1,-1
 227 45 l 1,2,-1
 400 521 l 1,3,-1
 445 521 l 1,4,-1
 619 45 l 1,5,-1
 792 521 l 1,6,-1
 836 521 l 1,7,-1
 639 0 l 1,8,-1
 596 0 l 1,9,-1
 423 466 l 1,10,-1
 248 0 l 1,11,-1
 205 0 l 1,12,-1
 8 521 l 1,0,-1
EndSplineSet
Substitution2: "<3,3> Small Caps in Latin lookup 11 subtable" w.sc
EndChar

StartChar: x
Encoding: 120 120 92
Width: 503
Flags: W
LayerCount: 2
Fore
SplineSet
42 521 m 1,0,-1
 90 521 l 1,1,-1
 251 300 l 1,2,-1
 412 521 l 1,3,-1
 459 521 l 1,4,-1
 277 269 l 1,5,-1
 472 0 l 1,6,-1
 424 0 l 1,7,-1
 250 237 l 1,8,-1
 75 0 l 1,9,-1
 27 0 l 1,10,-1
 224 269 l 1,11,-1
 42 521 l 1,0,-1
EndSplineSet
Substitution2: "<3,3> Small Caps in Latin lookup 11 subtable" x.sc
EndChar

StartChar: y
Encoding: 121 121 93
Width: 473
Flags: W
LayerCount: 2
Fore
SplineSet
171 -164 m 128,-1,1
 134 -195 134 -195 88 -195 c 0,2,3
 29 -195 29 -195 -11 -165 c 1,4,-1
 7 -129 l 1,5,6
 42 -153 42 -153 86 -153 c 0,7,8
 121 -153 121 -153 150 -129 c 128,-1,9
 179 -105 179 -105 198 -59 c 2,10,-1
 222 0 l 1,11,-1
 7 521 l 1,12,-1
 51 521 l 1,13,-1
 243 49 l 1,14,-1
 430 521 l 1,15,-1
 474 521 l 1,16,-1
 232 -75 l 2,17,0
 208 -133 208 -133 171 -164 c 128,-1,1
EndSplineSet
Substitution2: "<3,3> Small Caps in Latin lookup 11 subtable" y.sc
EndChar

StartChar: z
Encoding: 122 122 94
Width: 516
Flags: W
LayerCount: 2
Fore
SplineSet
67 521 m 1,0,-1
 461 520 l 1,1,-1
 461 482 l 1,2,-1
 105 38 l 1,3,-1
 468 37 l 1,4,-1
 468 -1 l 1,5,-1
 58 0 l 1,6,-1
 58 38 l 1,7,-1
 414 482 l 1,8,-1
 67 482 l 1,9,-1
 67 521 l 1,0,-1
EndSplineSet
Substitution2: "<3,3> Small Caps in Latin lookup 11 subtable" z.sc
EndChar

StartChar: braceleft
Encoding: 123 123 95
Width: 323
Flags: W
LayerCount: 2
Fore
SplineSet
168.5 340.5 m 128,-1,1
 157 322 157 322 130 308 c 1,2,3
 157 294 157 294 168.5 275.5 c 128,-1,4
 180 257 180 257 180 220 c 2,5,-1
 180 -9 l 2,6,7
 180 -50 180 -50 205 -69 c 128,-1,8
 230 -88 230 -88 285 -88 c 1,9,-1
 285 -126 l 1,10,-1
 272 -126 l 2,11,12
 204 -126 204 -126 173 -100 c 128,-1,13
 142 -74 142 -74 142 -18 c 2,14,-1
 142 221 l 2,15,16
 142 256 142 256 129 272.5 c 128,-1,17
 116 289 116 289 89 289 c 2,18,-1
 68 289 l 1,19,-1
 68 327 l 1,20,-1
 89 327 l 2,21,22
 116 327 116 327 129 343.5 c 128,-1,23
 142 360 142 360 142 395 c 2,24,-1
 142 634 l 2,25,26
 142 690 142 690 173 716 c 128,-1,27
 204 742 204 742 272 742 c 2,28,-1
 285 742 l 1,29,-1
 285 704 l 1,30,31
 230 704 230 704 205 685 c 128,-1,32
 180 666 180 666 180 625 c 2,33,-1
 180 396 l 2,34,0
 180 359 180 359 168.5 340.5 c 128,-1,1
EndSplineSet
Substitution2: "'rtla' Right to Left Alternates in Latin lookup 0 subtable" braceright
EndChar

StartChar: bar
Encoding: 124 124 96
Width: 231
Flags: W
LayerCount: 2
Fore
SplineSet
98 821 m 1,0,-1
 133 821 l 1,1,-1
 133 -126 l 1,2,-1
 98 -126 l 1,3,-1
 98 821 l 1,0,-1
EndSplineSet
EndChar

StartChar: braceright
Encoding: 125 125 97
Width: 323
Flags: W
LayerCount: 2
Fore
SplineSet
255 327 m 1,0,-1
 255 289 l 1,1,-1
 234 289 l 2,2,3
 207 289 207 289 194 272.5 c 128,-1,4
 181 256 181 256 181 221 c 2,5,-1
 181 -18 l 2,6,7
 181 -74 181 -74 150 -100 c 128,-1,8
 119 -126 119 -126 51 -126 c 2,9,-1
 38 -126 l 1,10,-1
 38 -88 l 1,11,12
 93 -88 93 -88 118 -69 c 128,-1,13
 143 -50 143 -50 143 -9 c 2,14,-1
 143 220 l 2,15,16
 143 257 143 257 154.5 275.5 c 128,-1,17
 166 294 166 294 193 308 c 1,18,19
 166 322 166 322 154.5 340.5 c 128,-1,20
 143 359 143 359 143 396 c 2,21,-1
 143 625 l 2,22,23
 143 666 143 666 118 685 c 128,-1,24
 93 704 93 704 38 704 c 1,25,-1
 38 742 l 1,26,-1
 51 742 l 2,27,28
 119 742 119 742 150 716 c 128,-1,29
 181 690 181 690 181 634 c 2,30,-1
 181 395 l 2,31,32
 181 360 181 360 194 343.5 c 128,-1,33
 207 327 207 327 234 327 c 2,34,-1
 255 327 l 1,0,-1
EndSplineSet
Substitution2: "'rtla' Right to Left Alternates in Latin lookup 0 subtable" braceleft
EndChar

StartChar: asciitilde
Encoding: 126 126 98
Width: 484
Flags: W
LayerCount: 2
Fore
SplineSet
386 289.5 m 128,-1,1
 366 265 366 265 330 265 c 0,2,3
 306 265 306 265 286 273.5 c 128,-1,4
 266 282 266 282 233 301 c 0,5,6
 210 316 210 316 193 323.5 c 128,-1,7
 176 331 176 331 160 331 c 0,8,9
 138 331 138 331 125.5 316 c 128,-1,10
 113 301 113 301 113 274 c 1,11,-1
 79 274 l 1,12,13
 79 319 79 319 99 344 c 128,-1,14
 119 369 119 369 155 369 c 0,15,16
 176 369 176 369 197.5 359.5 c 128,-1,17
 219 350 219 350 248 333 c 0,18,19
 274 318 274 318 291.5 310 c 128,-1,20
 309 302 309 302 325 302 c 0,21,22
 348 302 348 302 360.5 317 c 128,-1,23
 373 332 373 332 373 359 c 1,24,-1
 406 359 l 1,25,0
 406 314 406 314 386 289.5 c 128,-1,1
EndSplineSet
EndChar

StartChar: exclamdown
Encoding: 161 161 100
Width: 196
Flags: W
LayerCount: 2
Fore
SplineSet
77.5 466 m 128,-1,1
 67 476 67 476 67 491 c 0,2,3
 67 507 67 507 77.5 517.5 c 128,-1,4
 88 528 88 528 102 528 c 256,5,6
 116 528 116 528 126 517.5 c 128,-1,7
 136 507 136 507 136 491 c 0,8,9
 136 476 136 476 126 466 c 128,-1,10
 116 456 116 456 102 456 c 256,11,0
 88 456 88 456 77.5 466 c 128,-1,1
122 -164 m 1,12,-1
 82 -164 l 1,13,-1
 82 0 l 1,14,-1
 86 323 l 1,15,-1
 117 323 l 1,16,-1
 122 0 l 1,17,-1
 122 -164 l 1,12,-1
EndSplineSet
Substitution2: "<3,3> Small Caps in Latin lookup 11 subtable" exclamdown.sc
EndChar

StartChar: cent
Encoding: 162 162 101
Width: 600
Flags: W
LayerCount: 2
Fore
SplineSet
421.5 24.5 m 128,-1,1
 376 3 376 3 322 0 c 1,2,-1
 322 -139 l 1,3,-1
 287 -139 l 1,4,-1
 287 -1 l 1,5,6
 218 3 218 3 163.5 37.5 c 128,-1,7
 109 72 109 72 78.5 130 c 128,-1,8
 48 188 48 188 48 260 c 256,9,10
 48 332 48 332 78.5 390.5 c 128,-1,11
 109 449 109 449 163.5 483.5 c 128,-1,12
 218 518 218 518 287 522 c 1,13,-1
 287 661 l 1,14,-1
 322 661 l 1,15,-1
 322 521 l 1,16,17
 372 518 372 518 414.5 499.5 c 128,-1,18
 457 481 457 481 489 449 c 1,19,-1
 465 419 l 1,20,21
 397 482 397 482 304 482 c 0,22,23
 242 482 242 482 193 454 c 128,-1,24
 144 426 144 426 116.5 375.5 c 128,-1,25
 89 325 89 325 89 261 c 0,26,27
 89 196 89 196 116.5 145 c 128,-1,28
 144 94 144 94 193 66 c 128,-1,29
 242 38 242 38 304 38 c 0,30,31
 356 38 356 38 400 57 c 128,-1,32
 444 76 444 76 474 111 c 1,33,-1
 499 84 l 1,34,0
 467 46 467 46 421.5 24.5 c 128,-1,1
EndSplineSet
EndChar

StartChar: sterling
Encoding: 163 163 102
Width: 535
Flags: W
LayerCount: 2
Fore
SplineSet
182 39 m 1,0,-1
 490 39 l 1,1,-1
 490 0 l 1,2,-1
 49 0 l 1,3,-1
 49 39 l 1,4,-1
 140 39 l 1,5,-1
 140 328 l 1,6,-1
 49 328 l 1,7,-1
 49 359 l 1,8,-1
 140 359 l 1,9,-1
 140 497 l 2,10,11
 140 595 140 595 187 648 c 128,-1,12
 234 701 234 701 321 701 c 0,13,14
 373 701 373 701 419.5 676 c 128,-1,15
 466 651 466 651 501 604 c 1,16,-1
 479 571 l 1,17,18
 448 614 448 614 408.5 636.5 c 128,-1,19
 369 659 369 659 324 659 c 0,20,21
 255 659 255 659 218.5 617.5 c 128,-1,22
 182 576 182 576 182 497 c 2,23,-1
 182 359 l 1,24,-1
 370 359 l 1,25,-1
 370 328 l 1,26,-1
 182 328 l 1,27,-1
 182 39 l 1,0,-1
EndSplineSet
EndChar

StartChar: currency
Encoding: 164 164 103
Width: 723
Flags: W
LayerCount: 2
Fore
SplineSet
622 220 m 128,-1,1
 603 174 603 174 569 137 c 1,2,-1
 674 31 l 1,3,-1
 649 4 l 1,4,-1
 541 112 l 1,5,6
 503 82 503 82 457 65.5 c 128,-1,7
 411 49 411 49 361 49 c 256,8,9
 311 49 311 49 265.5 65.5 c 128,-1,10
 220 82 220 82 183 113 c 1,11,-1
 74 4 l 1,12,-1
 48 31 l 1,13,-1
 155 138 l 1,14,15
 121 175 121 175 102.5 221 c 128,-1,16
 84 267 84 267 84 317 c 0,17,18
 84 368 84 368 102.5 414 c 128,-1,19
 121 460 121 460 155 497 c 1,20,-1
 48 604 l 1,21,-1
 74 631 l 1,22,-1
 182 523 l 1,23,24
 218 554 218 554 264.5 571 c 128,-1,25
 311 588 311 588 361 588 c 0,26,27
 412 588 412 588 458 571.5 c 128,-1,28
 504 555 504 555 541 524 c 1,29,-1
 649 631 l 1,30,-1
 674 604 l 1,31,-1
 569 498 l 1,32,33
 603 461 603 461 622 414.5 c 128,-1,34
 641 368 641 368 641 317 c 256,35,0
 641 266 641 266 622 220 c 128,-1,1
152.5 202.5 m 128,-1,37
 185 150 185 150 240.5 119 c 128,-1,38
 296 88 296 88 361 88 c 0,39,40
 427 88 427 88 483 119 c 128,-1,41
 539 150 539 150 572 202.5 c 128,-1,42
 605 255 605 255 605 317 c 0,43,44
 605 380 605 380 572 433 c 128,-1,45
 539 486 539 486 483 517.5 c 128,-1,46
 427 549 427 549 361 549 c 0,47,48
 296 549 296 549 240.5 517.5 c 128,-1,49
 185 486 185 486 152.5 433 c 128,-1,50
 120 380 120 380 120 317 c 0,51,36
 120 255 120 255 152.5 202.5 c 128,-1,37
EndSplineSet
EndChar

StartChar: yen
Encoding: 165 165 104
Width: 612
Flags: W
LayerCount: 2
Fore
SplineSet
605 699 m 1,0,-1
 346 283 l 1,1,-1
 545 283 l 1,2,-1
 545 252 l 1,3,-1
 329 252 l 1,4,-1
 329 170 l 1,5,-1
 545 170 l 1,6,-1
 545 140 l 1,7,-1
 329 140 l 1,8,-1
 329 0 l 1,9,-1
 287 0 l 1,10,-1
 287 140 l 1,11,-1
 72 140 l 1,12,-1
 72 170 l 1,13,-1
 287 170 l 1,14,-1
 287 252 l 1,15,-1
 72 252 l 1,16,-1
 72 283 l 1,17,-1
 270 283 l 1,18,-1
 8 699 l 1,19,-1
 53 699 l 1,20,-1
 308 306 l 1,21,-1
 559 699 l 1,22,-1
 605 699 l 1,0,-1
EndSplineSet
EndChar

StartChar: brokenbar
Encoding: 166 166 105
Width: 231
Flags: W
LayerCount: 2
Fore
SplineSet
98 821 m 1,0,-1
 133 821 l 1,1,-1
 133 469 l 1,2,-1
 98 469 l 1,3,-1
 98 821 l 1,0,-1
98 225 m 1,4,-1
 133 225 l 1,5,-1
 133 -126 l 1,6,-1
 98 -126 l 1,7,-1
 98 225 l 1,4,-1
EndSplineSet
EndChar

StartChar: section
Encoding: 167 167 106
Width: 446
Flags: W
LayerCount: 2
Fore
SplineSet
234 659 m 0,1,2
 172 659 172 659 135 635 c 128,-1,3
 98 611 98 611 98 568 c 0,4,5
 98 536 98 536 117 515.5 c 128,-1,6
 136 495 136 495 165 482.5 c 128,-1,7
 194 470 194 470 242 456 c 0,8,9
 296 439 296 439 330 424 c 128,-1,10
 364 409 364 409 387 382 c 128,-1,11
 410 355 410 355 410 312 c 0,12,13
 410 260 410 260 373.5 224 c 128,-1,14
 337 188 337 188 291 181 c 1,15,16
 349 161 349 161 376 130 c 128,-1,17
 403 99 403 99 403 55 c 0,18,19
 403 -7 403 -7 352.5 -44 c 128,-1,20
 302 -81 302 -81 222 -81 c 0,21,22
 164 -81 164 -81 113.5 -61.5 c 128,-1,23
 63 -42 63 -42 28 -8 c 1,24,-1
 47 21 l 1,25,26
 82 -11 82 -11 126.5 -28.5 c 128,-1,27
 171 -46 171 -46 220 -46 c 0,28,29
 282 -46 282 -46 324 -18.5 c 128,-1,30
 366 9 366 9 366 55 c 0,31,32
 366 87 366 87 347 107.5 c 128,-1,33
 328 128 328 128 299.5 140.5 c 128,-1,34
 271 153 271 153 223 167 c 0,35,36
 167 185 167 185 134 199.5 c 128,-1,37
 101 214 101 214 78 241.5 c 128,-1,38
 55 269 55 269 55 312 c 0,39,40
 55 365 55 365 92.5 396.5 c 128,-1,41
 130 428 130 428 197 435 c 1,42,43
 125 459 125 459 93 490.5 c 128,-1,44
 61 522 61 522 61 566 c 0,45,46
 61 625 61 625 108.5 659.5 c 128,-1,47
 156 694 156 694 233 694 c 0,48,49
 317 694 317 694 383 652 c 1,50,-1
 366 622 l 1,51,0
 309 659 309 659 234 659 c 0,1,2
129.5 383 m 128,-1,53
 92 359 92 359 92 319 c 0,54,55
 92 290 92 290 113.5 263.5 c 128,-1,56
 135 237 135 237 171 221.5 c 128,-1,57
 207 206 207 206 246 206 c 0,58,59
 300 206 300 206 336 234.5 c 128,-1,60
 372 263 372 263 372 307 c 0,61,62
 372 352 372 352 333.5 379.5 c 128,-1,63
 295 407 295 407 229 407 c 0,64,52
 167 407 167 407 129.5 383 c 128,-1,53
EndSplineSet
EndChar

StartChar: copyright
Encoding: 169 169 108
Width: 770
Flags: W
LayerCount: 2
Fore
SplineSet
555.5 643.5 m 128,-1,1
 633 598 633 598 678 520 c 128,-1,2
 723 442 723 442 723 350 c 0,3,4
 723 259 723 259 678 180.5 c 128,-1,5
 633 102 633 102 555 55.5 c 128,-1,6
 477 9 477 9 383 9 c 0,7,8
 290 9 290 9 212.5 55 c 128,-1,9
 135 101 135 101 90.5 179 c 128,-1,10
 46 257 46 257 46 348 c 256,11,12
 46 439 46 439 91 517.5 c 128,-1,13
 136 596 136 596 213.5 642.5 c 128,-1,14
 291 689 291 689 385 689 c 0,15,0
 478 689 478 689 555.5 643.5 c 128,-1,1
228 617 m 128,-1,17
 157 575 157 575 116 503.5 c 128,-1,18
 75 432 75 432 75 348 c 256,19,20
 75 264 75 264 115.5 193 c 128,-1,21
 156 122 156 122 226.5 80.5 c 128,-1,22
 297 39 297 39 383 39 c 0,23,24
 470 39 470 39 541.5 81 c 128,-1,25
 613 123 613 123 654 194.5 c 128,-1,26
 695 266 695 266 695 350 c 256,27,28
 695 434 695 434 654 505 c 128,-1,29
 613 576 613 576 542 617.5 c 128,-1,30
 471 659 471 659 385 659 c 256,31,16
 299 659 299 659 228 617 c 128,-1,17
449.5 488.5 m 128,-1,33
 421 500 421 500 390 500 c 0,34,35
 347 500 347 500 310.5 479.5 c 128,-1,36
 274 459 274 459 253 424.5 c 128,-1,37
 232 390 232 390 232 349 c 256,38,39
 232 308 232 308 253 273 c 128,-1,40
 274 238 274 238 310.5 217.5 c 128,-1,41
 347 197 347 197 390 197 c 0,42,43
 420 197 420 197 449 208 c 128,-1,44
 478 219 478 219 500 239 c 1,45,-1
 518 220 l 1,46,47
 492 196 492 196 458 182 c 128,-1,48
 424 168 424 168 388 168 c 0,49,50
 338 168 338 168 295.5 192.5 c 128,-1,51
 253 217 253 217 228 258.5 c 128,-1,52
 203 300 203 300 203 349 c 256,53,54
 203 398 203 398 228 439 c 128,-1,55
 253 480 253 480 296 504 c 128,-1,56
 339 528 339 528 390 528 c 0,57,58
 426 528 426 528 459 515 c 128,-1,59
 492 502 492 502 518 478 c 1,60,-1
 500 457 l 1,61,32
 478 477 478 477 449.5 488.5 c 128,-1,33
EndSplineSet
EndChar

StartChar: ordfeminine
Encoding: 170 170 109
Width: 375
Flags: W
LayerCount: 2
Fore
SplineSet
277 458 m 1,0,-1
 277 519 l 1,1,2
 237 457 237 457 150 457 c 0,3,4
 104 457 104 457 75.5 482 c 128,-1,5
 47 507 47 507 47 546 c 256,6,7
 47 585 47 585 78.5 606.5 c 128,-1,8
 110 628 110 628 166 628 c 2,9,-1
 276 628 l 1,10,-1
 276 657 l 2,11,12
 275 694 275 694 252 714 c 128,-1,13
 229 734 229 734 184 734 c 0,14,15
 133 734 133 734 75 697 c 1,16,-1
 64 723 l 1,17,18
 128 764 128 764 190 764 c 0,19,20
 246 764 246 764 277.5 736 c 128,-1,21
 309 708 309 708 309 660 c 2,22,-1
 310 458 l 1,23,-1
 277 458 l 1,0,-1
277 554 m 1,25,-1
 276 606 l 1,26,-1
 171 606 l 2,27,28
 127 606 127 606 103.5 591.5 c 128,-1,29
 80 577 80 577 80 549 c 0,30,31
 80 520 80 520 101.5 501.5 c 128,-1,32
 123 483 123 483 159 483 c 0,33,24
 243 483 243 483 277 554 c 1,25,-1
EndSplineSet
EndChar

StartChar: logicalnot
Encoding: 172 172 111
Width: 540
Flags: W
LayerCount: 2
Fore
SplineSet
450 371 m 1,0,-1
 450 156 l 1,1,-1
 416 156 l 1,2,-1
 416 336 l 1,3,-1
 39 336 l 1,4,-1
 39 371 l 1,5,-1
 450 371 l 1,0,-1
EndSplineSet
EndChar

StartChar: uni00AD
Encoding: 173 173 112
Width: 359
Flags: W
LayerCount: 2
Fore
SplineSet
68 318 m 1,0,-1
 291 318 l 1,1,-1
 291 284 l 1,2,-1
 68 284 l 1,3,-1
 68 318 l 1,0,-1
EndSplineSet
EndChar

StartChar: registered
Encoding: 174 174 113
Width: 770
Flags: W
LayerCount: 2
Fore
SplineSet
555.5 643.5 m 128,-1,1
 633 598 633 598 678 520 c 128,-1,2
 723 442 723 442 723 350 c 0,3,4
 723 259 723 259 678 180.5 c 128,-1,5
 633 102 633 102 555 55.5 c 128,-1,6
 477 9 477 9 383 9 c 0,7,8
 290 9 290 9 212.5 55 c 128,-1,9
 135 101 135 101 90.5 179 c 128,-1,10
 46 257 46 257 46 348 c 256,11,12
 46 439 46 439 91 517.5 c 128,-1,13
 136 596 136 596 213.5 642.5 c 128,-1,14
 291 689 291 689 385 689 c 0,15,0
 478 689 478 689 555.5 643.5 c 128,-1,1
541.5 81 m 128,-1,17
 613 123 613 123 654 194.5 c 128,-1,18
 695 266 695 266 695 350 c 256,19,20
 695 434 695 434 654 505 c 128,-1,21
 613 576 613 576 542 617.5 c 128,-1,22
 471 659 471 659 385 659 c 256,23,24
 299 659 299 659 228 617 c 128,-1,25
 157 575 157 575 116 503.5 c 128,-1,26
 75 432 75 432 75 348 c 256,27,28
 75 264 75 264 115.5 193 c 128,-1,29
 156 122 156 122 226.5 80.5 c 128,-1,30
 297 39 297 39 383 39 c 0,31,16
 470 39 470 39 541.5 81 c 128,-1,17
510.5 342.5 m 128,-1,33
 488 312 488 312 445 300 c 1,34,-1
 536 173 l 1,35,-1
 502 173 l 1,36,-1
 417 295 l 1,37,38
 399 293 399 293 389 293 c 2,39,-1
 285 293 l 1,40,-1
 285 173 l 1,41,-1
 257 173 l 1,42,-1
 257 539 l 1,43,-1
 389 539 l 2,44,45
 458 539 458 539 495.5 508 c 128,-1,46
 533 477 533 477 533 419 c 0,47,32
 533 373 533 373 510.5 342.5 c 128,-1,33
389 320 m 2,48,49
 444 320 444 320 474.5 346 c 128,-1,50
 505 372 505 372 505 419 c 0,51,52
 505 464 505 464 474.5 488 c 128,-1,53
 444 512 444 512 389 512 c 2,54,-1
 285 512 l 1,55,-1
 285 320 l 1,56,-1
 389 320 l 2,48,49
EndSplineSet
EndChar

StartChar: degree
Encoding: 176 176 115
Width: 310
Flags: W
LayerCount: 2
Fore
SplineSet
270 766 m 128,-1,1
 304 733 304 733 304 689 c 256,2,3
 304 645 304 645 270 612 c 128,-1,4
 236 579 236 579 190 579 c 256,5,6
 144 579 144 579 110.5 612 c 128,-1,7
 77 645 77 645 77 689 c 256,8,9
 77 733 77 733 110.5 766 c 128,-1,10
 144 799 144 799 190 799 c 256,11,0
 236 799 236 799 270 766 c 128,-1,1
129 747 m 128,-1,13
 103 722 103 722 103 689 c 256,14,15
 103 656 103 656 129 631.5 c 128,-1,16
 155 607 155 607 190 607 c 0,17,18
 226 607 226 607 251.5 631.5 c 128,-1,19
 277 656 277 656 277 689 c 256,20,21
 277 722 277 722 251.5 747 c 128,-1,22
 226 772 226 772 190 772 c 0,23,12
 155 772 155 772 129 747 c 128,-1,13
EndSplineSet
EndChar

StartChar: plusminus
Encoding: 177 177 116
Width: 484
Flags: W
LayerCount: 2
Fore
SplineSet
258 391 m 1,0,-1
 445 391 l 1,1,-1
 445 357 l 1,2,-1
 258 357 l 1,3,-1
 258 171 l 1,4,-1
 226 171 l 1,5,-1
 226 357 l 1,6,-1
 39 357 l 1,7,-1
 39 391 l 1,8,-1
 226 391 l 1,9,-1
 226 577 l 1,10,-1
 258 577 l 1,11,-1
 258 391 l 1,0,-1
39 47 m 1,12,-1
 39 81 l 1,13,-1
 445 81 l 1,14,-1
 445 47 l 1,15,-1
 39 47 l 1,12,-1
EndSplineSet
EndChar

StartChar: paragraph
Encoding: 182 182 121
Width: 570
Flags: W
LayerCount: 2
Fore
SplineSet
173 402 m 0,1,2
 111 402 111 402 73.5 428 c 128,-1,3
 36 454 36 454 20.5 492 c 128,-1,4
 5 530 5 530 5 568 c 0,5,6
 5 641 5 641 55.5 691.5 c 128,-1,7
 106 742 106 742 208 742 c 2,8,-1
 450 742 l 1,9,-1
 450 -111 l 1,10,-1
 415 -111 l 1,11,-1
 415 709 l 1,12,-1
 244 709 l 1,13,-1
 244 -111 l 1,14,-1
 209 -111 l 1,15,-1
 209 404 l 1,16,0
 183 402 183 402 173 402 c 0,1,2
EndSplineSet
EndChar

StartChar: ordmasculine
Encoding: 186 186 125
Width: 398
Flags: W
LayerCount: 2
Fore
SplineSet
312.5 721 m 128,-1,1
 357 678 357 678 357 611 c 0,2,3
 357 543 357 543 312.5 500 c 128,-1,4
 268 457 268 457 199 457 c 256,5,6
 130 457 130 457 86 500 c 128,-1,7
 42 543 42 543 42 611 c 0,8,9
 42 678 42 678 86 721 c 128,-1,10
 130 764 130 764 199 764 c 256,11,0
 268 764 268 764 312.5 721 c 128,-1,1
110 698.5 m 128,-1,13
 75 664 75 664 75 610 c 256,14,15
 75 556 75 556 110 521.5 c 128,-1,16
 145 487 145 487 199 487 c 256,17,18
 253 487 253 487 287.5 521 c 128,-1,19
 322 555 322 555 322 610 c 256,20,21
 322 665 322 665 287.5 699 c 128,-1,22
 253 733 253 733 199 733 c 256,23,12
 145 733 145 733 110 698.5 c 128,-1,13
EndSplineSet
EndChar

StartChar: questiondown
Encoding: 191 191 130
Width: 406
Flags: W
LayerCount: 2
Fore
SplineSet
196.5 466 m 128,-1,1
 186 476 186 476 186 491 c 0,2,3
 186 507 186 507 196.5 517.5 c 128,-1,4
 207 528 207 528 221 528 c 256,5,6
 235 528 235 528 245 517.5 c 128,-1,7
 255 507 255 507 255 491 c 0,8,9
 255 476 255 476 245 466 c 128,-1,10
 235 456 235 456 221 456 c 256,11,0
 207 456 207 456 196.5 466 c 128,-1,1
329 -122 m 128,-1,13
 280 -163 280 -163 201 -163 c 0,14,15
 121 -163 121 -163 71.5 -123.5 c 128,-1,16
 22 -84 22 -84 22 -8 c 0,17,18
 22 32 22 32 34.5 61.5 c 128,-1,19
 47 91 47 91 65 110.5 c 128,-1,20
 83 130 83 130 114 157 c 0,21,22
 158 193 158 193 180 225 c 128,-1,23
 202 257 202 257 202 309 c 1,24,-1
 237 309 l 1,25,26
 237 268 237 268 224.5 238 c 128,-1,27
 212 208 212 208 193.5 188 c 128,-1,28
 175 168 175 168 145 143 c 0,29,30
 116 118 116 118 100 100 c 128,-1,31
 84 82 84 82 72.5 56.5 c 128,-1,32
 61 31 61 31 61 -4 c 0,33,34
 61 -63 61 -63 100 -93.5 c 128,-1,35
 139 -124 139 -124 204 -124 c 0,36,37
 268 -124 268 -124 305.5 -93.5 c 128,-1,38
 343 -63 343 -63 347 -4 c 1,39,-1
 382 -6 l 1,40,12
 378 -81 378 -81 329 -122 c 128,-1,13
EndSplineSet
Substitution2: "<3,3> Small Caps in Latin lookup 11 subtable" questiondown.sc
EndChar

StartChar: AE
Encoding: 198 198 137
Width: 1001
Flags: W
LayerCount: 2
Fore
SplineSet
516 42 m 1,0,-1
 939 42 l 1,1,-1
 939 0 l 1,2,-1
 475 0 l 1,3,-1
 475 211 l 1,4,-1
 180 211 l 1,5,-1
 54 0 l 1,6,-1
 8 0 l 1,7,-1
 426 699 l 1,8,-1
 926 699 l 1,9,-1
 926 658 l 1,10,-1
 516 658 l 1,11,-1
 516 379 l 1,12,-1
 881 379 l 1,13,-1
 881 337 l 1,14,-1
 516 337 l 1,15,-1
 516 42 l 1,0,-1
202 249 m 1,16,-1
 475 249 l 1,17,-1
 475 660 l 1,18,-1
 447 660 l 1,19,-1
 202 249 l 1,16,-1
EndSplineSet
EndChar

StartChar: Ccedilla
Encoding: 199 199 138
Width: 703
Flags: W
LayerCount: 2
Fore
SplineSet
462 -78.5 m 128,-1,1
 483 -100 483 -100 483 -130 c 0,2,3
 483 -166 483 -166 457.5 -190 c 128,-1,4
 432 -214 432 -214 388 -214 c 0,5,6
 368 -214 368 -214 346 -208 c 128,-1,7
 324 -202 324 -202 310 -193 c 1,8,-1
 322 -161 l 1,9,10
 334 -169 334 -169 352 -174 c 128,-1,11
 370 -179 370 -179 385 -179 c 0,12,13
 415 -179 415 -179 431 -163.5 c 128,-1,14
 447 -148 447 -148 447 -127 c 0,15,16
 447 -108 447 -108 432 -94 c 128,-1,17
 417 -80 417 -80 391 -80 c 2,18,-1
 362 -80 l 1,19,-1
 384 -3 l 1,20,21
 291 2 291 2 213.5 51 c 128,-1,22
 136 100 136 100 91 179 c 128,-1,23
 46 258 46 258 46 350 c 0,24,25
 46 446 46 446 94.5 527.5 c 128,-1,26
 143 609 143 609 226 656.5 c 128,-1,27
 309 704 309 704 407 704 c 0,28,29
 476 704 476 704 539.5 679 c 128,-1,30
 603 654 603 654 653 609 c 1,31,-1
 628 577 l 1,32,33
 584 618 584 618 527 641 c 128,-1,34
 470 664 470 664 408 664 c 0,35,36
 321 664 321 664 247.5 622 c 128,-1,37
 174 580 174 580 131 508 c 128,-1,38
 88 436 88 436 88 351 c 256,39,40
 88 266 88 266 131 194 c 128,-1,41
 174 122 174 122 247.5 79.5 c 128,-1,42
 321 37 321 37 408 37 c 0,43,44
 470 37 470 37 526.5 59.5 c 128,-1,45
 583 82 583 82 628 123 c 1,46,-1
 654 94 l 1,47,48
 607 50 607 50 545.5 24 c 128,-1,49
 484 -2 484 -2 418 -4 c 1,50,-1
 402 -55 l 1,51,0
 441 -57 441 -57 462 -78.5 c 128,-1,1
EndSplineSet
EndChar

StartChar: multiply
Encoding: 215 215 154
Width: 484
Flags: W
LayerCount: 2
Fore
SplineSet
397 453 m 1,0,-1
 266 321 l 1,1,-1
 397 190 l 1,2,-1
 374 165 l 1,3,-1
 242 297 l 1,4,-1
 110 165 l 1,5,-1
 87 190 l 1,6,-1
 218 321 l 1,7,-1
 87 453 l 1,8,-1
 110 477 l 1,9,-1
 242 345 l 1,10,-1
 374 477 l 1,11,-1
 397 453 l 1,0,-1
EndSplineSet
EndChar

StartChar: Oslash
Encoding: 216 216 155
Width: 816
Flags: W
LayerCount: 2
Fore
SplineSet
732 506.5 m 128,-1,1
 770 434 770 434 770 350 c 0,2,3
 770 255 770 255 721.5 174 c 128,-1,4
 673 93 673 93 589.5 46 c 128,-1,5
 506 -1 506 -1 408 -1 c 0,6,7
 302 -1 302 -1 214 54 c 1,8,-1
 135 -55 l 1,9,-1
 97 -55 l 1,10,-1
 188 71 l 1,11,12
 122 120 122 120 84 193 c 128,-1,13
 46 266 46 266 46 350 c 0,14,15
 46 445 46 445 94.5 525.5 c 128,-1,16
 143 606 143 606 226.5 653 c 128,-1,17
 310 700 310 700 408 700 c 0,18,19
 513 700 513 700 602 646 c 1,20,-1
 681 755 l 1,21,-1
 720 755 l 1,22,-1
 628 628 l 1,23,0
 694 579 694 579 732 506.5 c 128,-1,1
122.5 213 m 128,-1,25
 156 149 156 149 213 105 c 1,26,-1
 578 612 l 1,27,28
 500 659 500 659 408 659 c 0,29,30
 322 659 322 659 248.5 617.5 c 128,-1,31
 175 576 175 576 132 505 c 128,-1,32
 89 434 89 434 89 350 c 0,33,24
 89 277 89 277 122.5 213 c 128,-1,25
567.5 82 m 128,-1,35
 641 124 641 124 684 195 c 128,-1,36
 727 266 727 266 727 350 c 0,37,38
 727 423 727 423 694 486.5 c 128,-1,39
 661 550 661 550 604 594 c 1,40,-1
 238 88 l 1,41,42
 316 40 316 40 408 40 c 0,43,34
 494 40 494 40 567.5 82 c 128,-1,35
EndSplineSet
EndChar

StartChar: Thorn
Encoding: 222 222 161
Width: 666
Flags: W
LayerCount: 2
Fore
SplineSet
562.5 534 m 128,-1,1
 637 478 637 478 637 367 c 0,2,3
 637 253 637 253 562.5 195 c 128,-1,4
 488 137 488 137 340 137 c 2,5,-1
 162 137 l 1,6,-1
 162 0 l 1,7,-1
 120 0 l 1,8,-1
 120 699 l 1,9,-1
 162 699 l 1,10,-1
 162 590 l 1,11,-1
 340 590 l 2,12,0
 488 590 488 590 562.5 534 c 128,-1,1
594 366 m 0,14,15
 594 459 594 459 530.5 505 c 128,-1,16
 467 551 467 551 339 551 c 2,17,-1
 162 551 l 1,18,-1
 162 176 l 1,19,-1
 339 176 l 2,20,13
 594 176 594 176 594 366 c 0,14,15
EndSplineSet
EndChar

StartChar: germandbls
Encoding: 223 223 162
Width: 643
Flags: W
LayerCount: 2
Fore
SplineSet
131 625.5 m 128,-1,1
 159 682 159 682 210.5 712.5 c 128,-1,2
 262 743 262 743 331 743 c 0,3,4
 426 743 426 743 483 692.5 c 128,-1,5
 540 642 540 642 540 558 c 0,6,7
 540 490 540 490 501 441 c 128,-1,8
 462 392 462 392 398 378 c 1,9,10
 479 367 479 367 527.5 319.5 c 128,-1,11
 576 272 576 272 576 200 c 0,12,13
 576 140 576 140 546 95 c 128,-1,14
 516 50 516 50 461 25 c 128,-1,15
 406 0 406 0 333 0 c 2,16,-1
 279 0 l 1,17,-1
 279 37 l 1,18,-1
 335 37 l 2,19,20
 426 37 426 37 481 81.5 c 128,-1,21
 536 126 536 126 536 199 c 0,22,23
 536 271 536 271 478 313 c 128,-1,24
 420 355 420 355 322 355 c 2,25,-1
 316 355 l 1,26,-1
 316 392 l 1,27,28
 399 392 399 392 449 436 c 128,-1,29
 499 480 499 480 499 554 c 0,30,31
 499 623 499 623 453.5 664 c 128,-1,32
 408 705 408 705 331 705 c 0,33,34
 246 705 246 705 195 648 c 128,-1,35
 144 591 144 591 144 496 c 2,36,-1
 144 0 l 1,37,-1
 103 0 l 1,38,-1
 103 494 l 2,39,0
 103 569 103 569 131 625.5 c 128,-1,1
EndSplineSet
Substitution2: "<3,3> Small Caps in Latin lookup 11 subtable" germandbls.sc
EndChar

StartChar: ae
Encoding: 230 230 169
Width: 985
Flags: W
LayerCount: 2
Fore
SplineSet
511 135.5 m 128,-1,1
 541 91 541 91 591.5 64 c 128,-1,2
 642 37 642 37 698 37 c 0,3,4
 751 37 751 37 796 55.5 c 128,-1,5
 841 74 841 74 873 109 c 1,6,-1
 898 82 l 1,7,8
 861 42 861 42 808.5 20.5 c 128,-1,9
 756 -1 756 -1 696 -1 c 0,10,11
 616 -1 616 -1 552 40.5 c 128,-1,12
 488 82 488 82 460 150 c 1,13,14
 395 -1 395 -1 231 -1 c 0,15,16
 154 -1 154 -1 106 41.5 c 128,-1,17
 58 84 58 84 58 151 c 0,18,19
 58 215 58 215 109.5 251.5 c 128,-1,20
 161 288 161 288 253 288 c 2,21,-1
 439 288 l 1,22,-1
 438 343 l 2,23,24
 438 411 438 411 397.5 447.5 c 128,-1,25
 357 484 357 484 282 484 c 0,26,27
 237 484 237 484 193.5 467.5 c 128,-1,28
 150 451 150 451 101 416 c 1,29,-1
 85 449 l 1,30,31
 138 486 138 486 187 504 c 128,-1,32
 236 522 236 522 287 522 c 0,33,34
 366 522 366 522 414 486 c 128,-1,35
 462 450 462 450 472 385 c 1,36,37
 501 449 501 449 560.5 485.5 c 128,-1,38
 620 522 620 522 695 522 c 0,39,40
 767 522 767 522 823 488 c 128,-1,41
 879 454 879 454 910 393 c 128,-1,42
 941 332 941 332 940 254 c 1,43,-1
 481 254 l 1,44,-1
 481 231 l 2,45,0
 481 180 481 180 511 135.5 c 128,-1,1
837 431 m 128,-1,47
 781 486 781 486 695 486 c 0,48,49
 637 486 637 486 590 460.5 c 128,-1,50
 543 435 543 435 514.5 389.5 c 128,-1,51
 486 344 486 344 482 285 c 1,52,-1
 899 285 l 1,53,46
 893 376 893 376 837 431 c 128,-1,47
139.5 230 m 128,-1,55
 98 203 98 203 98 153 c 0,56,57
 98 100 98 100 136 67 c 128,-1,58
 174 34 174 34 237 34 c 0,59,60
 313 34 313 34 361 68.5 c 128,-1,61
 409 103 409 103 440 180 c 1,62,-1
 440 257 l 1,63,-1
 258 257 l 2,64,54
 181 257 181 257 139.5 230 c 128,-1,55
EndSplineSet
Substitution2: "<3,3> Small Caps in Latin lookup 11 subtable" ae.sc
EndChar

StartChar: ccedilla
Encoding: 231 231 170
Width: 559
Flags: W
LayerCount: 2
Fore
SplineSet
416 22 m 128,-1,1
 367 0 367 0 308 -1 c 1,2,-1
 291 -55 l 1,3,4
 330 -57 330 -57 351 -78.5 c 128,-1,5
 372 -100 372 -100 372 -130 c 0,6,7
 372 -166 372 -166 346.5 -190 c 128,-1,8
 321 -214 321 -214 277 -214 c 0,9,10
 257 -214 257 -214 235 -208 c 128,-1,11
 213 -202 213 -202 199 -193 c 1,12,-1
 211 -161 l 1,13,14
 223 -169 223 -169 241 -174 c 128,-1,15
 259 -179 259 -179 274 -179 c 0,16,17
 304 -179 304 -179 320 -163.5 c 128,-1,18
 336 -148 336 -148 336 -127 c 0,19,20
 336 -108 336 -108 321 -94 c 128,-1,21
 306 -80 306 -80 280 -80 c 2,22,-1
 251 -80 l 1,23,-1
 274 0 l 1,24,25
 208 6 208 6 157 41 c 128,-1,26
 106 76 106 76 77 133 c 128,-1,27
 48 190 48 190 48 260 c 0,28,29
 48 335 48 335 81 395 c 128,-1,30
 114 455 114 455 172 488.5 c 128,-1,31
 230 522 230 522 303 522 c 0,32,33
 359 522 359 522 406.5 503 c 128,-1,34
 454 484 454 484 489 449 c 1,35,-1
 465 419 l 1,36,37
 397 482 397 482 304 482 c 0,38,39
 242 482 242 482 193 454 c 128,-1,40
 144 426 144 426 116.5 375.5 c 128,-1,41
 89 325 89 325 89 261 c 0,42,43
 89 196 89 196 116.5 145 c 128,-1,44
 144 94 144 94 193 66 c 128,-1,45
 242 38 242 38 304 38 c 0,46,47
 356 38 356 38 400 57 c 128,-1,48
 444 76 444 76 474 111 c 1,49,-1
 499 84 l 1,50,0
 465 44 465 44 416 22 c 128,-1,1
EndSplineSet
Substitution2: "<3,3> Small Caps in Latin lookup 11 subtable" ccedilla.sc
EndChar

StartChar: eth
Encoding: 240 240 179
Width: 571
Flags: W
LayerCount: 2
Fore
SplineSet
479 431 m 128,-1,1
 525 333 525 333 525 236 c 0,2,3
 525 165 525 165 495 111 c 128,-1,4
 465 57 465 57 409.5 28 c 128,-1,5
 354 -1 354 -1 281 -1 c 0,6,7
 178 -1 178 -1 116.5 59.5 c 128,-1,8
 55 120 55 120 55 223 c 0,9,10
 55 288 55 288 83 337 c 128,-1,11
 111 386 111 386 162.5 412.5 c 128,-1,12
 214 439 214 439 282 439 c 0,13,14
 349 439 349 439 403 408.5 c 128,-1,15
 457 378 457 378 481 326 c 1,16,17
 464 397 464 397 421 466.5 c 128,-1,18
 378 536 378 536 315 596 c 1,19,-1
 144 516 l 1,20,-1
 131 545 l 1,21,-1
 290 619 l 1,22,23
 224 677 224 677 149 717 c 1,24,-1
 175 743 l 1,25,26
 258 697 258 697 325 636 c 1,27,-1
 461 699 l 1,28,-1
 474 670 l 1,29,-1
 350 612 l 1,30,0
 433 529 433 529 479 431 c 128,-1,1
429 88 m 128,-1,32
 482 137 482 137 482 219 c 0,33,34
 482 303 482 303 429 353.5 c 128,-1,35
 376 404 376 404 287 404 c 0,36,37
 199 404 199 404 147 355.5 c 128,-1,38
 95 307 95 307 95 226 c 0,39,40
 95 141 95 141 147 90 c 128,-1,41
 199 39 199 39 287 39 c 0,42,31
 376 39 376 39 429 88 c 128,-1,32
EndSplineSet
Substitution2: "<3,3> Small Caps in Latin lookup 11 subtable" eth.sc
EndChar

StartChar: divide
Encoding: 247 247 186
Width: 484
Flags: W
LayerCount: 2
Fore
SplineSet
267 526 m 128,-1,1
 277 516 277 516 277 501 c 256,2,3
 277 486 277 486 267 475.5 c 128,-1,4
 257 465 257 465 243 465 c 256,5,6
 229 465 229 465 219 475.5 c 128,-1,7
 209 486 209 486 209 501 c 256,8,9
 209 516 209 516 219 526 c 128,-1,10
 229 536 229 536 243 536 c 256,11,0
 257 536 257 536 267 526 c 128,-1,1
39 339 m 1,12,-1
 445 339 l 1,13,-1
 445 304 l 1,14,-1
 39 304 l 1,15,-1
 39 339 l 1,12,-1
267 174 m 128,-1,17
 277 164 277 164 277 149 c 256,18,19
 277 134 277 134 267 123.5 c 128,-1,20
 257 113 257 113 243 113 c 256,21,22
 229 113 229 113 219 123.5 c 128,-1,23
 209 134 209 134 209 149 c 256,24,25
 209 164 209 164 219 174 c 128,-1,26
 229 184 229 184 243 184 c 256,27,16
 257 184 257 184 267 174 c 128,-1,17
EndSplineSet
EndChar

StartChar: oslash
Encoding: 248 248 187
Width: 610
Flags: W
LayerCount: 2
Fore
SplineSet
537 380.5 m 128,-1,1
 562 327 562 327 562 261 c 0,2,3
 562 185 562 185 529 125.5 c 128,-1,4
 496 66 496 66 437.5 32.5 c 128,-1,5
 379 -1 379 -1 305 -1 c 0,6,7
 229 -1 229 -1 168 35 c 1,8,-1
 71 -106 l 1,9,-1
 37 -106 l 1,10,-1
 145 51 l 1,11,12
 99 87 99 87 73.5 141 c 128,-1,13
 48 195 48 195 48 261 c 0,14,15
 48 336 48 336 81.5 395.5 c 128,-1,16
 115 455 115 455 173.5 488.5 c 128,-1,17
 232 522 232 522 305 522 c 0,18,19
 381 522 381 522 442 486 c 1,20,-1
 539 627 l 1,21,-1
 574 627 l 1,22,-1
 466 470 l 1,23,0
 512 434 512 434 537 380.5 c 128,-1,1
108.5 159 m 128,-1,25
 129 113 129 113 166 83 c 1,26,-1
 420 454 l 1,27,28
 369 484 369 484 305 484 c 0,29,30
 243 484 243 484 193.5 456 c 128,-1,31
 144 428 144 428 116 377 c 128,-1,32
 88 326 88 326 88 261 c 0,33,24
 88 205 88 205 108.5 159 c 128,-1,25
416.5 64 m 128,-1,35
 466 93 466 93 494 144 c 128,-1,36
 522 195 522 195 522 261 c 0,37,38
 522 317 522 317 501.5 362 c 128,-1,39
 481 407 481 407 444 437 c 1,40,-1
 189 66 l 1,41,42
 240 35 240 35 305 35 c 0,43,34
 367 35 367 35 416.5 64 c 128,-1,35
EndSplineSet
Substitution2: "<3,3> Small Caps in Latin lookup 11 subtable" oslash.sc
EndChar

StartChar: thorn
Encoding: 254 254 193
Width: 671
Flags: W
LayerCount: 2
Fore
SplineSet
237.5 485.5 m 128,-1,1
 296 522 296 522 372 522 c 0,2,3
 444 522 444 522 501.5 488.5 c 128,-1,4
 559 455 559 455 591 395.5 c 128,-1,5
 623 336 623 336 623 260 c 0,6,7
 623 185 623 185 591 125.5 c 128,-1,8
 559 66 559 66 502 32.5 c 128,-1,9
 445 -1 445 -1 372 -1 c 0,10,11
 296 -1 296 -1 237.5 35.5 c 128,-1,12
 179 72 179 72 151 136 c 1,13,-1
 151 -194 l 1,14,-1
 109 -194 l 1,15,-1
 109 742 l 1,16,-1
 151 742 l 1,17,-1
 151 385 l 1,18,0
 179 449 179 449 237.5 485.5 c 128,-1,1
255 454 m 128,-1,20
 206 425 206 425 178.5 374.5 c 128,-1,21
 151 324 151 324 151 260 c 256,22,23
 151 196 151 196 178.5 145.5 c 128,-1,24
 206 95 206 95 255 66.5 c 128,-1,25
 304 38 304 38 366 38 c 256,26,27
 428 38 428 38 477.5 66.5 c 128,-1,28
 527 95 527 95 554.5 145.5 c 128,-1,29
 582 196 582 196 582 260 c 256,30,31
 582 324 582 324 554.5 374.5 c 128,-1,32
 527 425 527 425 477.5 454 c 128,-1,33
 428 483 428 483 366 483 c 256,34,19
 304 483 304 483 255 454 c 128,-1,20
EndSplineSet
Substitution2: "<3,3> Small Caps in Latin lookup 11 subtable" thorn.sc
EndChar

StartChar: Aogonek
Encoding: 260 260 199
Width: 698
Flags: W
LayerCount: 2
Fore
SplineSet
675 -161 m 1,1,-1
 689 -191 l 1,2,3
 653 -214 653 -214 615 -214 c 0,4,5
 579 -214 579 -214 557.5 -193.5 c 128,-1,6
 536 -173 536 -173 536 -136 c 0,7,8
 536 -98 536 -98 562 -64 c 128,-1,9
 588 -30 588 -30 642 5 c 1,10,-1
 553 199 l 1,11,-1
 144 199 l 1,12,-1
 54 0 l 1,13,-1
 8 0 l 1,14,-1
 325 699 l 1,15,-1
 370 699 l 1,16,-1
 690 0 l 1,17,18
 629 -42 629 -42 602 -70.5 c 128,-1,19
 575 -99 575 -99 575 -130 c 0,20,21
 575 -154 575 -154 588 -166 c 128,-1,22
 601 -178 601 -178 622 -178 c 0,23,0
 649 -178 649 -178 675 -161 c 1,1,-1
162 241 m 1,24,-1
 534 241 l 1,25,-1
 347 651 l 1,26,-1
 162 241 l 1,24,-1
EndSplineSet
EndChar

StartChar: aogonek
Encoding: 261 261 200
Width: 567
Flags: W
LayerCount: 2
Fore
SplineSet
465 -161 m 1,1,-1
 479 -191 l 1,2,3
 443 -214 443 -214 405 -214 c 0,4,5
 369 -214 369 -214 347.5 -193.5 c 128,-1,6
 326 -173 326 -173 326 -136 c 0,7,8
 326 -96 326 -96 353.5 -62 c 128,-1,9
 381 -28 381 -28 439 10 c 1,10,-1
 438 103 l 1,11,12
 406 50 406 50 352.5 24.5 c 128,-1,13
 299 -1 299 -1 230 -1 c 0,14,15
 179 -1 179 -1 140 19 c 128,-1,16
 101 39 101 39 79.5 73.5 c 128,-1,17
 58 108 58 108 58 152 c 0,18,19
 58 217 58 217 110 254.5 c 128,-1,20
 162 292 162 292 252 292 c 2,21,-1
 437 292 l 1,22,-1
 437 343 l 2,23,24
 436 410 436 410 397 447 c 128,-1,25
 358 484 358 484 281 484 c 0,26,27
 234 484 234 484 192 466.5 c 128,-1,28
 150 449 150 449 106 416 c 1,29,-1
 86 448 l 1,30,31
 137 485 137 485 184 503.5 c 128,-1,32
 231 522 231 522 287 522 c 0,33,34
 378 522 378 522 427.5 475 c 128,-1,35
 477 428 477 428 478 346 c 2,36,-1
 480 0 l 1,37,38
 419 -42 419 -42 392 -70.5 c 128,-1,39
 365 -99 365 -99 365 -130 c 0,40,41
 365 -154 365 -154 378 -166 c 128,-1,42
 391 -178 391 -178 412 -178 c 0,43,0
 439 -178 439 -178 465 -161 c 1,1,-1
363 70 m 128,-1,45
 415 103 415 103 438 170 c 1,46,-1
 438 255 l 1,47,-1
 256 255 l 2,48,49
 179 255 179 255 138.5 229 c 128,-1,50
 98 203 98 203 98 153 c 0,51,52
 98 101 98 101 135.5 69 c 128,-1,53
 173 37 173 37 236 37 c 0,54,44
 311 37 311 37 363 70 c 128,-1,45
EndSplineSet
Substitution2: "<3,3> Small Caps in Latin lookup 11 subtable" aogonek.sc
EndChar

StartChar: Dcroat
Encoding: 272 272 211
Width: 803
Flags: W
LayerCount: 2
Fore
SplineSet
579 652.5 m 128,-1,1
 661 606 661 606 709 525.5 c 128,-1,2
 757 445 757 445 757 349 c 0,3,4
 757 254 757 254 709 173.5 c 128,-1,5
 661 93 661 93 578 46.5 c 128,-1,6
 495 0 495 0 397 0 c 2,7,-1
 120 0 l 1,8,-1
 120 334 l 1,9,-1
 49 334 l 1,10,-1
 49 366 l 1,11,-1
 120 366 l 1,12,-1
 120 699 l 1,13,-1
 398 699 l 2,14,0
 497 699 497 699 579 652.5 c 128,-1,1
557 83 m 128,-1,16
 630 124 630 124 672.5 194.5 c 128,-1,17
 715 265 715 265 715 349 c 0,18,19
 715 434 715 434 672.5 504.5 c 128,-1,20
 630 575 630 575 557 616.5 c 128,-1,21
 484 658 484 658 397 658 c 2,22,-1
 162 658 l 1,23,-1
 162 366 l 1,24,-1
 427 366 l 1,25,-1
 427 334 l 1,26,-1
 162 334 l 1,27,-1
 162 42 l 1,28,-1
 398 42 l 2,29,15
 484 42 484 42 557 83 c 128,-1,16
EndSplineSet
EndChar

StartChar: dcroat
Encoding: 273 273 212
Width: 675
Flags: W
LayerCount: 2
Fore
SplineSet
643 611 m 1,0,-1
 565 611 l 1,1,-1
 565 0 l 1,2,-1
 524 0 l 1,3,-1
 524 138 l 1,4,5
 494 73 494 73 435.5 35 c 128,-1,6
 377 -3 377 -3 301 -3 c 0,7,8
 228 -3 228 -3 170.5 30.5 c 128,-1,9
 113 64 113 64 80.5 123.5 c 128,-1,10
 48 183 48 183 48 258 c 256,11,12
 48 333 48 333 80.5 392 c 128,-1,13
 113 451 113 451 170.5 484.5 c 128,-1,14
 228 518 228 518 300 518 c 0,15,16
 376 518 376 518 435 480.5 c 128,-1,17
 494 443 494 443 524 378 c 1,18,-1
 524 611 l 1,19,-1
 285 611 l 1,20,-1
 285 644 l 1,21,-1
 524 644 l 1,22,-1
 524 742 l 1,23,-1
 565 742 l 1,24,-1
 565 644 l 1,25,-1
 643 644 l 1,26,-1
 643 611 l 1,0,-1
418.5 64.5 m 128,-1,28
 468 93 468 93 496 143.5 c 128,-1,29
 524 194 524 194 524 257 c 256,30,31
 524 320 524 320 496 371 c 128,-1,32
 468 422 468 422 418.5 450.5 c 128,-1,33
 369 479 369 479 307 479 c 256,34,35
 245 479 245 479 195 450.5 c 128,-1,36
 145 422 145 422 117 371 c 128,-1,37
 89 320 89 320 89 257 c 256,38,39
 89 194 89 194 117 143.5 c 128,-1,40
 145 93 145 93 195 64.5 c 128,-1,41
 245 36 245 36 307 36 c 256,42,27
 369 36 369 36 418.5 64.5 c 128,-1,28
EndSplineSet
Substitution2: "<3,3> Small Caps in Latin lookup 11 subtable" dcroat.sc
EndChar

StartChar: Eogonek
Encoding: 280 280 219
Width: 647
Flags: W
LayerCount: 2
Fore
SplineSet
570 -161 m 1,1,-1
 584 -191 l 1,2,3
 548 -214 548 -214 510 -214 c 0,4,5
 474 -214 474 -214 452.5 -193.5 c 128,-1,6
 431 -173 431 -173 431 -136 c 256,7,8
 431 -99 431 -99 455 -66.5 c 128,-1,9
 479 -34 479 -34 529 0 c 1,10,-1
 120 0 l 1,11,-1
 120 699 l 1,12,-1
 571 699 l 1,13,-1
 571 658 l 1,14,-1
 162 658 l 1,15,-1
 162 379 l 1,16,-1
 526 379 l 1,17,-1
 526 337 l 1,18,-1
 162 337 l 1,19,-1
 162 41 l 1,20,-1
 584 41 l 1,21,-1
 584 1 l 1,22,-1
 585 0 l 1,23,24
 524 -42 524 -42 497 -70.5 c 128,-1,25
 470 -99 470 -99 470 -130 c 0,26,27
 470 -154 470 -154 483 -166 c 128,-1,28
 496 -178 496 -178 517 -178 c 0,29,0
 544 -178 544 -178 570 -161 c 1,1,-1
EndSplineSet
EndChar

StartChar: eogonek
Encoding: 281 281 220
Width: 589
Flags: W
LayerCount: 2
Fore
SplineSet
432.5 487.5 m 128,-1,1
 488 453 488 453 516.5 391 c 128,-1,2
 545 329 545 329 544 249 c 1,3,-1
 89 249 l 1,4,5
 92 186 92 186 120 138 c 128,-1,6
 148 90 148 90 196 63.5 c 128,-1,7
 244 37 244 37 304 37 c 0,8,9
 357 37 357 37 402.5 55.5 c 128,-1,10
 448 74 448 74 480 109 c 1,11,-1
 504 82 l 1,12,13
 490 67 490 67 467 49 c 0,14,15
 407 1 407 1 372.5 -46 c 128,-1,16
 338 -93 338 -93 338 -130 c 0,17,18
 338 -153 338 -153 351 -165.5 c 128,-1,19
 364 -178 364 -178 384 -178 c 0,20,21
 412 -178 412 -178 437 -161 c 1,22,-1
 451 -191 l 1,23,24
 415 -214 415 -214 378 -214 c 0,25,26
 342 -214 342 -214 320 -191.5 c 128,-1,27
 298 -169 298 -169 298 -132 c 0,28,29
 298 -70 298 -70 376 8 c 1,30,31
 342 -1 342 -1 302 -1 c 0,32,33
 229 -1 229 -1 171 32.5 c 128,-1,34
 113 66 113 66 80.5 125.5 c 128,-1,35
 48 185 48 185 48 260 c 256,36,37
 48 335 48 335 81 395 c 128,-1,38
 114 455 114 455 171.5 488.5 c 128,-1,39
 229 522 229 522 302 522 c 0,40,0
 377 522 377 522 432.5 487.5 c 128,-1,1
506 286 m 1,41,42
 500 376 500 376 445 430 c 128,-1,43
 390 484 390 484 302 484 c 256,44,45
 214 484 214 484 156 429.5 c 128,-1,46
 98 375 98 375 90 286 c 1,47,-1
 506 286 l 1,41,42
EndSplineSet
Substitution2: "<3,3> Small Caps in Latin lookup 11 subtable" eogonek.sc
EndChar

StartChar: Hbar
Encoding: 294 294 233
Width: 797
Flags: W
LayerCount: 2
Fore
SplineSet
750 558 m 1,0,-1
 750 526 l 1,1,-1
 677 526 l 1,2,-1
 677 0 l 1,3,-1
 635 0 l 1,4,-1
 635 330 l 1,5,-1
 162 330 l 1,6,-1
 162 0 l 1,7,-1
 120 0 l 1,8,-1
 120 526 l 1,9,-1
 48 526 l 1,10,-1
 48 558 l 1,11,-1
 120 558 l 1,12,-1
 120 699 l 1,13,-1
 162 699 l 1,14,-1
 162 558 l 1,15,-1
 635 558 l 1,16,-1
 635 699 l 1,17,-1
 677 699 l 1,18,-1
 677 558 l 1,19,-1
 750 558 l 1,0,-1
635 371 m 1,20,-1
 635 526 l 1,21,-1
 162 526 l 1,22,-1
 162 371 l 1,23,-1
 635 371 l 1,20,-1
EndSplineSet
EndChar

StartChar: hbar
Encoding: 295 295 234
Width: 654
Flags: W
LayerCount: 2
Fore
SplineSet
513.5 462.5 m 128,-1,1
 567 408 567 408 567 312 c 2,2,-1
 567 0 l 1,3,-1
 525 0 l 1,4,-1
 525 304 l 2,5,6
 525 385 525 385 480 430 c 128,-1,7
 435 475 435 475 355 475 c 0,8,9
 259 475 259 475 205 414 c 128,-1,10
 151 353 151 353 151 250 c 2,11,-1
 151 0 l 1,12,-1
 109 0 l 1,13,-1
 109 611 l 1,14,-1
 32 611 l 1,15,-1
 32 644 l 1,16,-1
 109 644 l 1,17,-1
 109 742 l 1,18,-1
 151 742 l 1,19,-1
 151 644 l 1,20,-1
 390 644 l 1,21,-1
 390 611 l 1,22,-1
 151 611 l 1,23,-1
 151 381 l 1,24,25
 177 448 177 448 231.5 482.5 c 128,-1,26
 286 517 286 517 365 517 c 0,27,0
 460 517 460 517 513.5 462.5 c 128,-1,1
EndSplineSet
Substitution2: "<3,3> Small Caps in Latin lookup 11 subtable" hbar.sc
EndChar

StartChar: Iogonek
Encoding: 302 302 241
Width: 282
Flags: W
LayerCount: 2
Fore
SplineSet
74 -70.5 m 128,-1,1
 47 -99 47 -99 47 -130 c 0,2,3
 47 -154 47 -154 60 -166 c 128,-1,4
 73 -178 73 -178 94 -178 c 0,5,6
 121 -178 121 -178 147 -161 c 1,7,-1
 161 -191 l 1,8,9
 125 -214 125 -214 87 -214 c 0,10,11
 51 -214 51 -214 29.5 -193.5 c 128,-1,12
 8 -173 8 -173 8 -136 c 0,13,14
 8 -96 8 -96 35 -62 c 128,-1,15
 62 -28 62 -28 120 9 c 1,16,-1
 120 699 l 1,17,-1
 162 699 l 1,18,-1
 162 0 l 1,19,0
 101 -42 101 -42 74 -70.5 c 128,-1,1
EndSplineSet
EndChar

StartChar: iogonek
Encoding: 303 303 242
Width: 250
Flags: W
LayerCount: 2
Fore
SplineSet
149.5 696.5 m 128,-1,1
 160 686 160 686 160 671 c 0,2,3
 160 655 160 655 149.5 644.5 c 128,-1,4
 139 634 139 634 125 634 c 256,5,6
 111 634 111 634 100.5 644.5 c 128,-1,7
 90 655 90 655 90 671 c 0,8,9
 90 686 90 686 100.5 696.5 c 128,-1,10
 111 707 111 707 125 707 c 256,11,0
 139 707 139 707 149.5 696.5 c 128,-1,1
104 521 m 1,12,-1
 145 521 l 1,13,-1
 145 0 l 1,14,15
 84 -42 84 -42 57 -70.5 c 128,-1,16
 30 -99 30 -99 30 -130 c 0,17,18
 30 -154 30 -154 43 -166 c 128,-1,19
 56 -178 56 -178 77 -178 c 0,20,21
 104 -178 104 -178 130 -161 c 1,22,-1
 144 -191 l 1,23,24
 108 -214 108 -214 70 -214 c 0,25,26
 34 -214 34 -214 12.5 -193.5 c 128,-1,27
 -9 -173 -9 -173 -9 -136 c 0,28,29
 -9 -96 -9 -96 18.5 -62 c 128,-1,30
 46 -28 46 -28 104 10 c 1,31,-1
 104 521 l 1,12,-1
EndSplineSet
Substitution2: "<3,3> Small Caps in Latin lookup 11 subtable" iogonek.sc
EndChar

StartChar: dotlessi
Encoding: 305 305 244
Width: 250
Flags: W
LayerCount: 2
Fore
SplineSet
104 521 m 1,0,-1
 145 521 l 1,1,-1
 145 0 l 1,2,-1
 104 0 l 1,3,-1
 104 521 l 1,0,-1
EndSplineSet
Substitution2: "<3,3> Small Caps in Latin lookup 11 subtable" dotlessi.sc
EndChar

StartChar: kgreenlandic
Encoding: 312 312 251
Width: 547
Flags: W
LayerCount: 2
Fore
SplineSet
484 0 m 1,0,-1
 280 289 l 1,1,-1
 145 150 l 1,2,-1
 145 0 l 1,3,-1
 104 0 l 1,4,-1
 104 521 l 1,5,-1
 145 521 l 1,6,-1
 145 210 l 1,7,-1
 455 521 l 1,8,-1
 506 521 l 1,9,-1
 309 319 l 1,10,-1
 533 0 l 1,11,-1
 484 0 l 1,0,-1
EndSplineSet
Substitution2: "<3,3> Small Caps in Latin lookup 11 subtable" kgreenlandic.sc
EndChar

StartChar: Lslash
Encoding: 321 321 260
Width: 517
Flags: W
LayerCount: 2
Fore
SplineSet
178 41 m 1,0,-1
 489 41 l 1,1,-1
 489 0 l 1,2,-1
 136 0 l 1,3,-1
 136 347 l 1,4,-1
 28 287 l 1,5,-1
 28 322 l 1,6,-1
 136 381 l 1,7,-1
 136 699 l 1,8,-1
 178 699 l 1,9,-1
 178 404 l 1,10,-1
 305 474 l 1,11,-1
 305 440 l 1,12,-1
 178 370 l 1,13,-1
 178 41 l 1,0,-1
EndSplineSet
EndChar

StartChar: lslash
Encoding: 322 322 261
Width: 346
Flags: W
LayerCount: 2
Fore
SplineSet
323 473 m 1,0,-1
 323 436 l 1,1,-1
 205 371 l 1,2,-1
 205 0 l 1,3,-1
 163 0 l 1,4,-1
 163 348 l 1,5,-1
 46 283 l 1,6,-1
 46 321 l 1,7,-1
 163 385 l 1,8,-1
 163 742 l 1,9,-1
 205 742 l 1,10,-1
 205 408 l 1,11,-1
 323 473 l 1,0,-1
EndSplineSet
Substitution2: "<3,3> Small Caps in Latin lookup 11 subtable" lslash.sc
EndChar

StartChar: Eng
Encoding: 330 330 269
Width: 797
Flags: W
LayerCount: 2
Fore
SplineSet
677 699 m 1,0,-1
 677 0 l 2,1,2
 677 -94 677 -94 629.5 -146 c 128,-1,3
 582 -198 582 -198 495 -198 c 0,4,5
 442 -198 442 -198 396 -174 c 128,-1,6
 350 -150 350 -150 316 -105 c 1,7,-1
 339 -71 l 1,8,9
 370 -112 370 -112 410 -133 c 128,-1,10
 450 -154 450 -154 495 -154 c 0,11,12
 561 -154 561 -154 597 -114.5 c 128,-1,13
 633 -75 633 -75 635 0 c 1,14,-1
 628 0 l 1,15,-1
 162 635 l 1,16,-1
 162 0 l 1,17,-1
 120 0 l 1,18,-1
 120 699 l 1,19,-1
 169 699 l 1,20,-1
 636 64 l 1,21,-1
 636 699 l 1,22,-1
 677 699 l 1,0,-1
EndSplineSet
EndChar

StartChar: eng
Encoding: 331 331 270
Width: 648
Flags: W
LayerCount: 2
Fore
SplineSet
507.5 467.5 m 128,-1,1
 561 413 561 413 561 318 c 2,2,-1
 561 -27 l 2,3,4
 561 -110 561 -110 526.5 -152.5 c 128,-1,5
 492 -195 492 -195 432 -195 c 0,6,7
 374 -193 374 -193 328 -158 c 1,8,-1
 346 -123 l 1,9,10
 386 -154 386 -154 433 -154 c 0,11,12
 475 -154 475 -154 497 -123 c 128,-1,13
 519 -92 519 -92 519 -31 c 2,14,-1
 519 310 l 2,15,16
 519 390 519 390 474 435 c 128,-1,17
 429 480 429 480 349 480 c 0,18,19
 260 478 260 478 206.5 425.5 c 128,-1,20
 153 373 153 373 146 282 c 1,21,-1
 146 0 l 1,22,-1
 104 0 l 1,23,-1
 104 521 l 1,24,-1
 146 521 l 1,25,-1
 146 388 l 1,26,27
 172 452 172 452 226.5 486 c 128,-1,28
 281 520 281 520 359 522 c 0,29,0
 454 522 454 522 507.5 467.5 c 128,-1,1
EndSplineSet
Substitution2: "<3,3> Small Caps in Latin lookup 11 subtable" eng.sc
EndChar

StartChar: OE
Encoding: 338 338 277
Width: 1091
Flags: W
LayerCount: 2
Fore
SplineSet
1029 42 m 1,0,-1
 1029 0 l 1,1,-1
 408 0 l 2,2,3
 310 0 310 0 226.5 47 c 128,-1,4
 143 94 143 94 94.5 174.5 c 128,-1,5
 46 255 46 255 46 350 c 256,6,7
 46 445 46 445 94.5 525 c 128,-1,8
 143 605 143 605 226.5 652 c 128,-1,9
 310 699 310 699 408 699 c 2,10,-1
 1015 699 l 1,11,-1
 1015 658 l 1,12,-1
 606 658 l 1,13,-1
 606 379 l 1,14,-1
 970 379 l 1,15,-1
 970 337 l 1,16,-1
 606 337 l 1,17,-1
 606 42 l 1,18,-1
 1029 42 l 1,0,-1
564 39 m 1,19,-1
 564 658 l 1,20,-1
 408 658 l 2,21,22
 321 658 321 658 247.5 616.5 c 128,-1,23
 174 575 174 575 131 504.5 c 128,-1,24
 88 434 88 434 88 350 c 0,25,26
 88 265 88 265 131 194.5 c 128,-1,27
 174 124 174 124 247.5 82.5 c 128,-1,28
 321 41 321 41 408 41 c 2,29,-1
 564 39 l 1,19,-1
EndSplineSet
EndChar

StartChar: oe
Encoding: 339 339 278
Width: 1067
Flags: W
LayerCount: 2
Fore
SplineSet
905.5 488 m 128,-1,1
 962 454 962 454 992.5 393 c 128,-1,2
 1023 332 1023 332 1022 255 c 1,3,-1
 561 255 l 1,4,5
 562 191 562 191 590.5 141.5 c 128,-1,6
 619 92 619 92 668 64.5 c 128,-1,7
 717 37 717 37 779 37 c 0,8,9
 832 37 832 37 877.5 55.5 c 128,-1,10
 923 74 923 74 956 109 c 1,11,-1
 980 82 l 1,12,13
 943 42 943 42 890.5 20.5 c 128,-1,14
 838 -1 838 -1 777 -1 c 0,15,16
 692 -1 692 -1 629.5 43.5 c 128,-1,17
 567 88 567 88 541 164 c 1,18,19
 515 88 515 88 452 43.5 c 128,-1,20
 389 -1 389 -1 305 -1 c 0,21,22
 232 -1 232 -1 173.5 32.5 c 128,-1,23
 115 66 115 66 81.5 125.5 c 128,-1,24
 48 185 48 185 48 261 c 0,25,26
 48 336 48 336 81.5 395.5 c 128,-1,27
 115 455 115 455 173.5 488.5 c 128,-1,28
 232 522 232 522 305 522 c 0,29,30
 390 522 390 522 452.5 477.5 c 128,-1,31
 515 433 515 433 542 357 c 1,32,33
 568 433 568 433 630.5 477.5 c 128,-1,34
 693 522 693 522 776 522 c 0,35,0
 849 522 849 522 905.5 488 c 128,-1,1
981 285 m 1,36,37
 976 375 976 375 920 430.5 c 128,-1,38
 864 486 864 486 776 486 c 0,39,40
 718 486 718 486 671 460.5 c 128,-1,41
 624 435 624 435 595.5 389.5 c 128,-1,42
 567 344 567 344 562 285 c 1,43,-1
 981 285 l 1,36,37
416.5 66 m 128,-1,45
 466 94 466 94 493.5 144.5 c 128,-1,46
 521 195 521 195 521 260 c 256,47,48
 521 325 521 325 493.5 375.5 c 128,-1,49
 466 426 466 426 416.5 454 c 128,-1,50
 367 482 367 482 305 482 c 256,51,52
 243 482 243 482 194 454 c 128,-1,53
 145 426 145 426 117 375.5 c 128,-1,54
 89 325 89 325 89 260 c 256,55,56
 89 195 89 195 117 144.5 c 128,-1,57
 145 94 145 94 194 66 c 128,-1,58
 243 38 243 38 305 38 c 256,59,44
 367 38 367 38 416.5 66 c 128,-1,45
EndSplineSet
Substitution2: "<3,3> Small Caps in Latin lookup 11 subtable" oe.sc
EndChar

StartChar: Scedilla
Encoding: 350 350 289
Width: 599
Flags: W
LayerCount: 2
Fore
SplineSet
146.5 462 m 128,-1,1
 172 432 172 432 209.5 415.5 c 128,-1,2
 247 399 247 399 311 379 c 0,3,4
 382 358 382 358 426 338 c 128,-1,5
 470 318 470 318 500 279 c 128,-1,6
 530 240 530 240 530 178 c 0,7,8
 530 103 530 103 475 54.5 c 128,-1,9
 420 6 420 6 325 -2 c 1,10,-1
 309 -55 l 1,11,12
 348 -57 348 -57 369 -78.5 c 128,-1,13
 390 -100 390 -100 390 -130 c 0,14,15
 390 -166 390 -166 364.5 -190 c 128,-1,16
 339 -214 339 -214 295 -214 c 0,17,18
 275 -214 275 -214 253 -208 c 128,-1,19
 231 -202 231 -202 217 -193 c 1,20,-1
 229 -161 l 1,21,22
 241 -169 241 -169 259 -174 c 128,-1,23
 277 -179 277 -179 292 -179 c 0,24,25
 322 -179 322 -179 338 -163.5 c 128,-1,26
 354 -148 354 -148 354 -127 c 0,27,28
 354 -108 354 -108 339 -94 c 128,-1,29
 324 -80 324 -80 298 -80 c 2,30,-1
 269 -80 l 1,31,-1
 291 -4 l 1,32,-1
 287 -4 l 2,33,34
 218 -4 218 -4 151 24 c 128,-1,35
 84 52 84 52 38 98 c 1,36,-1
 60 135 l 1,37,38
 102 90 102 90 164 64.5 c 128,-1,39
 226 39 226 39 288 39 c 0,40,41
 379 39 379 39 432 76.5 c 128,-1,42
 485 114 485 114 485 177 c 0,43,44
 485 226 485 226 459 256.5 c 128,-1,45
 433 287 433 287 394.5 304 c 128,-1,46
 356 321 356 321 292 340 c 0,47,48
 220 362 220 362 177.5 381.5 c 128,-1,49
 135 401 135 401 105.5 439 c 128,-1,50
 76 477 76 477 76 538 c 0,51,52
 76 588 76 588 104.5 626 c 128,-1,53
 133 664 133 664 185.5 684.5 c 128,-1,54
 238 705 238 705 306 705 c 0,55,56
 359 705 359 705 412.5 689.5 c 128,-1,57
 466 674 466 674 506 648 c 1,58,-1
 487 610 l 1,59,60
 449 635 449 635 400 648 c 128,-1,61
 351 661 351 661 304 661 c 0,62,63
 221 661 221 661 171 628 c 128,-1,64
 121 595 121 595 121 540 c 0,65,0
 121 492 121 492 146.5 462 c 128,-1,1
EndSplineSet
EndChar

StartChar: scedilla
Encoding: 351 351 290
Width: 437
Flags: W
LayerCount: 2
Fore
SplineSet
353 38.5 m 128,-1,1
 306 3 306 3 234 -1 c 1,2,-1
 217 -55 l 1,3,4
 256 -57 256 -57 277 -78.5 c 128,-1,5
 298 -100 298 -100 298 -130 c 0,6,7
 298 -166 298 -166 272.5 -190 c 128,-1,8
 247 -214 247 -214 203 -214 c 0,9,10
 183 -214 183 -214 161 -208 c 128,-1,11
 139 -202 139 -202 125 -193 c 1,12,-1
 137 -161 l 1,13,14
 149 -169 149 -169 167 -174 c 128,-1,15
 185 -179 185 -179 200 -179 c 0,16,17
 230 -179 230 -179 246 -163.5 c 128,-1,18
 262 -148 262 -148 262 -127 c 0,19,20
 262 -108 262 -108 247 -94 c 128,-1,21
 232 -80 232 -80 206 -80 c 2,22,-1
 177 -80 l 1,23,-1
 200 0 l 1,24,25
 150 3 150 3 105.5 21.5 c 128,-1,26
 61 40 61 40 28 71 c 1,27,-1
 47 103 l 1,28,29
 81 71 81 71 126.5 54 c 128,-1,30
 172 37 172 37 221 37 c 0,31,32
 281 37 281 37 320.5 62 c 128,-1,33
 360 87 360 87 360 135 c 0,34,35
 360 167 360 167 341.5 187.5 c 128,-1,36
 323 208 323 208 295 220 c 128,-1,37
 267 232 267 232 220 246 c 0,38,39
 166 263 166 263 134 277.5 c 128,-1,40
 102 292 102 292 79 319.5 c 128,-1,41
 56 347 56 347 56 391 c 0,42,43
 56 456 56 456 104.5 489 c 128,-1,44
 153 522 153 522 227 522 c 0,45,46
 309 522 309 522 376 481 c 1,47,-1
 358 447 l 1,48,49
 300 484 300 484 226 484 c 0,50,51
 168 484 168 484 132 461.5 c 128,-1,52
 96 439 96 439 96 394 c 0,53,54
 96 364 96 364 114 344 c 128,-1,55
 132 324 132 324 159 313 c 128,-1,56
 186 302 186 302 232 288 c 0,57,58
 287 271 287 271 320 256 c 128,-1,59
 353 241 353 241 376.5 213 c 128,-1,60
 400 185 400 185 400 139 c 0,61,0
 400 74 400 74 353 38.5 c 128,-1,1
EndSplineSet
Substitution2: "<3,3> Small Caps in Latin lookup 11 subtable" scedilla.sc
EndChar

StartChar: uni0162
Encoding: 354 354 293
Width: 538
Flags: W
LayerCount: 2
Fore
SplineSet
290 658 m 1,0,-1
 290 1 l 1,1,-1
 294 0 l 1,2,-1
 277 -55 l 1,3,4
 316 -57 316 -57 337 -78.5 c 128,-1,5
 358 -100 358 -100 358 -130 c 0,6,7
 358 -166 358 -166 332.5 -190 c 128,-1,8
 307 -214 307 -214 263 -214 c 0,9,10
 243 -214 243 -214 221 -208 c 128,-1,11
 199 -202 199 -202 185 -193 c 1,12,-1
 197 -161 l 1,13,14
 209 -169 209 -169 227 -174 c 128,-1,15
 245 -179 245 -179 260 -179 c 0,16,17
 290 -179 290 -179 306 -163.5 c 128,-1,18
 322 -148 322 -148 322 -127 c 0,19,20
 322 -108 322 -108 307 -94 c 128,-1,21
 292 -80 292 -80 266 -80 c 2,22,-1
 237 -80 l 1,23,-1
 260 0 l 1,24,-1
 248 0 l 1,25,-1
 248 658 l 1,26,-1
 12 658 l 1,27,-1
 12 699 l 1,28,-1
 526 699 l 1,29,-1
 526 658 l 1,30,-1
 290 658 l 1,0,-1
EndSplineSet
EndChar

StartChar: uni0163
Encoding: 355 355 294
Width: 372
Flags: W
LayerCount: 2
Fore
SplineSet
301 -78.5 m 128,-1,1
 322 -100 322 -100 322 -130 c 0,2,3
 322 -166 322 -166 296.5 -190 c 128,-1,4
 271 -214 271 -214 227 -214 c 0,5,6
 207 -214 207 -214 185 -208 c 128,-1,7
 163 -202 163 -202 149 -193 c 1,8,-1
 161 -161 l 1,9,10
 173 -169 173 -169 191 -174 c 128,-1,11
 209 -179 209 -179 224 -179 c 0,12,13
 254 -179 254 -179 270 -163.5 c 128,-1,14
 286 -148 286 -148 286 -127 c 0,15,16
 286 -108 286 -108 271 -94 c 128,-1,17
 256 -80 256 -80 230 -80 c 2,18,-1
 201 -80 l 1,19,-1
 224 0 l 1,20,21
 175 4 175 4 148.5 40.5 c 128,-1,22
 122 77 122 77 122 144 c 2,23,-1
 122 472 l 1,24,-1
 46 472 l 1,25,-1
 46 508 l 1,26,-1
 122 508 l 1,27,-1
 122 637 l 1,28,-1
 162 637 l 1,29,-1
 162 508 l 1,30,-1
 339 508 l 1,31,-1
 339 472 l 1,32,-1
 162 472 l 1,33,-1
 162 149 l 2,34,35
 162 40 162 40 243 40 c 0,36,37
 289 40 289 40 333 70 c 1,38,-1
 349 36 l 1,39,40
 305 6 305 6 258 0 c 1,41,-1
 241 -55 l 1,42,0
 280 -57 280 -57 301 -78.5 c 128,-1,1
EndSplineSet
Substitution2: "<3,3> Small Caps in Latin lookup 11 subtable" uni0163.sc
EndChar

StartChar: Tbar
Encoding: 358 358 297
Width: 538
Flags: W
LayerCount: 2
Fore
SplineSet
526 658 m 1,0,-1
 290 658 l 1,1,-1
 290 361 l 1,2,-1
 454 361 l 1,3,-1
 454 329 l 1,4,-1
 290 329 l 1,5,-1
 290 0 l 1,6,-1
 248 0 l 1,7,-1
 248 329 l 1,8,-1
 84 329 l 1,9,-1
 84 361 l 1,10,-1
 248 361 l 1,11,-1
 248 658 l 1,12,-1
 12 658 l 1,13,-1
 12 699 l 1,14,-1
 526 699 l 1,15,-1
 526 658 l 1,0,-1
EndSplineSet
EndChar

StartChar: tbar
Encoding: 359 359 298
Width: 372
Flags: W
LayerCount: 2
Fore
SplineSet
349 36 m 1,0,1
 294 -1 294 -1 238 -1 c 256,2,3
 182 -1 182 -1 152 35.5 c 128,-1,4
 122 72 122 72 122 144 c 2,5,-1
 122 284 l 1,6,-1
 45 284 l 1,7,-1
 45 321 l 1,8,-1
 122 321 l 1,9,-1
 122 472 l 1,10,-1
 46 472 l 1,11,-1
 46 508 l 1,12,-1
 122 508 l 1,13,-1
 122 637 l 1,14,-1
 162 637 l 1,15,-1
 162 508 l 1,16,-1
 339 508 l 1,17,-1
 339 472 l 1,18,-1
 162 472 l 1,19,-1
 162 321 l 1,20,-1
 338 321 l 1,21,-1
 338 284 l 1,22,-1
 162 284 l 1,23,-1
 162 149 l 2,24,25
 162 40 162 40 243 40 c 0,26,27
 289 40 289 40 333 70 c 1,28,-1
 349 36 l 1,0,1
EndSplineSet
Substitution2: "<3,3> Small Caps in Latin lookup 11 subtable" tbar.sc
EndChar

StartChar: Uogonek
Encoding: 370 370 309
Width: 771
Flags: W
LayerCount: 2
Fore
SplineSet
668 699 m 1,0,-1
 668 283 l 2,1,2
 668 202 668 202 642 142.5 c 128,-1,3
 616 83 616 83 565 47 c 0,4,5
 506 0 506 0 472.5 -47 c 128,-1,6
 439 -94 439 -94 439 -130 c 0,7,8
 439 -153 439 -153 452 -165.5 c 128,-1,9
 465 -178 465 -178 485 -178 c 0,10,11
 513 -178 513 -178 538 -161 c 1,12,-1
 552 -191 l 1,13,14
 516 -214 516 -214 479 -214 c 0,15,16
 443 -214 443 -214 421 -191.5 c 128,-1,17
 399 -169 399 -169 399 -132 c 0,18,19
 399 -69 399 -69 476 6 c 1,20,21
 436 -4 436 -4 386 -4 c 0,22,23
 252 -4 252 -4 177.5 71.5 c 128,-1,24
 103 147 103 147 103 283 c 2,25,-1
 103 699 l 1,26,-1
 145 699 l 1,27,-1
 145 283 l 2,28,29
 145 166 145 166 208.5 101.5 c 128,-1,30
 272 37 272 37 386 37 c 0,31,32
 499 37 499 37 562.5 101.5 c 128,-1,33
 626 166 626 166 626 283 c 2,34,-1
 626 699 l 1,35,-1
 668 699 l 1,0,-1
EndSplineSet
EndChar

StartChar: uogonek
Encoding: 371 371 310
Width: 641
Flags: W
LayerCount: 2
Fore
SplineSet
448 -70.5 m 128,-1,1
 421 -99 421 -99 421 -130 c 0,2,3
 421 -154 421 -154 434 -166 c 128,-1,4
 447 -178 447 -178 468 -178 c 0,5,6
 495 -178 495 -178 521 -161 c 1,7,-1
 535 -191 l 1,8,9
 499 -214 499 -214 461 -214 c 0,10,11
 425 -214 425 -214 403.5 -193.5 c 128,-1,12
 382 -173 382 -173 382 -136 c 0,13,14
 382 -96 382 -96 409.5 -62 c 128,-1,15
 437 -28 437 -28 495 10 c 1,16,-1
 495 139 l 1,17,18
 470 71 470 71 416.5 35.5 c 128,-1,19
 363 0 363 0 286 -1 c 0,20,21
 192 -1 192 -1 139.5 53 c 128,-1,22
 87 107 87 107 87 203 c 2,23,-1
 87 521 l 1,24,-1
 128 521 l 1,25,-1
 128 211 l 2,26,27
 128 131 128 131 172 86 c 128,-1,28
 216 41 216 41 295 41 c 0,29,30
 389 43 389 43 442 103 c 128,-1,31
 495 163 495 163 495 266 c 2,32,-1
 495 521 l 1,33,-1
 536 521 l 1,34,-1
 536 0 l 1,35,0
 475 -42 475 -42 448 -70.5 c 128,-1,1
EndSplineSet
Substitution2: "<3,3> Small Caps in Latin lookup 11 subtable" uogonek.sc
EndChar

StartChar: uni018F
Encoding: 399 399 322
Width: 788
Flags: W
LayerCount: 2
Fore
SplineSet
213.5 44.5 m 128,-1,1
 133 93 133 93 86 176 c 128,-1,2
 39 259 39 259 39 358 c 1,3,-1
 700 358 l 1,4,5
 699 441 699 441 657 511 c 128,-1,6
 615 581 615 581 544.5 622 c 128,-1,7
 474 663 474 663 391 663 c 0,8,9
 319 663 319 663 255.5 633.5 c 128,-1,10
 192 604 192 604 147 551 c 1,11,-1
 118 582 l 1,12,13
 169 640 169 640 239 672 c 128,-1,14
 309 704 309 704 391 704 c 0,15,16
 486 704 486 704 566.5 656.5 c 128,-1,17
 647 609 647 609 694 528 c 128,-1,18
 741 447 741 447 741 351 c 256,19,20
 741 255 741 255 694 173.5 c 128,-1,21
 647 92 647 92 566.5 44 c 128,-1,22
 486 -4 486 -4 391 -4 c 0,23,0
 294 -4 294 -4 213.5 44.5 c 128,-1,1
538 74 m 128,-1,25
 606 111 606 111 648.5 175 c 128,-1,26
 691 239 691 239 698 316 c 1,27,-1
 84 316 l 1,28,29
 91 239 91 239 133.5 175 c 128,-1,30
 176 111 176 111 243.5 74 c 128,-1,31
 311 37 311 37 391 37 c 0,32,24
 470 37 470 37 538 74 c 128,-1,25
EndSplineSet
EndChar

StartChar: florin
Encoding: 402 402 323
Width: 324
Flags: W
LayerCount: 2
Fore
SplineSet
217 680 m 128,-1,1
 186 647 186 647 179 592 c 2,2,-1
 163 463 l 1,3,-1
 325 463 l 1,4,-1
 322 428 l 1,5,-1
 159 428 l 1,6,-1
 102 -39 l 2,7,8
 82 -195 82 -195 -33 -195 c 0,9,10
 -56 -195 -56 -195 -82 -184.5 c 128,-1,11
 -108 -174 -108 -174 -127 -158 c 1,12,-1
 -109 -125 l 1,13,14
 -95 -139 -95 -139 -74 -147.5 c 128,-1,15
 -53 -156 -53 -156 -34 -156 c 0,16,17
 46 -156 46 -156 61 -35 c 2,18,-1
 117 428 l 1,19,-1
 53 428 l 1,20,-1
 57 463 l 1,21,-1
 122 463 l 1,22,-1
 138 596 l 2,23,24
 148 667 148 667 189.5 709.5 c 128,-1,25
 231 752 231 752 291 752 c 0,26,27
 319 752 319 752 347.5 741.5 c 128,-1,28
 376 731 376 731 398 715 c 1,29,-1
 378 682 l 1,30,31
 359 696 359 696 336.5 704.5 c 128,-1,32
 314 713 314 713 293 713 c 0,33,0
 248 713 248 713 217 680 c 128,-1,1
EndSplineSet
EndChar

StartChar: Ohorn
Encoding: 416 416 324
Width: 843
Flags: W
LayerCount: 2
Fore
SplineSet
732.5 507 m 128,-1,1
 770 434 770 434 770 351 c 0,2,3
 770 255 770 255 721.5 173.5 c 128,-1,4
 673 92 673 92 589.5 44 c 128,-1,5
 506 -4 506 -4 408 -4 c 256,6,7
 310 -4 310 -4 226.5 44 c 128,-1,8
 143 92 143 92 94.5 173.5 c 128,-1,9
 46 255 46 255 46 351 c 256,10,11
 46 447 46 447 94.5 528 c 128,-1,12
 143 609 143 609 226.5 656.5 c 128,-1,13
 310 704 310 704 408 704 c 0,14,15
 492 704 492 704 567 668 c 1,16,-1
 567 669 l 1,17,18
 589 661 589 661 613 661 c 0,19,20
 648 661 648 661 669 685 c 128,-1,21
 690 709 690 709 690 744 c 0,22,23
 690 778 690 778 669 806 c 1,24,-1
 705 822 l 1,25,26
 728 786 728 786 728 746 c 0,27,28
 728 701 728 701 701 668 c 128,-1,29
 674 635 674 635 630 630 c 1,30,0
 695 580 695 580 732.5 507 c 128,-1,1
567.5 79.5 m 128,-1,32
 641 122 641 122 684 194 c 128,-1,33
 727 266 727 266 727 351 c 256,34,35
 727 436 727 436 684 507.5 c 128,-1,36
 641 579 641 579 567.5 621 c 128,-1,37
 494 663 494 663 408 663 c 256,38,39
 322 663 322 663 248.5 621 c 128,-1,40
 175 579 175 579 132 507.5 c 128,-1,41
 89 436 89 436 89 351 c 256,42,43
 89 266 89 266 132 194 c 128,-1,44
 175 122 175 122 248.5 79.5 c 128,-1,45
 322 37 322 37 408 37 c 256,46,31
 494 37 494 37 567.5 79.5 c 128,-1,32
EndSplineSet
EndChar

StartChar: ohorn
Encoding: 417 417 325
Width: 634
Flags: W
LayerCount: 2
Fore
SplineSet
543 366.5 m 128,-1,1
 562 318 562 318 562 261 c 0,2,3
 562 185 562 185 529 125.5 c 128,-1,4
 496 66 496 66 437.5 32.5 c 128,-1,5
 379 -1 379 -1 305 -1 c 0,6,7
 232 -1 232 -1 173.5 32.5 c 128,-1,8
 115 66 115 66 81.5 125.5 c 128,-1,9
 48 185 48 185 48 261 c 0,10,11
 48 336 48 336 81.5 395.5 c 128,-1,12
 115 455 115 455 173.5 488.5 c 128,-1,13
 232 522 232 522 305 522 c 256,14,15
 378 522 378 522 436 489 c 1,16,17
 460 482 460 482 480 482 c 0,18,19
 515 482 515 482 536 506 c 128,-1,20
 557 530 557 530 557 565 c 0,21,22
 557 599 557 599 536 627 c 1,23,-1
 572 643 l 1,24,25
 595 607 595 607 595 566 c 0,26,27
 595 519 595 519 565 485.5 c 128,-1,28
 535 452 535 452 488 450 c 1,29,0
 524 415 524 415 543 366.5 c 128,-1,1
416.5 66 m 128,-1,31
 466 94 466 94 493.5 145 c 128,-1,32
 521 196 521 196 521 261 c 0,33,34
 521 325 521 325 493.5 375.5 c 128,-1,35
 466 426 466 426 416.5 454 c 128,-1,36
 367 482 367 482 305 482 c 256,37,38
 243 482 243 482 194 454 c 128,-1,39
 145 426 145 426 117 375.5 c 128,-1,40
 89 325 89 325 89 261 c 0,41,42
 89 196 89 196 117 145 c 128,-1,43
 145 94 145 94 194 66 c 128,-1,44
 243 38 243 38 305 38 c 256,45,30
 367 38 367 38 416.5 66 c 128,-1,31
EndSplineSet
Substitution2: "<3,3> Small Caps in Latin lookup 11 subtable" ohorn.sc
EndChar

StartChar: Uhorn
Encoding: 431 431 326
Width: 784
Flags: W
LayerCount: 2
Fore
SplineSet
747 759 m 0,1,2
 747 724 747 724 726.5 700 c 128,-1,3
 706 676 706 676 668 670 c 1,4,-1
 668 283 l 2,5,6
 668 147 668 147 594 71.5 c 128,-1,7
 520 -4 520 -4 386 -4 c 256,8,9
 252 -4 252 -4 177.5 71.5 c 128,-1,10
 103 147 103 147 103 283 c 2,11,-1
 103 699 l 1,12,-1
 145 699 l 1,13,-1
 145 283 l 2,14,15
 145 166 145 166 208.5 101.5 c 128,-1,16
 272 37 272 37 386 37 c 0,17,18
 499 37 499 37 562.5 101.5 c 128,-1,19
 626 166 626 166 626 283 c 2,20,-1
 626 699 l 1,21,-1
 648 699 l 1,22,-1
 648 700 l 1,23,24
 680 700 680 700 695.5 716 c 128,-1,25
 711 732 711 732 711 757 c 0,26,27
 711 783 711 783 698 808 c 1,28,-1
 732 822 l 1,29,0
 747 789 747 789 747 759 c 0,1,2
EndSplineSet
EndChar

StartChar: uhorn
Encoding: 432 432 327
Width: 640
Flags: W
LayerCount: 2
Fore
SplineSet
611 580 m 0,1,2
 611 545 611 545 591.5 521.5 c 128,-1,3
 572 498 572 498 536 492 c 1,4,-1
 536 0 l 1,5,-1
 495 0 l 1,6,-1
 495 139 l 1,7,8
 470 71 470 71 416.5 35.5 c 128,-1,9
 363 0 363 0 286 -1 c 0,10,11
 192 -1 192 -1 139.5 53 c 128,-1,12
 87 107 87 107 87 203 c 2,13,-1
 87 521 l 1,14,-1
 128 521 l 1,15,-1
 128 211 l 2,16,17
 128 131 128 131 172 86 c 128,-1,18
 216 41 216 41 295 41 c 0,19,20
 389 43 389 43 442 103 c 128,-1,21
 495 163 495 163 495 266 c 2,22,-1
 495 521 l 1,23,-1
 512 521 l 2,24,25
 544 521 544 521 559.5 537 c 128,-1,26
 575 553 575 553 575 578 c 0,27,28
 575 604 575 604 562 629 c 1,29,-1
 596 643 l 1,30,0
 611 610 611 610 611 580 c 0,1,2
EndSplineSet
Substitution2: "<3,3> Small Caps in Latin lookup 11 subtable" uhorn.sc
EndChar

StartChar: uni01EA
Encoding: 490 490 339
Width: 816
Flags: W
LayerCount: 2
Fore
SplineSet
496.5 -50.5 m 128,-1,1
 465 -95 465 -95 465 -130 c 0,2,3
 465 -153 465 -153 478 -165.5 c 128,-1,4
 491 -178 491 -178 511 -178 c 0,5,6
 539 -178 539 -178 564 -161 c 1,7,-1
 578 -191 l 1,8,9
 542 -214 542 -214 505 -214 c 0,10,11
 469 -214 469 -214 447 -191.5 c 128,-1,12
 425 -169 425 -169 425 -132 c 0,13,14
 425 -70 425 -70 504 9 c 1,15,16
 461 -4 461 -4 408 -4 c 0,17,18
 310 -4 310 -4 226.5 44 c 128,-1,19
 143 92 143 92 94.5 173.5 c 128,-1,20
 46 255 46 255 46 351 c 256,21,22
 46 447 46 447 94.5 528 c 128,-1,23
 143 609 143 609 226.5 656.5 c 128,-1,24
 310 704 310 704 408 704 c 256,25,26
 506 704 506 704 589.5 656.5 c 128,-1,27
 673 609 673 609 721.5 528 c 128,-1,28
 770 447 770 447 770 351 c 0,29,30
 770 252 770 252 719 169.5 c 128,-1,31
 668 87 668 87 583 40 c 1,32,0
 528 -6 528 -6 496.5 -50.5 c 128,-1,1
132 194 m 128,-1,34
 175 122 175 122 248.5 79.5 c 128,-1,35
 322 37 322 37 408 37 c 256,36,37
 494 37 494 37 567.5 79.5 c 128,-1,38
 641 122 641 122 684 194 c 128,-1,39
 727 266 727 266 727 351 c 256,40,41
 727 436 727 436 684 507.5 c 128,-1,42
 641 579 641 579 567.5 621 c 128,-1,43
 494 663 494 663 408 663 c 256,44,45
 322 663 322 663 248.5 621 c 128,-1,46
 175 579 175 579 132 507.5 c 128,-1,47
 89 436 89 436 89 351 c 256,48,33
 89 266 89 266 132 194 c 128,-1,34
EndSplineSet
EndChar

StartChar: uni01EB
Encoding: 491 491 340
Width: 610
Flags: W
LayerCount: 2
Fore
SplineSet
365.5 -48 m 128,-1,1
 333 -94 333 -94 333 -130 c 0,2,3
 333 -153 333 -153 346 -165.5 c 128,-1,4
 359 -178 359 -178 379 -178 c 0,5,6
 407 -178 407 -178 432 -161 c 1,7,-1
 446 -191 l 1,8,9
 410 -214 410 -214 373 -214 c 0,10,11
 337 -214 337 -214 315 -191.5 c 128,-1,12
 293 -169 293 -169 293 -132 c 0,13,14
 293 -69 293 -69 370 6 c 1,15,16
 341 -1 341 -1 305 -1 c 0,17,18
 232 -1 232 -1 173.5 32.5 c 128,-1,19
 115 66 115 66 81.5 125.5 c 128,-1,20
 48 185 48 185 48 261 c 0,21,22
 48 336 48 336 81.5 395.5 c 128,-1,23
 115 455 115 455 173.5 488.5 c 128,-1,24
 232 522 232 522 305 522 c 0,25,26
 379 522 379 522 437.5 488.5 c 128,-1,27
 496 455 496 455 529 395.5 c 128,-1,28
 562 336 562 336 562 261 c 0,29,30
 562 191 562 191 534 135 c 128,-1,31
 506 79 506 79 456 44 c 0,32,0
 398 -2 398 -2 365.5 -48 c 128,-1,1
117 145 m 128,-1,34
 145 94 145 94 194 66 c 128,-1,35
 243 38 243 38 305 38 c 256,36,37
 367 38 367 38 416.5 66 c 128,-1,38
 466 94 466 94 493.5 145 c 128,-1,39
 521 196 521 196 521 261 c 0,40,41
 521 325 521 325 493.5 375.5 c 128,-1,42
 466 426 466 426 416.5 454 c 128,-1,43
 367 482 367 482 305 482 c 256,44,45
 243 482 243 482 194 454 c 128,-1,46
 145 426 145 426 117 375.5 c 128,-1,47
 89 325 89 325 89 261 c 0,48,33
 89 196 89 196 117 145 c 128,-1,34
EndSplineSet
Substitution2: "<3,3> Small Caps in Latin lookup 11 subtable" uni01EB.sc
EndChar

StartChar: uni0237
Encoding: 567 567 383
Width: 231
Flags: W
LayerCount: 2
Fore
SplineSet
10 -155 m 0,1,2
 54 -156 54 -156 77 -123 c 128,-1,3
 100 -90 100 -90 100 -25 c 2,4,-1
 100 521 l 1,5,-1
 141 521 l 1,6,-1
 141 -29 l 2,7,8
 141 -110 141 -110 109.5 -152 c 128,-1,9
 78 -194 78 -194 17 -194 c 0,10,11
 -17 -194 -17 -194 -55 -179 c 1,12,-1
 -44 -144 l 1,13,0
 -20 -153 -20 -153 10 -155 c 0,1,2
EndSplineSet
EndChar

StartChar: uni0259
Encoding: 601 601 384
Width: 589
Flags: W
LayerCount: 2
Fore
SplineSet
418 488.5 m 128,-1,1
 476 455 476 455 508.5 395.5 c 128,-1,2
 541 336 541 336 541 261 c 256,3,4
 541 186 541 186 508 126 c 128,-1,5
 475 66 475 66 417.5 32.5 c 128,-1,6
 360 -1 360 -1 287 -1 c 0,7,8
 212 -1 212 -1 156.5 33.5 c 128,-1,9
 101 68 101 68 72.5 130 c 128,-1,10
 44 192 44 192 45 272 c 1,11,-1
 500 272 l 1,12,13
 497 335 497 335 469 383 c 128,-1,14
 441 431 441 431 393 457.5 c 128,-1,15
 345 484 345 484 285 484 c 0,16,17
 232 484 232 484 186.5 465.5 c 128,-1,18
 141 447 141 447 109 412 c 1,19,-1
 85 439 l 1,20,21
 122 479 122 479 174 500.5 c 128,-1,22
 226 522 226 522 287 522 c 0,23,0
 360 522 360 522 418 488.5 c 128,-1,1
433 91.5 m 128,-1,25
 491 146 491 146 499 235 c 1,26,-1
 83 235 l 1,27,28
 89 145 89 145 144 91 c 128,-1,29
 199 37 199 37 287 37 c 256,30,24
 375 37 375 37 433 91.5 c 128,-1,25
EndSplineSet
Substitution2: "<3,3> Small Caps in Latin lookup 11 subtable" uni0259.sc
EndChar

StartChar: uni02BB
Encoding: 699 699 385
Width: 142
Flags: W
LayerCount: 2
Fore
SplineSet
92 516 m 1,0,-1
 50 526 l 1,1,-1
 63 700 l 1,2,-1
 92 700 l 1,3,-1
 92 516 l 1,0,-1
EndSplineSet
EndChar

StartChar: uni02BC
Encoding: 700 700 386
Width: 103
Flags: W
LayerCount: 2
Fore
SplineSet
35 699 m 1,0,-1
 70 699 l 1,1,-1
 61 440 l 1,2,-1
 31 440 l 1,3,-1
 35 699 l 1,0,-1
EndSplineSet
EndChar

StartChar: uni02BE
Encoding: 702 702 387
Width: 262
Flags: W
LayerCount: 2
Fore
SplineSet
69 589 m 1,0,1
 104 589 104 589 130 613.5 c 128,-1,2
 156 638 156 638 156 672 c 0,3,4
 156 705 156 705 130 729.5 c 128,-1,5
 104 754 104 754 69 754 c 1,6,-1
 69 782 l 1,7,8
 115 782 115 782 149 749 c 128,-1,9
 183 716 183 716 183 672 c 0,10,11
 183 627 183 627 149 594 c 128,-1,12
 115 561 115 561 69 561 c 1,13,-1
 69 589 l 1,0,1
EndSplineSet
EndChar

StartChar: uni02BF
Encoding: 703 703 388
Width: 261
Flags: W
LayerCount: 2
Fore
SplineSet
193 589 m 1,0,1
 158 589 158 589 132 613.5 c 128,-1,2
 106 638 106 638 106 672 c 0,3,4
 106 705 106 705 132 729.5 c 128,-1,5
 158 754 158 754 193 754 c 1,6,-1
 193 782 l 1,7,8
 147 782 147 782 113 749 c 128,-1,9
 79 716 79 716 79 672 c 0,10,11
 79 627 79 627 113 594 c 128,-1,12
 147 561 147 561 193 561 c 1,13,-1
 193 589 l 1,0,1
EndSplineSet
EndChar

StartChar: uni02C8
Encoding: 712 712 391
Width: 58
Flags: W
LayerCount: 2
Fore
SplineSet
12 521 m 1,0,-1
 12 699 l 1,1,-1
 46 699 l 1,2,-1
 46 521 l 1,3,-1
 12 521 l 1,0,-1
EndSplineSet
EndChar

StartChar: uni02CC
Encoding: 716 716 395
Width: 58
Flags: W
LayerCount: 2
Fore
SplineSet
12 -209 m 1,0,-1
 12 -30 l 1,1,-1
 46 -30 l 1,2,-1
 46 -209 l 1,3,-1
 12 -209 l 1,0,-1
EndSplineSet
EndChar

StartChar: gravecomb
Encoding: 768 768 402
Width: 0
Flags: W
LayerCount: 2
Fore
SplineSet
-184 743 m 1,0,-1
 -56 627 l 1,1,-1
 -98 620 l 1,2,-1
 -225 723 l 1,3,-1
 -184 743 l 1,0,-1
EndSplineSet
Substitution2: "<3,3> Small Caps in Latin lookup 11 subtable" gravecomb.sc
EndChar

StartChar: acutecomb
Encoding: 769 769 403
Width: 0
Flags: W
LayerCount: 2
Fore
SplineSet
-61 743 m 1,0,-1
 -20 723 l 1,1,-1
 -147 620 l 1,2,-1
 -189 627 l 1,3,-1
 -61 743 l 1,0,-1
EndSplineSet
Substitution2: "<3,3> Small Caps in Latin lookup 11 subtable" acutecomb.sc
EndChar

StartChar: uni0302
Encoding: 770 770 404
Width: 0
Flags: W
LayerCount: 2
Fore
SplineSet
-18 622 m 1,0,-1
 -63 622 l 1,1,-1
 -143 707 l 1,2,-1
 -223 622 l 1,3,-1
 -268 622 l 1,4,-1
 -168 739 l 1,5,-1
 -118 739 l 1,6,-1
 -18 622 l 1,0,-1
EndSplineSet
Substitution2: "<3,3> Small Caps in Latin lookup 11 subtable" uni0302.sc
EndChar

StartChar: tildecomb
Encoding: 771 771 405
Width: 0
Flags: W
LayerCount: 2
Fore
SplineSet
-42.5 648.5 m 128,-1,1
 -62 622 -62 622 -97 622 c 0,2,3
 -117 622 -117 622 -132.5 630.5 c 128,-1,4
 -148 639 -148 639 -168 655 c 0,5,6
 -185 669 -185 669 -197.5 676 c 128,-1,7
 -210 683 -210 683 -224 683 c 0,8,9
 -246 683 -246 683 -257.5 668 c 128,-1,10
 -269 653 -269 653 -269 626 c 1,11,-1
 -301 626 l 1,12,13
 -301 668 -301 668 -282 694 c 128,-1,14
 -263 720 -263 720 -227 720 c 0,15,16
 -207 720 -207 720 -191.5 711.5 c 128,-1,17
 -176 703 -176 703 -156 687 c 0,18,19
 -139 673 -139 673 -126.5 666 c 128,-1,20
 -114 659 -114 659 -100 659 c 0,21,22
 -78 659 -78 659 -66.5 674.5 c 128,-1,23
 -55 690 -55 690 -55 716 c 1,24,-1
 -23 716 l 1,25,0
 -23 675 -23 675 -42.5 648.5 c 128,-1,1
EndSplineSet
Substitution2: "<3,3> Small Caps in Latin lookup 11 subtable" tildecomb.sc
EndChar

StartChar: uni0304
Encoding: 772 772 406
Width: 0
Flags: W
LayerCount: 2
Fore
SplineSet
-265 687 m 1,0,-1
 0 687 l 1,1,-1
 0 654 l 1,2,-1
 -265 654 l 1,3,-1
 -265 687 l 1,0,-1
EndSplineSet
Substitution2: "<3,3> Small Caps in Latin lookup 11 subtable" uni0304.sc
EndChar

StartChar: uni0306
Encoding: 774 774 407
Width: 0
Flags: W
LayerCount: 2
Fore
SplineSet
-192 675 m 128,-1,1
 -169 652 -169 652 -136 652 c 256,2,3
 -103 652 -103 652 -80.5 675 c 128,-1,4
 -58 698 -58 698 -56 732 c 1,5,-1
 -23 732 l 1,6,7
 -24 682 -24 682 -56.5 650 c 128,-1,8
 -89 618 -89 618 -136 618 c 256,9,10
 -183 618 -183 618 -215.5 650 c 128,-1,11
 -248 682 -248 682 -249 732 c 1,12,-1
 -216 732 l 1,13,0
 -215 698 -215 698 -192 675 c 128,-1,1
EndSplineSet
Substitution2: "<3,3> Small Caps in Latin lookup 11 subtable" uni0306.sc
EndChar

StartChar: uni0307
Encoding: 775 775 408
Width: 0
Flags: W
LayerCount: 2
Fore
SplineSet
-60.5 696.5 m 128,-1,1
 -50 686 -50 686 -50 671 c 0,2,3
 -50 655 -50 655 -60.5 644.5 c 128,-1,4
 -71 634 -71 634 -85 634 c 256,5,6
 -99 634 -99 634 -109.5 644.5 c 128,-1,7
 -120 655 -120 655 -120 671 c 0,8,9
 -120 686 -120 686 -109.5 696.5 c 128,-1,10
 -99 707 -99 707 -85 707 c 256,11,0
 -71 707 -71 707 -60.5 696.5 c 128,-1,1
EndSplineSet
Substitution2: "<3,3> Small Caps in Latin lookup 11 subtable" uni0307.sc
EndChar

StartChar: uni0308
Encoding: 776 776 409
Width: 0
Flags: W
LayerCount: 2
Fore
SplineSet
-215 695 m 128,-1,1
 -205 685 -205 685 -205 670 c 0,2,3
 -205 656 -205 656 -215 645.5 c 128,-1,4
 -225 635 -225 635 -239 635 c 0,5,6
 -252 635 -252 635 -262 645.5 c 128,-1,7
 -272 656 -272 656 -272 670 c 0,8,9
 -272 685 -272 685 -262.5 695 c 128,-1,10
 -253 705 -253 705 -239 705 c 256,11,0
 -225 705 -225 705 -215 695 c 128,-1,1
-58.5 695 m 128,-1,13
 -49 685 -49 685 -49 670 c 0,14,15
 -49 656 -49 656 -59 645.5 c 128,-1,16
 -69 635 -69 635 -82 635 c 0,17,18
 -96 635 -96 635 -106 645.5 c 128,-1,19
 -116 656 -116 656 -116 670 c 0,20,21
 -116 685 -116 685 -106 695 c 128,-1,22
 -96 705 -96 705 -82 705 c 256,23,12
 -68 705 -68 705 -58.5 695 c 128,-1,13
EndSplineSet
Substitution2: "<3,3> Small Caps in Latin lookup 11 subtable" uni0308.sc
EndChar

StartChar: hookabovecomb
Encoding: 777 777 410
Width: 0
Flags: W
LayerCount: 2
Fore
SplineSet
-62 739.5 m 128,-1,1
 -41 719 -41 719 -41 686 c 0,2,3
 -41 661 -41 661 -57 633.5 c 128,-1,4
 -73 606 -73 606 -99 585 c 1,5,-1
 -129 598 l 1,6,7
 -105 616 -105 616 -91.5 639 c 128,-1,8
 -78 662 -78 662 -78 681 c 256,9,10
 -78 700 -78 700 -90.5 712.5 c 128,-1,11
 -103 725 -103 725 -126 725 c 256,12,13
 -149 725 -149 725 -175 709 c 1,14,-1
 -191 736 l 1,15,16
 -157 760 -157 760 -120 760 c 256,17,0
 -83 760 -83 760 -62 739.5 c 128,-1,1
EndSplineSet
Substitution2: "<3,3> Small Caps in Latin lookup 11 subtable" hookabovecomb.sc
EndChar

StartChar: uni030A
Encoding: 778 778 411
Width: 0
Flags: W
LayerCount: 2
Fore
SplineSet
-111 738 m 128,-1,1
 -83 710 -83 710 -83 673 c 0,2,3
 -83 635 -83 635 -111 607.5 c 128,-1,4
 -139 580 -139 580 -178 580 c 0,5,6
 -216 580 -216 580 -244 607.5 c 128,-1,7
 -272 635 -272 635 -272 673 c 0,8,9
 -272 710 -272 710 -244 738 c 128,-1,10
 -216 766 -216 766 -178 766 c 0,11,0
 -139 766 -139 766 -111 738 c 128,-1,1
-226 718 m 128,-1,13
 -246 699 -246 699 -246 673 c 256,14,15
 -246 647 -246 647 -226 628 c 128,-1,16
 -206 609 -206 609 -178 609 c 0,17,18
 -151 609 -151 609 -130.5 628 c 128,-1,19
 -110 647 -110 647 -110 673 c 256,20,21
 -110 699 -110 699 -130.5 718 c 128,-1,22
 -151 737 -151 737 -178 737 c 0,23,12
 -206 737 -206 737 -226 718 c 128,-1,13
EndSplineSet
EndChar

StartChar: uni030B
Encoding: 779 779 412
Width: 0
Flags: W
LayerCount: 2
Fore
SplineSet
-213 745 m 1,0,-1
 -178 725 l 1,1,-1
 -272 620 l 1,2,-1
 -308 626 l 1,3,-1
 -213 745 l 1,0,-1
-84 745 m 1,4,-1
 -49 725 l 1,5,-1
 -143 620 l 1,6,-1
 -179 626 l 1,7,-1
 -84 745 l 1,4,-1
EndSplineSet
Substitution2: "<3,3> Small Caps in Latin lookup 11 subtable" uni030B.sc
EndChar

StartChar: uni030C
Encoding: 780 780 413
Width: 0
Flags: W
LayerCount: 2
Fore
SplineSet
-86 739 m 1,0,-1
 -41 739 l 1,1,-1
 -141 622 l 1,2,-1
 -191 622 l 1,3,-1
 -291 739 l 1,4,-1
 -246 739 l 1,5,-1
 -166 654 l 1,6,-1
 -86 739 l 1,0,-1
EndSplineSet
Substitution2: "<3,3> Small Caps in Latin lookup 11 subtable" uni030C.sc
EndChar

StartChar: uni030F
Encoding: 783 783 414
Width: 0
Flags: W
LayerCount: 2
Fore
SplineSet
-279 745 m 1,0,-1
 -184 626 l 1,1,-1
 -220 620 l 1,2,-1
 -314 725 l 1,3,-1
 -279 745 l 1,0,-1
-150 745 m 1,4,-1
 -55 626 l 1,5,-1
 -91 620 l 1,6,-1
 -185 725 l 1,7,-1
 -150 745 l 1,4,-1
EndSplineSet
Substitution2: "<3,3> Small Caps in Latin lookup 11 subtable" uni030F.sc
EndChar

StartChar: uni0311
Encoding: 785 785 415
Width: 0
Flags: W
LayerCount: 2
Fore
SplineSet
-249 618 m 1,0,1
 -248 667 -248 667 -215.5 699.5 c 128,-1,2
 -183 732 -183 732 -136 732 c 256,3,4
 -89 732 -89 732 -56.5 699.5 c 128,-1,5
 -24 667 -24 667 -23 618 c 1,6,-1
 -56 618 l 1,7,8
 -58 652 -58 652 -80.5 675 c 128,-1,9
 -103 698 -103 698 -136 698 c 256,10,11
 -169 698 -169 698 -191.5 675 c 128,-1,12
 -214 652 -214 652 -216 618 c 1,13,-1
 -249 618 l 1,0,1
EndSplineSet
Substitution2: "<3,3> Small Caps in Latin lookup 11 subtable" uni0311.sc
EndChar

StartChar: uni0312
Encoding: 786 786 416
Width: 0
Flags: W
LayerCount: 2
Fore
SplineSet
-79 614 m 1,0,-1
 -118 614 l 1,1,-1
 -72 766 l 1,2,-1
 -40 766 l 1,3,-1
 -79 614 l 1,0,-1
EndSplineSet
EndChar

StartChar: uni031B
Encoding: 795 795 417
Width: 0
Flags: W
LayerCount: 2
Fore
SplineSet
-20 580 m 0,1,2
 -20 540 -20 540 -46.5 515 c 128,-1,3
 -73 490 -73 490 -120 490 c 1,4,-1
 -119 521 l 1,5,6
 -88 521 -88 521 -72 537 c 128,-1,7
 -56 553 -56 553 -56 578 c 0,8,9
 -56 604 -56 604 -69 629 c 1,10,-1
 -35 643 l 1,11,0
 -20 610 -20 610 -20 580 c 0,1,2
EndSplineSet
EndChar

StartChar: dotbelowcomb
Encoding: 803 803 418
Width: 0
Flags: W
LayerCount: 2
Fore
SplineSet
-60.5 -88.5 m 128,-1,1
 -50 -99 -50 -99 -50 -114 c 0,2,3
 -50 -130 -50 -130 -60.5 -140.5 c 128,-1,4
 -71 -151 -71 -151 -85 -151 c 256,5,6
 -99 -151 -99 -151 -109.5 -140.5 c 128,-1,7
 -120 -130 -120 -130 -120 -114 c 0,8,9
 -120 -99 -120 -99 -109.5 -88.5 c 128,-1,10
 -99 -78 -99 -78 -85 -78 c 256,11,0
 -71 -78 -71 -78 -60.5 -88.5 c 128,-1,1
EndSplineSet
Substitution2: "<3,3> Small Caps in Latin lookup 11 subtable" dotbelowcomb.sc
EndChar

StartChar: uni0324
Encoding: 804 804 419
Width: 0
Flags: W
LayerCount: 2
Fore
SplineSet
-207 -87 m 128,-1,1
 -197 -97 -197 -97 -197 -112 c 0,2,3
 -197 -126 -197 -126 -207 -136.5 c 128,-1,4
 -217 -147 -217 -147 -231 -147 c 0,5,6
 -244 -147 -244 -147 -254 -136.5 c 128,-1,7
 -264 -126 -264 -126 -264 -112 c 0,8,9
 -264 -97 -264 -97 -254.5 -87 c 128,-1,10
 -245 -77 -245 -77 -231 -77 c 256,11,0
 -217 -77 -217 -77 -207 -87 c 128,-1,1
-50.5 -87 m 128,-1,13
 -41 -97 -41 -97 -41 -112 c 0,14,15
 -41 -126 -41 -126 -51 -136.5 c 128,-1,16
 -61 -147 -61 -147 -74 -147 c 0,17,18
 -88 -147 -88 -147 -98 -136.5 c 128,-1,19
 -108 -126 -108 -126 -108 -112 c 0,20,21
 -108 -97 -108 -97 -98 -87 c 128,-1,22
 -88 -77 -88 -77 -74 -77 c 256,23,12
 -60 -77 -60 -77 -50.5 -87 c 128,-1,13
EndSplineSet
Substitution2: "<3,3> Small Caps in Latin lookup 11 subtable" uni0324.sc
EndChar

StartChar: uni0326
Encoding: 806 806 420
Width: 0
Flags: W
LayerCount: 2
Fore
SplineSet
-102 -63 m 1,0,-1
 -63 -63 l 1,1,-1
 -109 -215 l 1,2,-1
 -141 -215 l 1,3,-1
 -102 -63 l 1,0,-1
EndSplineSet
EndChar

StartChar: uni0327
Encoding: 807 807 421
Width: 0
Flags: W
LayerCount: 2
Fore
SplineSet
-106 0 m 1,0,-1
 -123 -55 l 1,1,2
 -84 -57 -84 -57 -63 -78.5 c 128,-1,3
 -42 -100 -42 -100 -42 -130 c 0,4,5
 -42 -166 -42 -166 -67.5 -190 c 128,-1,6
 -93 -214 -93 -214 -137 -214 c 0,7,8
 -157 -214 -157 -214 -179 -208 c 128,-1,9
 -201 -202 -201 -202 -215 -193 c 1,10,-1
 -203 -161 l 1,11,12
 -191 -169 -191 -169 -173 -174 c 128,-1,13
 -155 -179 -155 -179 -140 -179 c 0,14,15
 -110 -179 -110 -179 -94 -163.5 c 128,-1,16
 -78 -148 -78 -148 -78 -127 c 0,17,18
 -78 -108 -78 -108 -93 -94 c 128,-1,19
 -108 -80 -108 -80 -134 -80 c 2,20,-1
 -163 -80 l 1,21,-1
 -138 6 l 1,22,-1
 -106 0 l 1,0,-1
EndSplineSet
Substitution2: "<3,3> Small Caps in Latin lookup 11 subtable" uni0327.sc
EndChar

StartChar: uni0328
Encoding: 808 808 422
Width: 0
Flags: W
LayerCount: 2
Fore
SplineSet
-31 0 m 1,0,1
 -92 -42 -92 -42 -119 -70.5 c 128,-1,2
 -146 -99 -146 -99 -146 -130 c 0,3,4
 -146 -154 -146 -154 -133 -166 c 128,-1,5
 -120 -178 -120 -178 -99 -178 c 0,6,7
 -72 -178 -72 -178 -46 -161 c 1,8,-1
 -32 -191 l 1,9,10
 -68 -214 -68 -214 -106 -214 c 0,11,12
 -142 -214 -142 -214 -163.5 -193.5 c 128,-1,13
 -185 -173 -185 -173 -185 -136 c 0,14,15
 -185 -94 -185 -94 -153.5 -57 c 128,-1,16
 -122 -20 -122 -20 -54 21 c 1,17,-1
 -31 0 l 1,0,1
EndSplineSet
EndChar

StartChar: uni032E
Encoding: 814 814 423
Width: 0
Flags: W
LayerCount: 2
Fore
SplineSet
-192 -107.5 m 128,-1,1
 -169 -130 -169 -130 -136 -130 c 256,2,3
 -103 -130 -103 -130 -80.5 -107.5 c 128,-1,4
 -58 -85 -58 -85 -56 -50 c 1,5,-1
 -23 -50 l 1,6,7
 -24 -100 -24 -100 -56.5 -132 c 128,-1,8
 -89 -164 -89 -164 -136 -164 c 256,9,10
 -183 -164 -183 -164 -215.5 -132 c 128,-1,11
 -248 -100 -248 -100 -249 -50 c 1,12,-1
 -216 -50 l 1,13,0
 -215 -85 -215 -85 -192 -107.5 c 128,-1,1
EndSplineSet
EndChar

StartChar: uni0331
Encoding: 817 817 424
Width: 0
Flags: W
LayerCount: 2
Fore
SplineSet
-295 -88 m 1,0,-1
 -30 -88 l 1,1,-1
 -30 -121 l 1,2,-1
 -295 -121 l 1,3,-1
 -295 -88 l 1,0,-1
EndSplineSet
EndChar

StartChar: uni0335
Encoding: 821 821 425
Width: 0
Flags: W
LayerCount: 2
Fore
SplineSet
-296 457 m 1,0,-1
 -3 457 l 1,1,-1
 -3 425 l 1,2,-1
 -296 425 l 1,3,-1
 -296 457 l 1,0,-1
EndSplineSet
EndChar

StartChar: uni0336
Encoding: 822 822 426
Width: 0
Flags: W
LayerCount: 2
Fore
SplineSet
-487 457 m 1,0,-1
 -117 457 l 1,1,-1
 -117 425 l 1,2,-1
 -487 425 l 1,3,-1
 -487 457 l 1,0,-1
EndSplineSet
EndChar

StartChar: uni0337
Encoding: 823 823 427
Width: 0
Flags: W
LayerCount: 2
Fore
SplineSet
-43 559 m 1,0,-1
 -198 83 l 1,1,-1
 -236 83 l 1,2,-1
 -81 559 l 1,3,-1
 -43 559 l 1,0,-1
EndSplineSet
EndChar

StartChar: uni0338
Encoding: 824 824 428
Width: 0
Flags: W
LayerCount: 2
Fore
SplineSet
-262 0 m 1,0,-1
 -22 742 l 1,1,-1
 16 742 l 1,2,-1
 -224 0 l 1,3,-1
 -262 0 l 1,0,-1
EndSplineSet
EndChar

StartChar: uni0394
Encoding: 916 916 429
Width: 698
Flags: W
LayerCount: 2
Fore
SplineSet
370 699 m 1,0,-1
 690 0 l 1,1,-1
 8 0 l 1,2,-1
 325 699 l 1,3,-1
 370 699 l 1,0,-1
71 38 m 1,4,-1
 627 38 l 1,5,-1
 347 651 l 1,6,-1
 71 38 l 1,4,-1
EndSplineSet
EndChar

StartChar: uni03A9
Encoding: 937 937 430
Width: 916
Flags: W
LayerCount: 2
Fore
SplineSet
727.5 172.5 m 128,-1,1
 778 259 778 259 778 354 c 0,2,3
 778 439 778 439 737.5 509 c 128,-1,4
 697 579 697 579 624 619.5 c 128,-1,5
 551 660 551 660 458 660 c 0,6,7
 366 660 366 660 293 619.5 c 128,-1,8
 220 579 220 579 179 509 c 128,-1,9
 138 439 138 439 138 354 c 0,10,11
 138 260 138 260 189 172.5 c 128,-1,12
 240 85 240 85 323 41 c 1,13,-1
 323 0 l 1,14,-1
 12 0 l 1,15,-1
 12 40 l 1,16,-1
 266 40 l 1,17,18
 192 90 192 90 145.5 178.5 c 128,-1,19
 99 267 99 267 99 358 c 0,20,21
 99 455 99 455 145.5 533 c 128,-1,22
 192 611 192 611 274 656 c 128,-1,23
 356 701 356 701 458 701 c 256,24,25
 560 701 560 701 642 656 c 128,-1,26
 724 611 724 611 770.5 533 c 128,-1,27
 817 455 817 455 817 358 c 0,28,29
 817 267 817 267 771 178.5 c 128,-1,30
 725 90 725 90 651 40 c 1,31,-1
 904 40 l 1,32,-1
 904 0 l 1,33,-1
 594 0 l 1,34,-1
 594 42 l 1,35,0
 677 86 677 86 727.5 172.5 c 128,-1,1
EndSplineSet
EndChar

StartChar: uni03BC
Encoding: 956 956 431
Width: 663
Flags: W
LayerCount: 2
Fore
SplineSet
559 521 m 1,0,-1
 559 0 l 1,1,-1
 518 0 l 1,2,-1
 518 139 l 1,3,4
 493 71 493 71 439.5 35.5 c 128,-1,5
 386 0 386 0 309 -1 c 0,6,7
 257 -1 257 -1 217 16 c 128,-1,8
 177 33 177 33 151 66 c 1,9,-1
 151 -194 l 1,10,-1
 110 -194 l 1,11,-1
 110 521 l 1,12,-1
 151 521 l 1,13,-1
 151 211 l 2,14,15
 151 131 151 131 195 86 c 128,-1,16
 239 41 239 41 318 41 c 0,17,18
 412 43 412 43 465 103 c 128,-1,19
 518 163 518 163 518 266 c 2,20,-1
 518 521 l 1,21,-1
 559 521 l 1,0,-1
EndSplineSet
EndChar

StartChar: pi
Encoding: 960 960 432
Width: 720
Flags: W
LayerCount: 2
Fore
SplineSet
712 484 m 1,0,-1
 538 484 l 1,1,-1
 538 0 l 1,2,-1
 501 0 l 1,3,-1
 501 484 l 1,4,-1
 280 484 l 1,5,-1
 224 0 l 1,6,-1
 187 0 l 1,7,-1
 243 484 l 1,8,-1
 165 484 l 2,9,10
 108 484 108 484 70.5 451 c 128,-1,11
 33 418 33 418 34 368 c 0,12,13
 34 323 34 323 65 281 c 1,14,-1
 35 265 l 1,15,16
 18 289 18 289 8 318 c 128,-1,17
 -2 347 -2 347 -2 375 c 0,18,19
 -2 415 -2 415 19.5 448.5 c 128,-1,20
 41 482 41 482 78.5 501.5 c 128,-1,21
 116 521 116 521 162 521 c 2,22,-1
 713 521 l 1,23,-1
 712 484 l 1,0,-1
EndSplineSet
EndChar

StartChar: uni1E08
Encoding: 7688 7688 433
Width: 703
Flags: W
LayerCount: 2
Fore
SplineSet
516 874 m 1,0,-1
 389 771 l 1,1,-1
 347 778 l 1,2,-1
 475 894 l 1,3,-1
 516 874 l 1,0,-1
462 -78.5 m 128,-1,5
 483 -100 483 -100 483 -130 c 0,6,7
 483 -166 483 -166 457.5 -190 c 128,-1,8
 432 -214 432 -214 388 -214 c 0,9,10
 368 -214 368 -214 346 -208 c 128,-1,11
 324 -202 324 -202 310 -193 c 1,12,-1
 322 -161 l 1,13,14
 334 -169 334 -169 352 -174 c 128,-1,15
 370 -179 370 -179 385 -179 c 0,16,17
 415 -179 415 -179 431 -163.5 c 128,-1,18
 447 -148 447 -148 447 -127 c 0,19,20
 447 -108 447 -108 432 -94 c 128,-1,21
 417 -80 417 -80 391 -80 c 2,22,-1
 362 -80 l 1,23,-1
 384 -3 l 1,24,25
 291 2 291 2 213.5 51 c 128,-1,26
 136 100 136 100 91 179 c 128,-1,27
 46 258 46 258 46 350 c 0,28,29
 46 446 46 446 94.5 527.5 c 128,-1,30
 143 609 143 609 226 656.5 c 128,-1,31
 309 704 309 704 407 704 c 0,32,33
 476 704 476 704 539.5 679 c 128,-1,34
 603 654 603 654 653 609 c 1,35,-1
 628 577 l 1,36,37
 584 618 584 618 527 641 c 128,-1,38
 470 664 470 664 408 664 c 0,39,40
 321 664 321 664 247.5 622 c 128,-1,41
 174 580 174 580 131 508 c 128,-1,42
 88 436 88 436 88 351 c 256,43,44
 88 266 88 266 131 194 c 128,-1,45
 174 122 174 122 247.5 79.5 c 128,-1,46
 321 37 321 37 408 37 c 0,47,48
 470 37 470 37 526.5 59.5 c 128,-1,49
 583 82 583 82 628 123 c 1,50,-1
 654 94 l 1,51,52
 607 50 607 50 545.5 24 c 128,-1,53
 484 -2 484 -2 418 -4 c 1,54,-1
 402 -55 l 1,55,4
 441 -57 441 -57 462 -78.5 c 128,-1,5
EndSplineSet
EndChar

StartChar: uni1E09
Encoding: 7689 7689 434
Width: 559
Flags: W
LayerCount: 2
Fore
SplineSet
420 760 m 1,0,-1
 293 657 l 1,1,-1
 251 664 l 1,2,-1
 379 780 l 1,3,-1
 420 760 l 1,0,-1
416 22 m 128,-1,5
 367 0 367 0 308 -1 c 1,6,-1
 291 -55 l 1,7,8
 330 -57 330 -57 351 -78.5 c 128,-1,9
 372 -100 372 -100 372 -130 c 0,10,11
 372 -166 372 -166 346.5 -190 c 128,-1,12
 321 -214 321 -214 277 -214 c 0,13,14
 257 -214 257 -214 235 -208 c 128,-1,15
 213 -202 213 -202 199 -193 c 1,16,-1
 211 -161 l 1,17,18
 223 -169 223 -169 241 -174 c 128,-1,19
 259 -179 259 -179 274 -179 c 0,20,21
 304 -179 304 -179 320 -163.5 c 128,-1,22
 336 -148 336 -148 336 -127 c 0,23,24
 336 -108 336 -108 321 -94 c 128,-1,25
 306 -80 306 -80 280 -80 c 2,26,-1
 251 -80 l 1,27,-1
 274 0 l 1,28,29
 208 6 208 6 157 41 c 128,-1,30
 106 76 106 76 77 133 c 128,-1,31
 48 190 48 190 48 260 c 0,32,33
 48 335 48 335 81 395 c 128,-1,34
 114 455 114 455 172 488.5 c 128,-1,35
 230 522 230 522 303 522 c 0,36,37
 359 522 359 522 406.5 503 c 128,-1,38
 454 484 454 484 489 449 c 1,39,-1
 465 419 l 1,40,41
 397 482 397 482 304 482 c 0,42,43
 242 482 242 482 193 454 c 128,-1,44
 144 426 144 426 116.5 375.5 c 128,-1,45
 89 325 89 325 89 261 c 0,46,47
 89 196 89 196 116.5 145 c 128,-1,48
 144 94 144 94 193 66 c 128,-1,49
 242 38 242 38 304 38 c 0,50,51
 356 38 356 38 400 57 c 128,-1,52
 444 76 444 76 474 111 c 1,53,-1
 499 84 l 1,54,4
 465 44 465 44 416 22 c 128,-1,5
EndSplineSet
Substitution2: "<3,3> Small Caps in Latin lookup 11 subtable" uni1E09.sc
EndChar

StartChar: uni1E1C
Encoding: 7708 7708 443
Width: 647
Flags: W
LayerCount: 2
Fore
SplineSet
261.5 804 m 128,-1,1
 229 836 229 836 228 886 c 1,2,-1
 261 886 l 1,3,4
 263 852 263 852 285.5 829 c 128,-1,5
 308 806 308 806 341 806 c 256,6,7
 374 806 374 806 397 829 c 128,-1,8
 420 852 420 852 421 886 c 1,9,-1
 454 886 l 1,10,11
 453 836 453 836 420.5 804 c 128,-1,12
 388 772 388 772 341 772 c 256,13,0
 294 772 294 772 261.5 804 c 128,-1,1
378 0 m 1,14,-1
 361 -55 l 1,15,16
 400 -57 400 -57 421 -78.5 c 128,-1,17
 442 -100 442 -100 442 -130 c 0,18,19
 442 -166 442 -166 416.5 -190 c 128,-1,20
 391 -214 391 -214 347 -214 c 0,21,22
 327 -214 327 -214 305 -208 c 128,-1,23
 283 -202 283 -202 269 -193 c 1,24,-1
 281 -161 l 1,25,26
 293 -169 293 -169 311 -174 c 128,-1,27
 329 -179 329 -179 344 -179 c 0,28,29
 374 -179 374 -179 390 -163.5 c 128,-1,30
 406 -148 406 -148 406 -127 c 0,31,32
 406 -108 406 -108 391 -94 c 128,-1,33
 376 -80 376 -80 350 -80 c 2,34,-1
 321 -80 l 1,35,-1
 344 0 l 1,36,-1
 120 0 l 1,37,-1
 120 699 l 1,38,-1
 571 699 l 1,39,-1
 571 658 l 1,40,-1
 162 658 l 1,41,-1
 162 379 l 1,42,-1
 526 379 l 1,43,-1
 526 337 l 1,44,-1
 162 337 l 1,45,-1
 162 41 l 1,46,-1
 584 41 l 1,47,-1
 584 0 l 1,48,-1
 378 0 l 1,14,-1
EndSplineSet
EndChar

StartChar: uni1E1D
Encoding: 7709 7709 444
Width: 589
Flags: W
LayerCount: 2
Fore
SplineSet
213.5 687 m 128,-1,1
 181 719 181 719 180 769 c 1,2,-1
 213 769 l 1,3,4
 215 735 215 735 237.5 712 c 128,-1,5
 260 689 260 689 293 689 c 256,6,7
 326 689 326 689 349 712 c 128,-1,8
 372 735 372 735 373 769 c 1,9,-1
 406 769 l 1,10,11
 405 719 405 719 372.5 687 c 128,-1,12
 340 655 340 655 293 655 c 256,13,0
 246 655 246 655 213.5 687 c 128,-1,1
432.5 487.5 m 128,-1,15
 488 453 488 453 516.5 391 c 128,-1,16
 545 329 545 329 544 249 c 1,17,-1
 89 249 l 1,18,19
 92 186 92 186 120 138 c 128,-1,20
 148 90 148 90 196 63.5 c 128,-1,21
 244 37 244 37 304 37 c 0,22,23
 357 37 357 37 402.5 55.5 c 128,-1,24
 448 74 448 74 480 109 c 1,25,-1
 504 82 l 1,26,27
 469 45 469 45 420.5 23 c 128,-1,28
 372 1 372 1 315 -1 c 1,29,-1
 298 -55 l 1,30,31
 337 -57 337 -57 358 -78.5 c 128,-1,32
 379 -100 379 -100 379 -130 c 0,33,34
 379 -166 379 -166 353.5 -190 c 128,-1,35
 328 -214 328 -214 284 -214 c 0,36,37
 264 -214 264 -214 242 -208 c 128,-1,38
 220 -202 220 -202 206 -193 c 1,39,-1
 218 -161 l 1,40,41
 230 -169 230 -169 248 -174 c 128,-1,42
 266 -179 266 -179 281 -179 c 0,43,44
 311 -179 311 -179 327 -163.5 c 128,-1,45
 343 -148 343 -148 343 -127 c 0,46,47
 343 -108 343 -108 328 -94 c 128,-1,48
 313 -80 313 -80 287 -80 c 2,49,-1
 258 -80 l 1,50,-1
 281 0 l 1,51,52
 214 4 214 4 161 38.5 c 128,-1,53
 108 73 108 73 78 130.5 c 128,-1,54
 48 188 48 188 48 260 c 0,55,56
 48 335 48 335 81 395 c 128,-1,57
 114 455 114 455 171.5 488.5 c 128,-1,58
 229 522 229 522 302 522 c 0,59,14
 377 522 377 522 432.5 487.5 c 128,-1,15
506 286 m 1,60,61
 500 376 500 376 445 430 c 128,-1,62
 390 484 390 484 302 484 c 256,63,64
 214 484 214 484 156 429.5 c 128,-1,65
 98 375 98 375 90 286 c 1,66,-1
 506 286 l 1,60,61
EndSplineSet
Substitution2: "<3,3> Small Caps in Latin lookup 11 subtable" uni1E1D.sc
EndChar

StartChar: uni1E9E
Encoding: 7838 7838 506
Width: 672
Flags: W
LayerCount: 2
Fore
SplineSet
562.5 330.5 m 128,-1,1
 617 278 617 278 617 199 c 0,2,3
 617 108 617 108 552.5 54 c 128,-1,4
 488 0 488 0 378 0 c 2,5,-1
 294 0 l 1,6,-1
 294 41 l 1,7,-1
 378 41 l 2,8,9
 468 41 468 41 521.5 84 c 128,-1,10
 575 127 575 127 575 199 c 0,11,12
 575 269 575 269 521.5 309.5 c 128,-1,13
 468 350 468 350 371 350 c 2,14,-1
 357 350 l 1,15,-1
 357 392 l 1,16,-1
 540 614 l 1,17,18
 464 659 464 659 363 659 c 0,19,20
 258 659 258 659 197.5 604 c 128,-1,21
 137 549 137 549 137 448 c 2,22,-1
 137 0 l 1,23,-1
 96 0 l 1,24,-1
 96 448 l 2,25,26
 96 568 96 568 167.5 634.5 c 128,-1,27
 239 701 239 701 363 701 c 0,28,29
 484 701 484 701 576 637 c 1,30,-1
 576 597 l 1,31,-1
 405 391 l 1,32,0
 508 383 508 383 562.5 330.5 c 128,-1,1
EndSplineSet
EndChar

StartChar: figuredash
Encoding: 8210 8210 603
Width: 617
Flags: W
LayerCount: 2
Fore
SplineSet
0 318 m 1,0,-1
 617 318 l 1,1,-1
 617 284 l 1,2,-1
 0 284 l 1,3,-1
 0 318 l 1,0,-1
EndSplineSet
EndChar

StartChar: endash
Encoding: 8211 8211 604
Width: 401
Flags: W
LayerCount: 2
Fore
SplineSet
0 318 m 1,0,-1
 401 318 l 1,1,-1
 401 284 l 1,2,-1
 0 284 l 1,3,-1
 0 318 l 1,0,-1
EndSplineSet
EndChar

StartChar: emdash
Encoding: 8212 8212 605
Width: 745
Flags: W
LayerCount: 2
Fore
SplineSet
0 318 m 1,0,-1
 745 318 l 1,1,-1
 745 284 l 1,2,-1
 0 284 l 1,3,-1
 0 318 l 1,0,-1
EndSplineSet
EndChar

StartChar: quoteleft
Encoding: 8216 8216 607
Width: 180
Flags: W
LayerCount: 2
Fore
SplineSet
103 624 m 128,-1,1
 109 615 109 615 109 604 c 0,2,3
 109 589 109 589 99 578.5 c 128,-1,4
 89 568 89 568 75 568 c 256,5,6
 61 568 61 568 51 578.5 c 128,-1,7
 41 589 41 589 41 604 c 0,8,9
 41 613 41 613 45.5 623 c 128,-1,10
 50 633 50 633 51 636 c 2,11,-1
 97 749 l 1,12,-1
 125 749 l 1,13,-1
 87 637 l 1,14,0
 97 633 97 633 103 624 c 128,-1,1
EndSplineSet
Substitution2: "<3,3> Small Caps in Latin lookup 11 subtable" quoteleft.sc
EndChar

StartChar: quoteright
Encoding: 8217 8217 608
Width: 180
Flags: W
LayerCount: 2
Fore
SplineSet
116 731.5 m 128,-1,1
 126 721 126 721 126 706 c 0,2,3
 126 697 126 697 121.5 687 c 128,-1,4
 117 677 117 677 116 674 c 2,5,-1
 70 561 l 1,6,-1
 42 561 l 1,7,-1
 80 673 l 1,8,9
 70 677 70 677 64 686 c 128,-1,10
 58 695 58 695 58 706 c 0,11,12
 58 721 58 721 68 731.5 c 128,-1,13
 78 742 78 742 92 742 c 256,14,0
 106 742 106 742 116 731.5 c 128,-1,1
EndSplineSet
Substitution2: "<3,3> Small Caps in Latin lookup 11 subtable" quoteright.sc
EndChar

StartChar: quotesinglbase
Encoding: 8218 8218 609
Width: 180
Flags: W
LayerCount: 2
Fore
SplineSet
116 53.5 m 128,-1,1
 126 43 126 43 126 28 c 0,2,3
 126 19 126 19 121.5 9 c 128,-1,4
 117 -1 117 -1 116 -4 c 2,5,-1
 70 -117 l 1,6,-1
 42 -117 l 1,7,-1
 80 -5 l 1,8,9
 70 -1 70 -1 64 8 c 128,-1,10
 58 17 58 17 58 28 c 0,11,12
 58 43 58 43 68 53.5 c 128,-1,13
 78 64 78 64 92 64 c 256,14,0
 106 64 106 64 116 53.5 c 128,-1,1
EndSplineSet
EndChar

StartChar: dagger
Encoding: 8224 8224 613
Width: 492
Flags: W
LayerCount: 2
Fore
SplineSet
226 699 m 1,0,-1
 266 699 l 1,1,-1
 266 467 l 1,2,-1
 481 467 l 1,3,-1
 481 426 l 1,4,-1
 266 426 l 1,5,-1
 266 -193 l 1,6,-1
 226 -193 l 1,7,-1
 226 426 l 1,8,-1
 11 426 l 1,9,-1
 11 467 l 1,10,-1
 226 467 l 1,11,-1
 226 699 l 1,0,-1
EndSplineSet
EndChar

StartChar: daggerdbl
Encoding: 8225 8225 614
Width: 492
Flags: W
LayerCount: 2
Fore
SplineSet
481 426 m 1,0,-1
 266 426 l 1,1,-1
 266 113 l 1,2,-1
 481 113 l 1,3,-1
 481 72 l 1,4,-1
 266 72 l 1,5,-1
 266 -193 l 1,6,-1
 226 -193 l 1,7,-1
 226 72 l 1,8,-1
 11 72 l 1,9,-1
 11 113 l 1,10,-1
 226 113 l 1,11,-1
 226 426 l 1,12,-1
 11 426 l 1,13,-1
 11 467 l 1,14,-1
 226 467 l 1,15,-1
 226 699 l 1,16,-1
 266 699 l 1,17,-1
 266 467 l 1,18,-1
 481 467 l 1,19,-1
 481 426 l 1,0,-1
EndSplineSet
EndChar

StartChar: bullet
Encoding: 8226 8226 615
Width: 215
Flags: W
LayerCount: 2
Fore
SplineSet
144 307.5 m 128,-1,1
 159 292 159 292 159 269 c 256,2,3
 159 246 159 246 144 230.5 c 128,-1,4
 129 215 129 215 107 215 c 0,5,6
 86 215 86 215 71 231 c 128,-1,7
 56 247 56 247 56 269 c 256,8,9
 56 291 56 291 71 307 c 128,-1,10
 86 323 86 323 107 323 c 0,11,0
 129 323 129 323 144 307.5 c 128,-1,1
EndSplineSet
EndChar

StartChar: ellipsis
Encoding: 8230 8230 616
Width: 516
Flags: W
LayerCount: 2
Fore
SplineSet
113.5 53 m 128,-1,1
 124 43 124 43 124 29 c 0,2,3
 124 13 124 13 113.5 2.5 c 128,-1,4
 103 -8 103 -8 89 -8 c 256,5,6
 75 -8 75 -8 65 2.5 c 128,-1,7
 55 13 55 13 55 29 c 0,8,9
 55 43 55 43 65 53 c 128,-1,10
 75 63 75 63 89 63 c 256,11,0
 103 63 103 63 113.5 53 c 128,-1,1
282.5 53 m 128,-1,13
 293 43 293 43 293 29 c 0,14,15
 293 13 293 13 282.5 2.5 c 128,-1,16
 272 -8 272 -8 258 -8 c 256,17,18
 244 -8 244 -8 234 2.5 c 128,-1,19
 224 13 224 13 224 29 c 0,20,21
 224 43 224 43 234 53 c 128,-1,22
 244 63 244 63 258 63 c 256,23,12
 272 63 272 63 282.5 53 c 128,-1,13
450.5 53 m 128,-1,25
 461 43 461 43 461 29 c 0,26,27
 461 13 461 13 450.5 2.5 c 128,-1,28
 440 -8 440 -8 426 -8 c 256,29,30
 412 -8 412 -8 402 2.5 c 128,-1,31
 392 13 392 13 392 29 c 0,32,33
 392 43 392 43 402 53 c 128,-1,34
 412 63 412 63 426 63 c 256,35,24
 440 63 440 63 450.5 53 c 128,-1,25
EndSplineSet
EndChar

StartChar: minute
Encoding: 8242 8242 618
Width: 136
Flags: W
LayerCount: 2
Fore
SplineSet
51 699 m 1,0,-1
 90 699 l 1,1,-1
 64 459 l 1,2,-1
 34 459 l 1,3,-1
 51 699 l 1,0,-1
EndSplineSet
EndChar

StartChar: guilsinglleft
Encoding: 8249 8249 620
Width: 270
Flags: W
LayerCount: 2
Fore
SplineSet
161 411 m 1,0,-1
 201 411 l 1,1,-1
 93 250 l 1,2,-1
 201 92 l 1,3,-1
 161 92 l 1,4,-1
 50 250 l 1,5,-1
 161 411 l 1,0,-1
EndSplineSet
Substitution2: "<3,3> Small Caps in Latin lookup 11 subtable" guilsinglleft.sc
Substitution2: "'rtla' Right to Left Alternates in Latin lookup 0 subtable" guilsinglright
EndChar

StartChar: guilsinglright
Encoding: 8250 8250 621
Width: 270
Flags: W
LayerCount: 2
Fore
SplineSet
109 92 m 1,0,-1
 69 92 l 1,1,-1
 177 253 l 1,2,-1
 69 411 l 1,3,-1
 109 411 l 1,4,-1
 220 253 l 1,5,-1
 109 92 l 1,0,-1
EndSplineSet
Substitution2: "<3,3> Small Caps in Latin lookup 11 subtable" guilsinglright.sc
Substitution2: "'rtla' Right to Left Alternates in Latin lookup 0 subtable" guilsinglleft
EndChar

StartChar: fraction
Encoding: 8260 8260 622
Width: 33
Flags: W
LayerCount: 2
Fore
SplineSet
256 699 m 1,0,-1
 296 699 l 1,1,-1
 -237 0 l 1,2,-1
 -277 0 l 1,3,-1
 256 699 l 1,0,-1
EndSplineSet
EndChar

StartChar: colonmonetary
Encoding: 8353 8353 640
Width: 703
Flags: W
LayerCount: 2
Fore
SplineSet
481 4 m 1,1,-1
 462 -125 l 1,2,-1
 427 -125 l 1,3,-1
 445 -2 l 1,4,5
 419 -4 419 -4 407 -4 c 0,6,7
 385 -4 385 -4 362 -1 c 1,8,-1
 344 -125 l 1,9,-1
 309 -125 l 1,10,-1
 328 5 l 1,11,12
 248 22 248 22 183.5 72 c 128,-1,13
 119 122 119 122 82.5 194.5 c 128,-1,14
 46 267 46 267 46 350 c 0,15,16
 46 434 46 434 83.5 507.5 c 128,-1,17
 121 581 121 581 187 631 c 128,-1,18
 253 681 253 681 335 697 c 1,19,-1
 353 811 l 1,20,-1
 388 811 l 1,21,-1
 371 702 l 1,22,23
 395 704 395 704 407 704 c 0,24,25
 430 704 430 704 453 701 c 1,26,-1
 471 811 l 1,27,-1
 507 811 l 1,28,-1
 488 695 l 1,29,30
 582 674 582 674 653 609 c 1,31,-1
 628 577 l 1,32,33
 584 618 584 618 527 641 c 128,-1,34
 470 664 470 664 408 664 c 0,35,36
 321 664 321 664 247.5 622 c 128,-1,37
 174 580 174 580 131 508 c 128,-1,38
 88 436 88 436 88 351 c 256,39,40
 88 266 88 266 131 194 c 128,-1,41
 174 122 174 122 247.5 79.5 c 128,-1,42
 321 37 321 37 408 37 c 0,43,44
 470 37 470 37 526.5 59.5 c 128,-1,45
 583 82 583 82 628 123 c 1,46,-1
 654 94 l 1,47,0
 581 26 581 26 481 4 c 1,1,-1
EndSplineSet
EndChar

StartChar: franc
Encoding: 8355 8355 641
Width: 551
Flags: W
LayerCount: 2
Fore
SplineSet
540 658 m 1,0,-1
 161 658 l 1,1,-1
 161 356 l 1,2,-1
 497 356 l 1,3,-1
 497 314 l 1,4,-1
 161 314 l 1,5,-1
 161 178 l 1,6,-1
 393 178 l 1,7,-1
 393 147 l 1,8,-1
 161 147 l 1,9,-1
 161 0 l 1,10,-1
 120 0 l 1,11,-1
 120 147 l 1,12,-1
 32 147 l 1,13,-1
 32 178 l 1,14,-1
 120 178 l 1,15,-1
 120 699 l 1,16,-1
 541 699 l 1,17,-1
 540 658 l 1,0,-1
EndSplineSet
EndChar

StartChar: lira
Encoding: 8356 8356 642
Width: 535
Flags: W
LayerCount: 2
Fore
SplineSet
490 39 m 1,0,-1
 490 0 l 1,1,-1
 49 0 l 1,2,-1
 49 39 l 1,3,-1
 140 39 l 1,4,-1
 140 271 l 1,5,-1
 49 271 l 1,6,-1
 49 302 l 1,7,-1
 140 302 l 1,8,-1
 140 384 l 1,9,-1
 49 384 l 1,10,-1
 49 414 l 1,11,-1
 140 414 l 1,12,-1
 140 497 l 2,13,14
 140 595 140 595 187 648 c 128,-1,15
 234 701 234 701 321 701 c 0,16,17
 373 701 373 701 419.5 676 c 128,-1,18
 466 651 466 651 501 604 c 1,19,-1
 479 571 l 1,20,21
 448 614 448 614 408.5 636.5 c 128,-1,22
 369 659 369 659 324 659 c 0,23,24
 255 659 255 659 218.5 617.5 c 128,-1,25
 182 576 182 576 182 497 c 2,26,-1
 182 414 l 1,27,-1
 370 414 l 1,28,-1
 370 384 l 1,29,-1
 182 384 l 1,30,-1
 182 302 l 1,31,-1
 370 302 l 1,32,-1
 370 271 l 1,33,-1
 182 271 l 1,34,-1
 182 39 l 1,35,-1
 490 39 l 1,0,-1
EndSplineSet
EndChar

StartChar: uni20A6
Encoding: 8358 8358 643
Width: 776
Flags: W
LayerCount: 2
Fore
SplineSet
746 384 m 1,0,-1
 658 384 l 1,1,-1
 658 302 l 1,2,-1
 746 302 l 1,3,-1
 746 271 l 1,4,-1
 658 271 l 1,5,-1
 658 0 l 1,6,-1
 609 0 l 1,7,-1
 418 271 l 1,8,-1
 159 271 l 1,9,-1
 159 0 l 1,10,-1
 118 0 l 1,11,-1
 118 271 l 1,12,-1
 21 271 l 1,13,-1
 21 302 l 1,14,-1
 118 302 l 1,15,-1
 118 384 l 1,16,-1
 21 384 l 1,17,-1
 21 414 l 1,18,-1
 118 414 l 1,19,-1
 118 699 l 1,20,-1
 167 699 l 1,21,-1
 368 414 l 1,22,-1
 617 414 l 1,23,-1
 617 699 l 1,24,-1
 658 699 l 1,25,-1
 658 414 l 1,26,-1
 746 414 l 1,27,-1
 746 384 l 1,0,-1
316 414 m 1,28,-1
 159 637 l 1,29,-1
 159 414 l 1,30,-1
 316 414 l 1,28,-1
159 302 m 1,31,-1
 396 302 l 1,32,-1
 338 384 l 1,33,-1
 159 384 l 1,34,-1
 159 302 l 1,31,-1
617 384 m 1,35,-1
 390 384 l 1,36,-1
 448 302 l 1,37,-1
 617 302 l 1,38,-1
 617 384 l 1,35,-1
469 271 m 1,39,-1
 617 62 l 1,40,-1
 617 271 l 1,41,-1
 469 271 l 1,39,-1
EndSplineSet
EndChar

StartChar: peseta
Encoding: 8359 8359 644
Width: 1381
Flags: W
LayerCount: 2
Fore
SplineSet
528.5 639 m 128,-1,1
 599 579 599 579 599 469 c 0,2,3
 599 356 599 356 528.5 294.5 c 128,-1,4
 458 233 458 233 329 233 c 2,5,-1
 162 233 l 1,6,-1
 162 0 l 1,7,-1
 120 0 l 1,8,-1
 120 699 l 1,9,-1
 329 699 l 2,10,0
 458 699 458 699 528.5 639 c 128,-1,1
498 324.5 m 128,-1,12
 558 375 558 375 558 469 c 0,13,14
 558 560 558 560 498 609 c 128,-1,15
 438 658 438 658 328 658 c 2,16,-1
 162 658 l 1,17,-1
 162 274 l 1,18,-1
 328 274 l 2,19,11
 438 274 438 274 498 324.5 c 128,-1,12
930 70 m 1,21,-1
 945 36 l 1,22,23
 892 -1 892 -1 835 -1 c 0,24,25
 779 -1 779 -1 748.5 35.5 c 128,-1,26
 718 72 718 72 718 144 c 2,27,-1
 718 472 l 1,28,-1
 643 472 l 1,29,-1
 643 508 l 1,30,-1
 718 508 l 1,31,-1
 718 637 l 1,32,-1
 759 637 l 1,33,-1
 759 508 l 1,34,-1
 933 508 l 1,35,-1
 933 472 l 1,36,-1
 759 472 l 1,37,-1
 759 149 l 2,38,39
 759 40 759 40 840 40 c 0,40,20
 886 40 886 40 930 70 c 1,21,-1
1058 344 m 128,-1,42
 1076 324 1076 324 1103.5 313 c 128,-1,43
 1131 302 1131 302 1177 288 c 0,44,45
 1231 272 1231 272 1264 257 c 128,-1,46
 1297 242 1297 242 1320.5 214 c 128,-1,47
 1344 186 1344 186 1344 140 c 0,48,49
 1344 71 1344 71 1292 35 c 128,-1,50
 1240 -1 1240 -1 1164 -1 c 0,51,52
 1108 -1 1108 -1 1058 18 c 128,-1,53
 1008 37 1008 37 972 71 c 1,54,-1
 991 103 l 1,55,56
 1025 71 1025 71 1070.5 54 c 128,-1,57
 1116 37 1116 37 1165 37 c 0,58,59
 1225 37 1225 37 1264.5 62 c 128,-1,60
 1304 87 1304 87 1304 135 c 0,61,62
 1304 167 1304 167 1285.5 187.5 c 128,-1,63
 1267 208 1267 208 1239 220 c 128,-1,64
 1211 232 1211 232 1164 246 c 0,65,66
 1110 263 1110 263 1078 277.5 c 128,-1,67
 1046 292 1046 292 1023 319.5 c 128,-1,68
 1000 347 1000 347 1000 391 c 0,69,70
 1000 456 1000 456 1048.5 489 c 128,-1,71
 1097 522 1097 522 1171 522 c 0,72,73
 1254 522 1254 522 1320 481 c 1,74,-1
 1303 447 l 1,75,76
 1245 484 1245 484 1170 484 c 0,77,78
 1112 484 1112 484 1076 461.5 c 128,-1,79
 1040 439 1040 439 1040 394 c 0,80,41
 1040 364 1040 364 1058 344 c 128,-1,42
EndSplineSet
EndChar

StartChar: uni20A9
Encoding: 8361 8361 645
Width: 893
Flags: W
LayerCount: 2
Fore
SplineSet
882 699 m 1,0,-1
 798 414 l 1,1,-1
 878 414 l 1,2,-1
 878 384 l 1,3,-1
 789 384 l 1,4,-1
 765 302 l 1,5,-1
 868 302 l 1,6,-1
 868 271 l 1,7,-1
 756 271 l 1,8,-1
 676 0 l 1,9,-1
 632 0 l 1,10,-1
 554 271 l 1,11,-1
 340 271 l 1,12,-1
 261 0 l 1,13,-1
 218 0 l 1,14,-1
 138 271 l 1,15,-1
 26 271 l 1,16,-1
 26 302 l 1,17,-1
 129 302 l 1,18,-1
 105 384 l 1,19,-1
 16 384 l 1,20,-1
 16 414 l 1,21,-1
 96 414 l 1,22,-1
 12 699 l 1,23,-1
 57 699 l 1,24,-1
 138 414 l 1,25,-1
 345 414 l 1,26,-1
 426 699 l 1,27,-1
 469 699 l 1,28,-1
 550 414 l 1,29,-1
 758 414 l 1,30,-1
 838 699 l 1,31,-1
 882 699 l 1,0,-1
447 641 m 1,32,-1
 381 414 l 1,33,-1
 513 414 l 1,34,-1
 447 641 l 1,32,-1
146 384 m 1,35,-1
 169 302 l 1,36,-1
 313 302 l 1,37,-1
 337 384 l 1,38,-1
 146 384 l 1,35,-1
349 302 m 1,39,-1
 545 302 l 1,40,-1
 521 384 l 1,41,-1
 373 384 l 1,42,-1
 349 302 l 1,39,-1
726 302 m 1,43,-1
 749 384 l 1,44,-1
 559 384 l 1,45,-1
 582 302 l 1,46,-1
 726 302 l 1,43,-1
241 48 m 1,47,-1
 304 271 l 1,48,-1
 178 271 l 1,49,-1
 241 48 l 1,47,-1
655 48 m 1,50,-1
 718 271 l 1,51,-1
 591 271 l 1,52,-1
 655 48 l 1,50,-1
EndSplineSet
EndChar

StartChar: dong
Encoding: 8363 8363 646
Width: 672
Flags: W
LayerCount: 2
Fore
SplineSet
640 595 m 1,0,-1
 566 595 l 1,1,-1
 566 0 l 1,2,-1
 524 0 l 1,3,-1
 524 136 l 1,4,5
 494 71 494 71 436 34 c 128,-1,6
 378 -3 378 -3 302 -3 c 0,7,8
 229 -3 229 -3 171 31 c 128,-1,9
 113 65 113 65 80.5 124.5 c 128,-1,10
 48 184 48 184 48 260 c 256,11,12
 48 336 48 336 80.5 396 c 128,-1,13
 113 456 113 456 170.5 490 c 128,-1,14
 228 524 228 524 301 524 c 0,15,16
 378 524 378 524 436 487 c 128,-1,17
 494 450 494 450 524 385 c 1,18,-1
 524 595 l 1,19,-1
 357 595 l 1,20,-1
 357 626 l 1,21,-1
 524 626 l 1,22,-1
 524 742 l 1,23,-1
 566 742 l 1,24,-1
 566 626 l 1,25,-1
 640 626 l 1,26,-1
 640 595 l 1,0,-1
418.5 65 m 128,-1,28
 468 94 468 94 496 145 c 128,-1,29
 524 196 524 196 524 260 c 256,30,31
 524 324 524 324 496 375 c 128,-1,32
 468 426 468 426 418.5 455 c 128,-1,33
 369 484 369 484 307 484 c 256,34,35
 245 484 245 484 195.5 455 c 128,-1,36
 146 426 146 426 117.5 375 c 128,-1,37
 89 324 89 324 89 260 c 256,38,39
 89 196 89 196 117 145 c 128,-1,40
 145 94 145 94 194.5 65 c 128,-1,41
 244 36 244 36 307 36 c 0,42,27
 369 36 369 36 418.5 65 c 128,-1,28
126 -100 m 1,43,-1
 126 -69 l 1,44,-1
 532 -69 l 1,45,-1
 532 -100 l 1,46,-1
 126 -100 l 1,43,-1
EndSplineSet
EndChar

StartChar: Euro
Encoding: 8364 8364 647
Width: 795
Flags: W
LayerCount: 2
Fore
SplineSet
746 96 m 1,0,1
 696 50 696 50 632 24.5 c 128,-1,2
 568 -1 568 -1 499 -1 c 0,3,4
 415 -1 415 -1 341.5 34.5 c 128,-1,5
 268 70 268 70 217 132 c 128,-1,6
 166 194 166 194 148 271 c 1,7,-1
 49 271 l 1,8,-1
 49 302 l 1,9,-1
 142 302 l 1,10,11
 139 326 139 326 139 350 c 0,12,13
 139 362 139 362 141 384 c 1,14,-1
 49 384 l 1,15,-1
 49 414 l 1,16,-1
 145 414 l 1,17,18
 160 495 160 495 211 560 c 128,-1,19
 262 625 262 625 337.5 662.5 c 128,-1,20
 413 700 413 700 500 700 c 0,21,22
 569 700 569 700 632.5 675 c 128,-1,23
 696 650 696 650 745 606 c 1,24,-1
 720 574 l 1,25,26
 676 615 676 615 619 637.5 c 128,-1,27
 562 660 562 660 500 660 c 0,28,29
 424 660 424 660 358 628 c 128,-1,30
 292 596 292 596 247 540 c 128,-1,31
 202 484 202 484 187 414 c 1,32,-1
 494 414 l 1,33,-1
 494 384 l 1,34,-1
 182 384 l 1,35,36
 180 362 180 362 180 351 c 0,37,38
 180 323 180 323 184 302 c 1,39,-1
 494 302 l 1,40,-1
 494 271 l 1,41,-1
 191 271 l 1,42,43
 209 205 209 205 254 152.5 c 128,-1,44
 299 100 299 100 363 70 c 128,-1,45
 427 40 427 40 500 40 c 0,46,47
 562 40 562 40 619 62.5 c 128,-1,48
 676 85 676 85 720 125 c 1,49,-1
 746 96 l 1,0,1
EndSplineSet
EndChar

StartChar: uni20AD
Encoding: 8365 8365 648
Width: 633
Flags: W
LayerCount: 2
Fore
SplineSet
549 0 m 1,0,-1
 128 335 l 1,1,-1
 125 335 l 1,2,-1
 125 0 l 1,3,-1
 83 0 l 1,4,-1
 83 335 l 1,5,-1
 -5 335 l 1,6,-1
 -5 366 l 1,7,-1
 83 366 l 1,8,-1
 83 699 l 1,9,-1
 125 699 l 1,10,-1
 125 366 l 1,11,-1
 129 366 l 1,12,-1
 529 699 l 1,13,-1
 585 699 l 1,14,-1
 180 366 l 1,15,-1
 490 366 l 1,16,-1
 490 335 l 1,17,-1
 181 335 l 1,18,-1
 606 0 l 1,19,-1
 549 0 l 1,0,-1
EndSplineSet
EndChar

StartChar: uni20B1
Encoding: 8369 8369 649
Width: 742
Flags: W
LayerCount: 2
Fore
SplineSet
717 509 m 1,0,-1
 634 509 l 1,1,2
 637 490 637 490 637 469 c 0,3,4
 637 447 637 447 634 427 c 1,5,-1
 717 427 l 1,6,-1
 717 396 l 1,7,-1
 628 396 l 1,8,9
 607 317 607 317 540 275 c 128,-1,10
 473 233 473 233 368 233 c 2,11,-1
 163 233 l 1,12,-1
 163 0 l 1,13,-1
 121 0 l 1,14,-1
 121 396 l 1,15,-1
 34 396 l 1,16,-1
 34 427 l 1,17,-1
 121 427 l 1,18,-1
 121 509 l 1,19,-1
 34 509 l 1,20,-1
 34 539 l 1,21,-1
 121 539 l 1,22,-1
 121 699 l 1,23,-1
 368 699 l 2,24,25
 474 699 474 699 541 657.5 c 128,-1,26
 608 616 608 616 628 539 c 1,27,-1
 717 539 l 1,28,-1
 717 509 l 1,0,-1
163 539 m 1,29,-1
 585 539 l 1,30,31
 565 597 565 597 509 627.5 c 128,-1,32
 453 658 453 658 367 658 c 2,33,-1
 163 658 l 1,34,-1
 163 539 l 1,29,-1
593 509 m 1,36,-1
 163 509 l 1,37,-1
 163 427 l 1,38,-1
 593 427 l 1,39,40
 596 447 596 447 596 469 c 0,41,35
 596 490 596 490 593 509 c 1,36,-1
509 305.5 m 128,-1,43
 565 337 565 337 585 396 c 1,44,-1
 163 396 l 1,45,-1
 163 274 l 1,46,-1
 367 274 l 2,47,42
 453 274 453 274 509 305.5 c 128,-1,43
EndSplineSet
EndChar

StartChar: uni20B2
Encoding: 8370 8370 650
Width: 728
Flags: W
LayerCount: 2
Fore
SplineSet
617 343 m 1,0,-1
 655 343 l 1,1,-1
 655 88 l 1,2,3
 608 46 608 46 546.5 22 c 128,-1,4
 485 -2 485 -2 419 -4 c 1,5,-1
 419 -125 l 1,6,-1
 384 -125 l 1,7,-1
 384 -3 l 1,8,9
 291 2 291 2 213.5 51 c 128,-1,10
 136 100 136 100 91 179.5 c 128,-1,11
 46 259 46 259 46 351 c 256,12,13
 46 443 46 443 91 521.5 c 128,-1,14
 136 600 136 600 213.5 648.5 c 128,-1,15
 291 697 291 697 384 703 c 1,16,-1
 384 811 l 1,17,-1
 419 811 l 1,18,-1
 419 704 l 1,19,20
 486 702 486 702 546.5 677.5 c 128,-1,21
 607 653 607 653 655 611 c 1,22,-1
 630 580 l 1,23,24
 586 620 586 620 529 642 c 128,-1,25
 472 664 472 664 409 664 c 0,26,27
 322 664 322 664 248.5 621.5 c 128,-1,28
 175 579 175 579 131.5 507.5 c 128,-1,29
 88 436 88 436 88 351 c 0,30,31
 88 265 88 265 131 193 c 128,-1,32
 174 121 174 121 248 78.5 c 128,-1,33
 322 36 322 36 409 36 c 0,34,35
 466 36 466 36 520 55 c 128,-1,36
 574 74 574 74 617 109 c 1,37,-1
 617 343 l 1,0,-1
EndSplineSet
EndChar

StartChar: uni20B5
Encoding: 8373 8373 651
Width: 703
Flags: W
LayerCount: 2
Fore
SplineSet
544.5 23.5 m 128,-1,1
 483 -2 483 -2 417 -4 c 1,2,-1
 417 -125 l 1,3,-1
 382 -125 l 1,4,-1
 382 -3 l 1,5,6
 290 3 290 3 213 51.5 c 128,-1,7
 136 100 136 100 91 179 c 128,-1,8
 46 258 46 258 46 350 c 256,9,10
 46 442 46 442 91 521 c 128,-1,11
 136 600 136 600 213 648.5 c 128,-1,12
 290 697 290 697 382 703 c 1,13,-1
 382 811 l 1,14,-1
 417 811 l 1,15,-1
 417 704 l 1,16,17
 484 702 484 702 544.5 677 c 128,-1,18
 605 652 605 652 653 609 c 1,19,-1
 628 577 l 1,20,21
 584 618 584 618 527 641 c 128,-1,22
 470 664 470 664 408 664 c 0,23,24
 321 664 321 664 247.5 622 c 128,-1,25
 174 580 174 580 131 508 c 128,-1,26
 88 436 88 436 88 351 c 256,27,28
 88 266 88 266 131 194 c 128,-1,29
 174 122 174 122 247.5 79.5 c 128,-1,30
 321 37 321 37 408 37 c 0,31,32
 470 37 470 37 526.5 59.5 c 128,-1,33
 583 82 583 82 628 123 c 1,34,-1
 654 94 l 1,35,0
 606 49 606 49 544.5 23.5 c 128,-1,1
EndSplineSet
EndChar

StartChar: uni20B9
Encoding: 8377 8377 652
Width: 622
Flags: W
LayerCount: 2
Fore
SplineSet
607 658 m 1,0,-1
 430 658 l 1,1,2
 477 631 477 631 502.5 586.5 c 128,-1,3
 528 542 528 542 531 482 c 1,4,-1
 607 482 l 1,5,-1
 607 451 l 1,6,-1
 531 451 l 1,7,8
 527 382 527 382 495 334 c 128,-1,9
 463 286 463 286 405 260 c 1,10,-1
 607 0 l 1,11,-1
 558 0 l 1,12,-1
 366 246 l 1,13,14
 321 233 321 233 261 233 c 2,15,-1
 38 233 l 1,16,-1
 38 274 l 1,17,-1
 261 274 l 2,18,19
 366 274 366 274 425.5 319.5 c 128,-1,20
 485 365 485 365 490 451 c 1,21,-1
 38 451 l 1,22,-1
 38 482 l 1,23,-1
 491 482 l 1,24,25
 487 567 487 567 427 612.5 c 128,-1,26
 367 658 367 658 261 658 c 2,27,-1
 38 658 l 1,28,-1
 38 699 l 1,29,-1
 607 699 l 1,30,-1
 607 658 l 1,0,-1
EndSplineSet
EndChar

StartChar: uni20BA
Encoding: 8378 8378 653
Width: 646
Flags: W
LayerCount: 2
Fore
SplineSet
622 349 m 1,0,1
 622 241 622 241 579 162 c 128,-1,2
 536 83 536 83 455 41.5 c 128,-1,3
 374 0 374 0 262 0 c 2,4,-1
 140 0 l 1,5,-1
 140 363 l 1,6,-1
 42 336 l 1,7,-1
 42 369 l 1,8,-1
 140 396 l 1,9,-1
 140 485 l 1,10,-1
 42 458 l 1,11,-1
 42 490 l 1,12,-1
 140 517 l 1,13,-1
 140 699 l 1,14,-1
 181 699 l 1,15,-1
 181 528 l 1,16,-1
 559 633 l 1,17,-1
 559 601 l 1,18,-1
 181 496 l 1,19,-1
 181 407 l 1,20,-1
 559 512 l 1,21,-1
 559 479 l 1,22,-1
 181 374 l 1,23,-1
 181 42 l 1,24,-1
 264 42 l 2,25,26
 413 42 413 42 496.5 123 c 128,-1,27
 580 204 580 204 580 349 c 1,28,-1
 622 349 l 1,0,1
EndSplineSet
EndChar

StartChar: uni20BC
Encoding: 8380 8380 654
Width: 723
Flags: W
LayerCount: 2
Fore
SplineSet
541 557.5 m 128,-1,1
 610 512 610 512 648 435.5 c 128,-1,2
 686 359 686 359 686 265 c 2,3,-1
 686 0 l 1,4,-1
 643 0 l 1,5,-1
 643 265 l 2,6,7
 643 347 643 347 610.5 414 c 128,-1,8
 578 481 578 481 519 521.5 c 128,-1,9
 460 562 460 562 383 567 c 1,10,-1
 383 0 l 1,11,-1
 341 0 l 1,12,-1
 341 567 l 1,13,14
 264 562 264 562 205 521.5 c 128,-1,15
 146 481 146 481 113 414 c 128,-1,16
 80 347 80 347 80 265 c 2,17,-1
 80 0 l 1,18,-1
 38 0 l 1,19,-1
 38 265 l 2,20,21
 38 359 38 359 76 435.5 c 128,-1,22
 114 512 114 512 183 557.5 c 128,-1,23
 252 603 252 603 341 608 c 1,24,-1
 341 699 l 1,25,-1
 383 699 l 1,26,-1
 383 608 l 1,27,0
 472 603 472 603 541 557.5 c 128,-1,1
EndSplineSet
EndChar

StartChar: uni20BD
Encoding: 8381 8381 655
Width: 664
Flags: W
LayerCount: 2
Fore
SplineSet
162 244 m 1,0,-1
 162 164 l 1,1,-1
 429 164 l 1,2,-1
 429 134 l 1,3,-1
 162 134 l 1,4,-1
 162 0 l 1,5,-1
 120 0 l 1,6,-1
 120 134 l 1,7,-1
 32 134 l 1,8,-1
 32 164 l 1,9,-1
 120 164 l 1,10,-1
 120 699 l 1,11,-1
 366 699 l 2,12,13
 495 699 495 699 565.5 640.5 c 128,-1,14
 636 582 636 582 636 475 c 0,15,16
 636 365 636 365 565.5 304.5 c 128,-1,17
 495 244 495 244 366 244 c 2,18,-1
 162 244 l 1,0,-1
535 610.5 m 128,-1,20
 475 658 475 658 365 658 c 2,21,-1
 162 658 l 1,22,-1
 162 285 l 1,23,-1
 365 285 l 2,24,25
 475 285 475 285 535 334 c 128,-1,26
 595 383 595 383 595 474 c 0,27,19
 595 563 595 563 535 610.5 c 128,-1,20
EndSplineSet
EndChar

StartChar: uni2113
Encoding: 8467 8467 656
Width: 463
Flags: W
LayerCount: 2
Fore
SplineSet
235 659.5 m 128,-1,1
 274 701 274 701 325 701 c 0,2,3
 366 701 366 701 393 673.5 c 128,-1,4
 420 646 420 646 420 593 c 0,5,6
 420 512 420 512 352.5 414 c 128,-1,7
 285 316 285 316 160 218 c 1,8,9
 152 168 152 168 152 136 c 0,10,11
 152 85 152 85 171.5 60 c 128,-1,12
 191 35 191 35 236 35 c 0,13,14
 282 35 282 35 322 59 c 128,-1,15
 362 83 362 83 402 131 c 1,16,-1
 422 110 l 1,17,18
 334 -1 334 -1 231 -1 c 0,19,20
 171 -1 171 -1 144.5 33.5 c 128,-1,21
 118 68 118 68 118 134 c 0,22,23
 118 150 118 150 122 190 c 1,24,-1
 61 143 l 1,25,-1
 48 168 l 1,26,-1
 128 230 l 1,27,-1
 180 538 l 2,28,0
 196 618 196 618 235 659.5 c 128,-1,1
332 435 m 128,-1,30
 390 524 390 524 390 593 c 0,31,32
 390 631 390 631 371.5 650.5 c 128,-1,33
 353 670 353 670 325 670 c 0,34,35
 288 670 288 670 258 636.5 c 128,-1,36
 228 603 228 603 215 537 c 2,37,-1
 167 262 l 1,38,29
 274 346 274 346 332 435 c 128,-1,30
EndSplineSet
EndChar

StartChar: trademark
Encoding: 8482 8482 658
Width: 863
Flags: W
LayerCount: 2
Fore
SplineSet
-1 699 m 1,0,-1
 307 699 l 1,1,-1
 307 666 l 1,2,-1
 170 666 l 1,3,-1
 170 280 l 1,4,-1
 136 280 l 1,5,-1
 136 666 l 1,6,-1
 -1 666 l 1,7,-1
 -1 699 l 1,0,-1
382 699 m 1,8,-1
 429 699 l 1,9,-1
 590 377 l 1,10,-1
 750 699 l 1,11,-1
 797 699 l 1,12,-1
 797 280 l 1,13,-1
 765 280 l 1,14,-1
 764 654 l 1,15,-1
 599 325 l 1,16,-1
 579 325 l 1,17,-1
 415 654 l 1,18,-1
 415 280 l 1,19,-1
 382 280 l 1,20,-1
 382 699 l 1,8,-1
EndSplineSet
EndChar

StartChar: estimated
Encoding: 8494 8494 660
Width: 809
Flags: W
LayerCount: 2
Fore
SplineSet
192 308 m 2,1,-1
 192 144 l 2,2,3
 192 135 192 135 200 125 c 0,4,5
 239 83 239 83 292.5 59.5 c 128,-1,6
 346 36 346 36 406 36 c 0,7,8
 469 36 469 36 525.5 62.5 c 128,-1,9
 582 89 582 89 621 135 c 1,10,-1
 670 135 l 1,11,12
 624 81 624 81 554 49.5 c 128,-1,13
 484 18 484 18 405 18 c 0,14,15
 314 18 314 18 237 58.5 c 128,-1,16
 160 99 160 99 115 168 c 128,-1,17
 70 237 70 237 70 319 c 256,18,19
 70 401 70 401 115 470.5 c 128,-1,20
 160 540 160 540 237 580.5 c 128,-1,21
 314 621 314 621 405 621 c 256,22,23
 496 621 496 621 573 580.5 c 128,-1,24
 650 540 650 540 695 470.5 c 128,-1,25
 740 401 740 401 740 319 c 2,26,-1
 740 312 l 1,27,-1
 197 312 l 2,28,0
 192 312 192 312 192 308 c 2,1,-1
609 518 m 0,30,31
 569 558 569 558 516.5 580.5 c 128,-1,32
 464 603 464 603 406 603 c 0,33,34
 347 603 347 603 294 579.5 c 128,-1,35
 241 556 241 556 201 515 c 0,36,37
 192 506 192 506 192 495 c 2,38,-1
 192 333 l 2,39,40
 192 328 192 328 197 328 c 2,41,-1
 613 328 l 2,42,43
 618 328 618 328 618 333 c 2,44,-1
 618 498 l 2,45,29
 618 509 618 509 609 518 c 0,30,31
EndSplineSet
EndChar

StartChar: arrowleft
Encoding: 8592 8592 667
Width: 600
Flags: W
LayerCount: 2
Fore
SplineSet
515 290 m 1,0,-1
 515 253 l 1,1,-1
 179 253 l 1,2,-1
 293 87 l 1,3,-1
 249 87 l 1,4,-1
 121 271 l 1,5,-1
 249 457 l 1,6,-1
 293 457 l 1,7,-1
 180 290 l 1,8,-1
 515 290 l 1,0,-1
EndSplineSet
EndChar

StartChar: arrowup
Encoding: 8593 8593 668
Width: 600
Flags: W
LayerCount: 2
Fore
SplineSet
484 344 m 1,0,-1
 484 298 l 1,1,-1
 318 410 l 1,2,-1
 318 77 l 1,3,-1
 281 77 l 1,4,-1
 281 412 l 1,5,-1
 116 298 l 1,6,-1
 116 344 l 1,7,-1
 298 473 l 1,8,-1
 484 344 l 1,0,-1
EndSplineSet
EndChar

StartChar: arrowright
Encoding: 8594 8594 669
Width: 600
Flags: W
LayerCount: 2
Fore
SplineSet
351 456 m 1,0,-1
 479 272 l 1,1,-1
 351 86 l 1,2,-1
 307 86 l 1,3,-1
 420 253 l 1,4,-1
 85 253 l 1,5,-1
 85 290 l 1,6,-1
 421 290 l 1,7,-1
 307 456 l 1,8,-1
 351 456 l 1,0,-1
EndSplineSet
EndChar

StartChar: arrowdown
Encoding: 8595 8595 670
Width: 600
Flags: W
LayerCount: 2
Fore
SplineSet
338 132 m 1,0,-1
 503 246 l 1,1,-1
 503 200 l 1,2,-1
 321 71 l 1,3,-1
 135 200 l 1,4,-1
 135 246 l 1,5,-1
 301 134 l 1,6,-1
 301 467 l 1,7,-1
 338 467 l 1,8,-1
 338 132 l 1,0,-1
EndSplineSet
EndChar

StartChar: arrowboth
Encoding: 8596 8596 671
Width: 627
Flags: W
LayerCount: 2
Fore
SplineSet
448 457 m 1,0,-1
 577 271 l 1,1,-1
 448 87 l 1,2,-1
 404 87 l 1,3,-1
 518 253 l 1,4,-1
 108 253 l 1,5,-1
 223 87 l 1,6,-1
 179 87 l 1,7,-1
 50 271 l 1,8,-1
 179 457 l 1,9,-1
 223 457 l 1,10,-1
 109 290 l 1,11,-1
 517 290 l 1,12,-1
 404 457 l 1,13,-1
 448 457 l 1,0,-1
EndSplineSet
EndChar

StartChar: arrowupdn
Encoding: 8597 8597 672
Width: 600
Flags: W
LayerCount: 2
Fore
SplineSet
484 441 m 1,0,-1
 318 553 l 1,1,-1
 318 132 l 1,2,-1
 483 246 l 1,3,-1
 483 200 l 1,4,-1
 300 71 l 1,5,-1
 115 200 l 1,6,-1
 115 246 l 1,7,-1
 281 133 l 1,8,-1
 281 555 l 1,9,-1
 116 441 l 1,10,-1
 116 487 l 1,11,-1
 298 616 l 1,12,-1
 484 487 l 1,13,-1
 484 441 l 1,0,-1
EndSplineSet
EndChar

StartChar: uni2196
Encoding: 8598 8598 673
Width: 600
Flags: W
LayerCount: 2
Fore
SplineSet
465 153 m 1,0,-1
 439 127 l 1,1,-1
 202 364 l 1,2,-1
 166 167 l 1,3,-1
 134 199 l 1,4,-1
 171 419 l 1,5,-1
 394 459 l 1,6,-1
 427 427 l 1,7,-1
 229 389 l 1,8,-1
 465 153 l 1,0,-1
EndSplineSet
EndChar

StartChar: uni2197
Encoding: 8599 8599 674
Width: 600
Flags: W
LayerCount: 2
Fore
SplineSet
480 193 m 1,0,-1
 448 160 l 1,1,-1
 410 358 l 1,2,-1
 174 122 l 1,3,-1
 148 148 l 1,4,-1
 385 385 l 1,5,-1
 188 421 l 1,6,-1
 220 453 l 1,7,-1
 440 416 l 1,8,-1
 480 193 l 1,0,-1
EndSplineSet
EndChar

StartChar: uni2198
Encoding: 8600 8600 675
Width: 600
Flags: W
LayerCount: 2
Fore
SplineSet
448 397 m 1,0,-1
 480 365 l 1,1,-1
 443 145 l 1,2,-1
 220 105 l 1,3,-1
 187 137 l 1,4,-1
 385 175 l 1,5,-1
 149 411 l 1,6,-1
 175 437 l 1,7,-1
 412 200 l 1,8,-1
 448 397 l 1,0,-1
EndSplineSet
EndChar

StartChar: uni2199
Encoding: 8601 8601 676
Width: 600
Flags: W
LayerCount: 2
Fore
SplineSet
466 416 m 1,0,-1
 229 179 l 1,1,-1
 426 143 l 1,2,-1
 394 111 l 1,3,-1
 174 148 l 1,4,-1
 134 371 l 1,5,-1
 166 404 l 1,6,-1
 204 206 l 1,7,-1
 440 442 l 1,8,-1
 466 416 l 1,0,-1
EndSplineSet
EndChar

StartChar: partialdiff
Encoding: 8706 8706 677
Width: 589
Flags: W
LayerCount: 2
Fore
SplineSet
168 685 m 128,-1,1
 218 700 218 700 263 700 c 0,2,3
 346 700 346 700 408 654.5 c 128,-1,4
 470 609 470 609 503 526.5 c 128,-1,5
 536 444 536 444 536 334 c 0,6,7
 536 173 536 173 466.5 86 c 128,-1,8
 397 -1 397 -1 273 -1 c 0,9,10
 170 -1 170 -1 108.5 59.5 c 128,-1,11
 47 120 47 120 47 224 c 0,12,13
 47 325 47 325 106 383.5 c 128,-1,14
 165 442 165 442 266 442 c 0,15,16
 355 442 355 442 415 396 c 128,-1,17
 475 350 475 350 492 270 c 1,18,19
 495 305 495 305 495 336 c 0,20,21
 495 489 495 489 433 575 c 128,-1,22
 371 661 371 661 260 661 c 0,23,24
 218 661 218 661 174 647 c 128,-1,25
 130 633 130 633 93 609 c 1,26,-1
 75 644 l 1,27,0
 118 670 118 670 168 685 c 128,-1,1
137 355.5 m 128,-1,29
 87 308 87 308 87 226 c 0,30,31
 87 140 87 140 140 89.5 c 128,-1,32
 193 39 193 39 279 39 c 0,33,34
 343 39 343 39 387 67 c 128,-1,35
 431 95 431 95 452.5 136.5 c 128,-1,36
 474 178 474 178 474 219 c 0,37,38
 474 268 474 268 449.5 310 c 128,-1,39
 425 352 425 352 378.5 377.5 c 128,-1,40
 332 403 332 403 271 403 c 0,41,28
 187 403 187 403 137 355.5 c 128,-1,29
EndSplineSet
EndChar

StartChar: emptyset
Encoding: 8709 8709 678
Width: 508
Flags: W
LayerCount: 2
Fore
SplineSet
409 444 m 1,0,1
 452 390 452 390 452 321 c 0,2,3
 452 268 452 268 425.5 222.5 c 128,-1,4
 399 177 399 177 353.5 150.5 c 128,-1,5
 308 124 308 124 255 124 c 0,6,7
 217 124 217 124 182.5 138 c 128,-1,8
 148 152 148 152 121 177 c 1,9,-1
 41 102 l 1,10,-1
 22 123 l 1,11,-1
 102 197 l 1,12,13
 59 251 59 251 59 321 c 0,14,15
 59 375 59 375 85 420.5 c 128,-1,16
 111 466 111 466 156 492.5 c 128,-1,17
 201 519 201 519 255 519 c 0,18,19
 293 519 293 519 328 504.5 c 128,-1,20
 363 490 363 490 391 464 c 1,21,-1
 469 537 l 1,22,-1
 487 517 l 1,23,-1
 409 444 l 1,0,1
127 221 m 1,25,-1
 365 441 l 1,26,27
 343 461 343 461 314.5 472 c 128,-1,28
 286 483 286 483 255 483 c 0,29,30
 211 483 211 483 173.5 461 c 128,-1,31
 136 439 136 439 114 402 c 128,-1,32
 92 365 92 365 92 321 c 0,33,24
 92 264 92 264 127 221 c 1,25,-1
384 421 m 1,35,-1
 147 200 l 1,36,37
 169 181 169 181 196.5 170 c 128,-1,38
 224 159 224 159 255 159 c 0,39,40
 300 159 300 159 338 181 c 128,-1,41
 376 203 376 203 398 240 c 128,-1,42
 420 277 420 277 420 321 c 0,43,34
 420 379 420 379 384 421 c 1,35,-1
EndSplineSet
EndChar

StartChar: uni2206
Encoding: 8710 8710 679
Width: 662
Flags: W
LayerCount: 2
Fore
SplineSet
0 0 m 1,0,-1
 0 32 l 1,1,-1
 307 699 l 1,2,-1
 351 699 l 1,3,-1
 662 32 l 1,4,-1
 662 0 l 1,5,-1
 0 0 l 1,0,-1
47 40 m 1,6,-1
 614 40 l 1,7,-1
 329 651 l 1,8,-1
 47 40 l 1,6,-1
EndSplineSet
EndChar

StartChar: product
Encoding: 8719 8719 680
Width: 760
Flags: W
LayerCount: 2
Fore
SplineSet
120 742 m 1,0,-1
 640 742 l 1,1,-1
 640 -194 l 1,2,-1
 599 -194 l 1,3,-1
 599 703 l 1,4,-1
 161 703 l 1,5,-1
 161 -194 l 1,6,-1
 120 -194 l 1,7,-1
 120 742 l 1,0,-1
EndSplineSet
EndChar

StartChar: summation
Encoding: 8721 8721 681
Width: 605
Flags: W
LayerCount: 2
Fore
SplineSet
42 742 m 1,0,-1
 594 742 l 1,1,-1
 594 701 l 1,2,-1
 90 701 l 1,3,-1
 420 311 l 1,4,-1
 88 -97 l 1,5,-1
 604 -97 l 1,6,-1
 604 -138 l 1,7,-1
 38 -138 l 1,8,-1
 38 -97 l 1,9,-1
 371 311 l 1,10,-1
 42 701 l 1,11,-1
 42 742 l 1,0,-1
EndSplineSet
EndChar

StartChar: minus
Encoding: 8722 8722 682
Width: 484
Flags: W
LayerCount: 2
Fore
SplineSet
39 338 m 1,0,-1
 445 338 l 1,1,-1
 445 304 l 1,2,-1
 39 304 l 1,3,-1
 39 338 l 1,0,-1
EndSplineSet
EndChar

StartChar: uni2219
Encoding: 8729 8729 684
Width: 215
Flags: W
LayerCount: 2
Fore
SplineSet
144 307.5 m 128,-1,1
 159 292 159 292 159 269 c 256,2,3
 159 246 159 246 144 230.5 c 128,-1,4
 129 215 129 215 107 215 c 0,5,6
 86 215 86 215 71 231 c 128,-1,7
 56 247 56 247 56 269 c 256,8,9
 56 291 56 291 71 307 c 128,-1,10
 86 323 86 323 107 323 c 0,11,0
 129 323 129 323 144 307.5 c 128,-1,1
EndSplineSet
EndChar

StartChar: radical
Encoding: 8730 8730 685
Width: 665
Flags: W
LayerCount: 2
Fore
SplineSet
602 755 m 1,0,-1
 644 755 l 1,1,-1
 355 -148 l 1,2,-1
 311 -148 l 1,3,-1
 142 346 l 1,4,-1
 22 346 l 1,5,-1
 22 385 l 1,6,-1
 170 385 l 1,7,-1
 333 -98 l 1,8,-1
 602 755 l 1,0,-1
EndSplineSet
EndChar

StartChar: infinity
Encoding: 8734 8734 686
Width: 902
Flags: W
LayerCount: 2
Fore
SplineSet
766 464 m 128,-1,1
 807 440 807 440 830.5 398.5 c 128,-1,2
 854 357 854 357 854 306 c 256,3,4
 854 255 854 255 830.5 213 c 128,-1,5
 807 171 807 171 766 147 c 128,-1,6
 725 123 725 123 674 123 c 0,7,8
 616 123 616 123 575 143 c 128,-1,9
 534 163 534 163 507 194.5 c 128,-1,10
 480 226 480 226 451 273 c 1,11,12
 422 226 422 226 395 194.5 c 128,-1,13
 368 163 368 163 327 143 c 128,-1,14
 286 123 286 123 228 123 c 0,15,16
 178 123 178 123 136.5 147 c 128,-1,17
 95 171 95 171 71.5 212.5 c 128,-1,18
 48 254 48 254 48 305 c 256,19,20
 48 356 48 356 71.5 397.5 c 128,-1,21
 95 439 95 439 136.5 463 c 128,-1,22
 178 487 178 487 228 487 c 0,23,24
 286 487 286 487 327 467 c 128,-1,25
 368 447 368 447 395 415.5 c 128,-1,26
 422 384 422 384 451 337 c 1,27,28
 480 385 480 385 507 416.5 c 128,-1,29
 534 448 534 448 575 468 c 128,-1,30
 616 488 616 488 674 488 c 0,31,0
 725 488 725 488 766 464 c 128,-1,1
779.5 200.5 m 128,-1,33
 821 242 821 242 821 306 c 0,34,35
 821 369 821 369 779.5 410.5 c 128,-1,36
 738 452 738 452 674 452 c 0,37,38
 622 452 622 452 585 432.5 c 128,-1,39
 548 413 548 413 523 382.5 c 128,-1,40
 498 352 498 352 470 305 c 1,41,42
 498 258 498 258 523 228 c 128,-1,43
 548 198 548 198 585 178.5 c 128,-1,44
 622 159 622 159 674 159 c 0,45,32
 738 159 738 159 779.5 200.5 c 128,-1,33
317 178.5 m 128,-1,47
 354 198 354 198 378.5 227.5 c 128,-1,48
 403 257 403 257 432 305 c 1,49,50
 403 353 403 353 378.5 382.5 c 128,-1,51
 354 412 354 412 317 431.5 c 128,-1,52
 280 451 280 451 228 451 c 0,53,54
 165 451 165 451 123.5 410 c 128,-1,55
 82 369 82 369 82 305 c 256,56,57
 82 241 82 241 123.5 200 c 128,-1,58
 165 159 165 159 228 159 c 0,59,46
 280 159 280 159 317 178.5 c 128,-1,47
EndSplineSet
EndChar

StartChar: integral
Encoding: 8747 8747 687
Width: 282
Flags: W
LayerCount: 2
Fore
SplineSet
221 792 m 0,1,2
 183 792 183 792 167 760.5 c 128,-1,3
 151 729 151 729 151 653 c 256,4,5
 151 577 151 577 159 367 c 0,6,7
 168 173 168 173 168 65 c 0,8,9
 168 -32 168 -32 144.5 -73 c 128,-1,10
 121 -114 121 -114 65 -114 c 0,11,12
 38 -114 38 -114 6 -99 c 1,13,-1
 16 -65 l 1,14,15
 38 -78 38 -78 62 -78 c 0,16,17
 101 -78 101 -78 117 -46 c 128,-1,18
 133 -14 133 -14 133 62 c 0,19,20
 133 169 133 169 124 365 c 0,21,22
 116 575 116 575 116 650 c 0,23,24
 116 747 116 747 139.5 788 c 128,-1,25
 163 829 163 829 218 829 c 0,26,27
 242 829 242 829 275 814 c 1,28,-1
 265 781 l 1,29,0
 246 792 246 792 221 792 c 0,1,2
EndSplineSet
EndChar

StartChar: approxequal
Encoding: 8776 8776 688
Width: 484
Flags: W
LayerCount: 2
Fore
SplineSet
386 406 m 128,-1,1
 366 381 366 381 330 381 c 0,2,3
 306 381 306 381 285 390 c 128,-1,4
 264 399 264 399 233 418 c 0,5,6
 207 434 207 434 191.5 441 c 128,-1,7
 176 448 176 448 160 448 c 0,8,9
 138 448 138 448 125.5 433 c 128,-1,10
 113 418 113 418 113 391 c 1,11,-1
 79 391 l 1,12,13
 79 436 79 436 99 460.5 c 128,-1,14
 119 485 119 485 155 485 c 0,15,16
 176 485 176 485 197 476 c 128,-1,17
 218 467 218 467 248 450 c 0,18,19
 274 435 274 435 291.5 427 c 128,-1,20
 309 419 309 419 325 419 c 0,21,22
 348 419 348 419 360.5 434 c 128,-1,23
 373 449 373 449 373 476 c 1,24,-1
 406 476 l 1,25,0
 406 431 406 431 386 406 c 128,-1,1
386 200.5 m 128,-1,27
 366 176 366 176 330 176 c 0,28,29
 306 176 306 176 286 184.5 c 128,-1,30
 266 193 266 193 233 212 c 0,31,32
 210 227 210 227 193 234.5 c 128,-1,33
 176 242 176 242 160 242 c 0,34,35
 137 242 137 242 125 227.5 c 128,-1,36
 113 213 113 213 113 185 c 1,37,-1
 79 185 l 1,38,39
 79 231 79 231 99 255.5 c 128,-1,40
 119 280 119 280 155 280 c 0,41,42
 176 280 176 280 197.5 270.5 c 128,-1,43
 219 261 219 261 248 244 c 0,44,45
 274 229 274 229 291.5 221 c 128,-1,46
 309 213 309 213 325 213 c 0,47,48
 348 213 348 213 360.5 228 c 128,-1,49
 373 243 373 243 373 271 c 1,50,-1
 406 271 l 1,51,26
 406 225 406 225 386 200.5 c 128,-1,27
EndSplineSet
EndChar

StartChar: notequal
Encoding: 8800 8800 689
Width: 484
Flags: W
LayerCount: 2
Fore
SplineSet
445 405 m 1,0,-1
 279 405 l 1,1,-1
 226 237 l 1,2,-1
 445 237 l 1,3,-1
 445 202 l 1,4,-1
 215 202 l 1,5,-1
 165 45 l 1,6,-1
 130 45 l 1,7,-1
 180 202 l 1,8,-1
 39 202 l 1,9,-1
 39 237 l 1,10,-1
 191 237 l 1,11,-1
 245 405 l 1,12,-1
 39 405 l 1,13,-1
 39 440 l 1,14,-1
 256 440 l 1,15,-1
 305 593 l 1,16,-1
 339 593 l 1,17,-1
 290 440 l 1,18,-1
 445 440 l 1,19,-1
 445 405 l 1,0,-1
EndSplineSet
EndChar

StartChar: lessequal
Encoding: 8804 8804 690
Width: 484
Flags: W
LayerCount: 2
Fore
SplineSet
445 588 m 1,0,-1
 445 549 l 1,1,-1
 71 380 l 1,2,-1
 445 212 l 1,3,-1
 445 173 l 1,4,-1
 39 358 l 1,5,-1
 39 403 l 1,6,-1
 445 588 l 1,0,-1
39 81 m 1,7,-1
 445 81 l 1,8,-1
 445 47 l 1,9,-1
 39 47 l 1,10,-1
 39 81 l 1,7,-1
EndSplineSet
EndChar

StartChar: greaterequal
Encoding: 8805 8805 691
Width: 484
Flags: W
LayerCount: 2
Fore
SplineSet
39 174 m 1,0,-1
 39 213 l 1,1,-1
 413 382 l 1,2,-1
 39 550 l 1,3,-1
 39 589 l 1,4,-1
 445 404 l 1,5,-1
 445 359 l 1,6,-1
 39 174 l 1,0,-1
39 81 m 1,7,-1
 445 81 l 1,8,-1
 445 47 l 1,9,-1
 39 47 l 1,10,-1
 39 81 l 1,7,-1
EndSplineSet
EndChar

StartChar: filledbox
Encoding: 9632 9632 692
Width: 600
Flags: W
LayerCount: 2
Fore
SplineSet
106 459 m 1,0,-1
 494 459 l 1,1,-1
 494 71 l 1,2,-1
 106 71 l 1,3,-1
 106 459 l 1,0,-1
EndSplineSet
EndChar

StartChar: uni25A1
Encoding: 9633 9633 693
Width: 600
Flags: W
LayerCount: 2
Fore
SplineSet
106 459 m 1,0,-1
 494 459 l 1,1,-1
 494 71 l 1,2,-1
 106 71 l 1,3,-1
 106 459 l 1,0,-1
138 425 m 1,4,-1
 138 105 l 1,5,-1
 462 105 l 1,6,-1
 462 425 l 1,7,-1
 138 425 l 1,4,-1
EndSplineSet
EndChar

StartChar: triagup
Encoding: 9650 9650 694
Width: 600
Flags: W
LayerCount: 2
Fore
SplineSet
300 478 m 1,0,-1
 513 52 l 1,1,-1
 87 52 l 1,2,-1
 300 478 l 1,0,-1
EndSplineSet
EndChar

StartChar: uni25B3
Encoding: 9651 9651 695
Width: 600
Flags: W
LayerCount: 2
Fore
SplineSet
300 478 m 1,0,-1
 513 52 l 1,1,-1
 87 52 l 1,2,-1
 300 478 l 1,0,-1
300 403 m 1,3,-1
 138 85 l 1,4,-1
 462 85 l 1,5,-1
 300 403 l 1,3,-1
EndSplineSet
EndChar

StartChar: uni25B6
Encoding: 9654 9654 696
Width: 600
Flags: W
LayerCount: 2
Fore
SplineSet
541 266 m 1,0,-1
 115 53 l 1,1,-1
 115 479 l 1,2,-1
 541 266 l 1,0,-1
EndSplineSet
EndChar

StartChar: uni25B7
Encoding: 9655 9655 697
Width: 600
Flags: W
LayerCount: 2
Fore
SplineSet
541 266 m 1,0,-1
 115 53 l 1,1,-1
 115 479 l 1,2,-1
 541 266 l 1,0,-1
466 266 m 1,3,-1
 148 428 l 1,4,-1
 148 104 l 1,5,-1
 466 266 l 1,3,-1
EndSplineSet
EndChar

StartChar: triagdn
Encoding: 9660 9660 698
Width: 600
Flags: W
LayerCount: 2
Fore
SplineSet
300 52 m 1,0,-1
 87 478 l 1,1,-1
 513 478 l 1,2,-1
 300 52 l 1,0,-1
EndSplineSet
EndChar

StartChar: uni25BD
Encoding: 9661 9661 699
Width: 600
Flags: W
LayerCount: 2
Fore
SplineSet
300 52 m 1,0,-1
 87 478 l 1,1,-1
 513 478 l 1,2,-1
 300 52 l 1,0,-1
300 127 m 1,3,-1
 462 445 l 1,4,-1
 138 445 l 1,5,-1
 300 127 l 1,3,-1
EndSplineSet
EndChar

StartChar: uni25C0
Encoding: 9664 9664 700
Width: 602
Flags: W
LayerCount: 2
Fore
SplineSet
58 265 m 1,0,-1
 484 478 l 1,1,-1
 484 52 l 1,2,-1
 58 265 l 1,0,-1
EndSplineSet
EndChar

StartChar: uni25C1
Encoding: 9665 9665 701
Width: 600
Flags: W
LayerCount: 2
Fore
SplineSet
58 265 m 1,0,-1
 484 478 l 1,1,-1
 484 52 l 1,2,-1
 58 265 l 1,0,-1
133 265 m 1,3,-1
 451 103 l 1,4,-1
 451 427 l 1,5,-1
 133 265 l 1,3,-1
EndSplineSet
EndChar

StartChar: uni25C6
Encoding: 9670 9670 702
Width: 600
Flags: W
LayerCount: 2
Fore
SplineSet
300 540 m 1,0,-1
 574 265 l 1,1,-1
 300 -9 l 1,2,-1
 25 265 l 1,3,-1
 300 540 l 1,0,-1
EndSplineSet
EndChar

StartChar: uni25C7
Encoding: 9671 9671 703
Width: 600
Flags: W
LayerCount: 2
Fore
SplineSet
300 540 m 1,0,-1
 574 265 l 1,1,-1
 300 -9 l 1,2,-1
 25 265 l 1,3,-1
 300 540 l 1,0,-1
298 493 m 1,4,-1
 72 267 l 1,5,-1
 301 38 l 1,6,-1
 527 264 l 1,7,-1
 298 493 l 1,4,-1
EndSplineSet
EndChar

StartChar: lozenge
Encoding: 9674 9674 704
Width: 507
Flags: W
LayerCount: 2
Fore
SplineSet
254 637 m 1,0,-1
 459 330 l 1,1,-1
 253 20 l 1,2,-1
 48 330 l 1,3,-1
 254 637 l 1,0,-1
254 570 m 1,4,-1
 90 330 l 1,5,-1
 253 89 l 1,6,-1
 417 330 l 1,7,-1
 254 570 l 1,4,-1
EndSplineSet
EndChar

StartChar: uniA78B
Encoding: 42891 42891 705
Width: 221
Flags: W
LayerCount: 2
Fore
SplineSet
90 699 m 1,0,-1
 132 699 l 1,1,-1
 129 299 l 1,2,-1
 90 299 l 1,3,-1
 90 699 l 1,0,-1
EndSplineSet
EndChar

StartChar: uniA78C
Encoding: 42892 42892 706
Width: 221
Flags: W
LayerCount: 2
Fore
SplineSet
91 641 m 1,0,-1
 132 641 l 1,1,-1
 128 299 l 1,2,-1
 90 299 l 1,3,-1
 91 641 l 1,0,-1
EndSplineSet
Substitution2: "<3,3> Small Caps in Latin lookup 11 subtable" uniA78C.sc
EndChar

StartChar: A.ss01
Encoding: 65538 -1 709
Width: 771
Flags: W
LayerCount: 2
Fore
SplineSet
177.5 628 m 128,-1,1
 252 704 252 704 385 704 c 256,2,3
 518 704 518 704 593 628 c 128,-1,4
 668 552 668 552 668 417 c 2,5,-1
 668 0 l 1,6,-1
 627 0 l 1,7,-1
 627 216 l 1,8,-1
 145 216 l 1,9,-1
 145 0 l 1,10,-1
 103 0 l 1,11,-1
 103 417 l 2,12,0
 103 552 103 552 177.5 628 c 128,-1,1
563 598 m 128,-1,14
 499 663 499 663 386 663 c 0,15,16
 272 663 272 663 208.5 598 c 128,-1,17
 145 533 145 533 145 417 c 2,18,-1
 145 257 l 1,19,-1
 627 257 l 1,20,-1
 627 417 l 2,21,13
 627 533 627 533 563 598 c 128,-1,14
EndSplineSet
EndChar

StartChar: Adieresis.alt
Encoding: 65553 -1 724
Width: 698
Flags: W
LayerCount: 2
Fore
SplineSet
171 645.5 m 128,-1,1
 161 656 161 656 161 670 c 0,2,3
 161 685 161 685 171 695 c 128,-1,4
 181 705 181 705 195 705 c 256,5,6
 209 705 209 705 218.5 695 c 128,-1,7
 228 685 228 685 228 670 c 0,8,9
 228 656 228 656 218 645.5 c 128,-1,10
 208 635 208 635 195 635 c 0,11,0
 181 635 181 635 171 645.5 c 128,-1,1
477 645.5 m 128,-1,13
 467 656 467 656 467 670 c 0,14,15
 467 685 467 685 477 695 c 128,-1,16
 487 705 487 705 501 705 c 256,17,18
 515 705 515 705 524.5 695 c 128,-1,19
 534 685 534 685 534 670 c 0,20,21
 534 656 534 656 524 645.5 c 128,-1,22
 514 635 514 635 501 635 c 0,23,12
 487 635 487 635 477 645.5 c 128,-1,13
644 0 m 1,24,-1
 553 199 l 1,25,-1
 144 199 l 1,26,-1
 54 0 l 1,27,-1
 8 0 l 1,28,-1
 325 699 l 1,29,-1
 370 699 l 1,30,-1
 690 0 l 1,31,-1
 644 0 l 1,24,-1
162 241 m 1,32,-1
 534 241 l 1,33,-1
 347 651 l 1,34,-1
 162 241 l 1,32,-1
EndSplineSet
EndChar

StartChar: Aogonek.ss01
Encoding: 65560 -1 731
Width: 771
Flags: W
LayerCount: 2
Fore
SplineSet
580 -70.5 m 128,-1,1
 553 -99 553 -99 553 -130 c 0,2,3
 553 -154 553 -154 566 -166 c 128,-1,4
 579 -178 579 -178 600 -178 c 0,5,6
 627 -178 627 -178 653 -161 c 1,7,-1
 667 -191 l 1,8,9
 631 -214 631 -214 593 -214 c 0,10,11
 557 -214 557 -214 535.5 -193.5 c 128,-1,12
 514 -173 514 -173 514 -136 c 0,13,14
 514 -96 514 -96 541.5 -62 c 128,-1,15
 569 -28 569 -28 627 10 c 1,16,-1
 627 216 l 1,17,-1
 145 216 l 1,18,-1
 145 0 l 1,19,-1
 103 0 l 1,20,-1
 103 417 l 2,21,22
 103 552 103 552 177.5 628 c 128,-1,23
 252 704 252 704 385 704 c 256,24,25
 518 704 518 704 593 628 c 128,-1,26
 668 552 668 552 668 417 c 2,27,-1
 668 0 l 1,28,0
 607 -42 607 -42 580 -70.5 c 128,-1,1
627 257 m 1,29,-1
 627 417 l 2,30,31
 627 533 627 533 563 598 c 128,-1,32
 499 663 499 663 386 663 c 0,33,34
 272 663 272 663 208.5 598 c 128,-1,35
 145 533 145 533 145 417 c 2,36,-1
 145 257 l 1,37,-1
 627 257 l 1,29,-1
EndSplineSet
EndChar

StartChar: E.ss01
Encoding: 65566 -1 737
Width: 543
Flags: W
LayerCount: 2
Fore
SplineSet
198.5 329 m 128,-1,1
 148 309 148 309 119.5 273.5 c 128,-1,2
 91 238 91 238 91 193 c 256,3,4
 91 148 91 148 119.5 112 c 128,-1,5
 148 76 148 76 198 56 c 128,-1,6
 248 36 248 36 311 36 c 0,7,8
 357 36 357 36 411.5 50 c 128,-1,9
 466 64 466 64 504 85 c 1,10,-1
 522 48 l 1,11,12
 484 25 484 25 424 10.5 c 128,-1,13
 364 -4 364 -4 309 -4 c 0,14,15
 234 -4 234 -4 174.5 20.5 c 128,-1,16
 115 45 115 45 82 89 c 128,-1,17
 49 133 49 133 49 189 c 0,18,19
 49 234 49 234 72.5 273.5 c 128,-1,20
 96 313 96 313 138 338.5 c 128,-1,21
 180 364 180 364 233 371 c 1,22,23
 166 382 166 382 123 426.5 c 128,-1,24
 80 471 80 471 80 529 c 0,25,26
 80 580 80 580 110 620 c 128,-1,27
 140 660 140 660 193 682.5 c 128,-1,28
 246 705 246 705 313 705 c 0,29,30
 359 705 359 705 408.5 694.5 c 128,-1,31
 458 684 458 684 490 667 c 1,32,-1
 474 631 l 1,33,34
 445 645 445 645 400 654.5 c 128,-1,35
 355 664 355 664 315 664 c 0,36,37
 259 664 259 664 214.5 646 c 128,-1,38
 170 628 170 628 145 596 c 128,-1,39
 120 564 120 564 120 524 c 0,40,41
 120 485 120 485 145 454.5 c 128,-1,42
 170 424 170 424 214 407 c 128,-1,43
 258 390 258 390 313 390 c 2,44,-1
 431 390 l 1,45,-1
 431 349 l 1,46,-1
 313 349 l 2,47,0
 249 349 249 349 198.5 329 c 128,-1,1
EndSplineSet
EndChar

StartChar: uni1E1C.ss01
Encoding: 65570 -1 741
Width: 543
Flags: W
LayerCount: 2
Fore
SplineSet
216.5 804 m 128,-1,1
 184 836 184 836 183 886 c 1,2,-1
 216 886 l 1,3,4
 218 852 218 852 240.5 829 c 128,-1,5
 263 806 263 806 296 806 c 256,6,7
 329 806 329 806 352 829 c 128,-1,8
 375 852 375 852 376 886 c 1,9,-1
 409 886 l 1,10,11
 408 836 408 836 375.5 804 c 128,-1,12
 343 772 343 772 296 772 c 256,13,0
 249 772 249 772 216.5 804 c 128,-1,1
376 -78.5 m 128,-1,15
 397 -100 397 -100 397 -130 c 0,16,17
 397 -166 397 -166 371.5 -190 c 128,-1,18
 346 -214 346 -214 302 -214 c 0,19,20
 282 -214 282 -214 260 -208 c 128,-1,21
 238 -202 238 -202 224 -193 c 1,22,-1
 236 -161 l 1,23,24
 248 -169 248 -169 266 -174 c 128,-1,25
 284 -179 284 -179 299 -179 c 0,26,27
 329 -179 329 -179 345 -163.5 c 128,-1,28
 361 -148 361 -148 361 -127 c 0,29,30
 361 -108 361 -108 346 -94 c 128,-1,31
 331 -80 331 -80 305 -80 c 2,32,-1
 276 -80 l 1,33,-1
 298 -4 l 1,34,35
 226 -2 226 -2 169 23 c 128,-1,36
 112 48 112 48 80.5 91.5 c 128,-1,37
 49 135 49 135 49 189 c 0,38,39
 49 234 49 234 72.5 273.5 c 128,-1,40
 96 313 96 313 138 338.5 c 128,-1,41
 180 364 180 364 233 371 c 1,42,43
 166 382 166 382 123 426.5 c 128,-1,44
 80 471 80 471 80 529 c 0,45,46
 80 580 80 580 110 620 c 128,-1,47
 140 660 140 660 193 682.5 c 128,-1,48
 246 705 246 705 313 705 c 0,49,50
 359 705 359 705 408.5 694.5 c 128,-1,51
 458 684 458 684 490 667 c 1,52,-1
 474 631 l 1,53,54
 445 645 445 645 400 654.5 c 128,-1,55
 355 664 355 664 315 664 c 0,56,57
 259 664 259 664 214.5 646 c 128,-1,58
 170 628 170 628 145 596 c 128,-1,59
 120 564 120 564 120 524 c 0,60,61
 120 485 120 485 145 454.5 c 128,-1,62
 170 424 170 424 214 407 c 128,-1,63
 258 390 258 390 313 390 c 2,64,-1
 431 390 l 1,65,-1
 431 349 l 1,66,-1
 313 349 l 2,67,68
 249 349 249 349 198.5 329 c 128,-1,69
 148 309 148 309 119.5 273.5 c 128,-1,70
 91 238 91 238 91 193 c 256,71,72
 91 148 91 148 119.5 112 c 128,-1,73
 148 76 148 76 198 56 c 128,-1,74
 248 36 248 36 311 36 c 0,75,76
 357 36 357 36 411.5 50 c 128,-1,77
 466 64 466 64 504 85 c 1,78,-1
 522 48 l 1,79,80
 488 28 488 28 435.5 14 c 128,-1,81
 383 0 383 0 332 -3 c 1,82,-1
 316 -55 l 1,83,14
 355 -57 355 -57 376 -78.5 c 128,-1,15
EndSplineSet
EndChar

StartChar: Eogonek.ss01
Encoding: 65587 -1 758
Width: 543
Flags: W
LayerCount: 2
Fore
SplineSet
489 -161 m 1,1,-1
 503 -191 l 1,2,3
 467 -214 467 -214 430 -214 c 0,4,5
 394 -214 394 -214 372 -191.5 c 128,-1,6
 350 -169 350 -169 350 -132 c 0,7,8
 350 -68 350 -68 434 13 c 1,9,10
 364 -4 364 -4 309 -4 c 0,11,12
 234 -4 234 -4 174.5 20.5 c 128,-1,13
 115 45 115 45 82 89 c 128,-1,14
 49 133 49 133 49 189 c 0,15,16
 49 234 49 234 72.5 273.5 c 128,-1,17
 96 313 96 313 138 338.5 c 128,-1,18
 180 364 180 364 233 371 c 1,19,20
 166 382 166 382 123 426.5 c 128,-1,21
 80 471 80 471 80 529 c 0,22,23
 80 580 80 580 110 620 c 128,-1,24
 140 660 140 660 193 682.5 c 128,-1,25
 246 705 246 705 313 705 c 0,26,27
 359 705 359 705 408.5 694.5 c 128,-1,28
 458 684 458 684 490 667 c 1,29,-1
 474 631 l 1,30,31
 445 645 445 645 400 654.5 c 128,-1,32
 355 664 355 664 315 664 c 0,33,34
 259 664 259 664 214.5 646 c 128,-1,35
 170 628 170 628 145 596 c 128,-1,36
 120 564 120 564 120 524 c 0,37,38
 120 485 120 485 145 454.5 c 128,-1,39
 170 424 170 424 214 407 c 128,-1,40
 258 390 258 390 313 390 c 2,41,-1
 431 390 l 1,42,-1
 431 349 l 1,43,-1
 313 349 l 2,44,45
 249 349 249 349 198.5 329 c 128,-1,46
 148 309 148 309 119.5 273.5 c 128,-1,47
 91 238 91 238 91 193 c 256,48,49
 91 148 91 148 119.5 112 c 128,-1,50
 148 76 148 76 198 56 c 128,-1,51
 248 36 248 36 311 36 c 0,52,53
 357 36 357 36 411.5 50 c 128,-1,54
 466 64 466 64 504 85 c 1,55,-1
 522 48 l 2,56,57
 520 47 520 47 516.5 45 c 128,-1,58
 513 43 513 43 509 41 c 0,59,60
 453 -6 453 -6 421.5 -50.5 c 128,-1,61
 390 -95 390 -95 390 -130 c 0,62,63
 390 -153 390 -153 403 -165.5 c 128,-1,64
 416 -178 416 -178 436 -178 c 0,65,0
 464 -178 464 -178 489 -161 c 1,1,-1
EndSplineSet
EndChar

StartChar: F.ss01
Encoding: 65589 -1 760
Width: 499
Flags: W
LayerCount: 2
Fore
SplineSet
188 614 m 128,-1,1
 144 569 144 569 144 495 c 2,2,-1
 144 351 l 1,3,-1
 433 351 l 1,4,-1
 433 309 l 1,5,-1
 144 309 l 1,6,-1
 144 0 l 1,7,-1
 103 0 l 1,8,-1
 103 496 l 2,9,10
 103 590 103 590 157 645 c 128,-1,11
 211 700 211 700 303 700 c 0,12,13
 350 700 350 700 398.5 689 c 128,-1,14
 447 678 447 678 487 659 c 1,15,-1
 473 619 l 1,16,17
 438 637 438 637 391.5 648 c 128,-1,18
 345 659 345 659 305 659 c 0,19,0
 232 659 232 659 188 614 c 128,-1,1
EndSplineSet
EndChar

StartChar: G.ss01
Encoding: 65590 -1 761
Width: 758
Flags: W
LayerCount: 2
Fore
SplineSet
617 346 m 1,0,-1
 655 346 l 1,1,-1
 655 0 l 1,2,-1
 620 0 l 1,3,-1
 620 78 l 1,4,5
 575 39 575 39 519.5 17.5 c 128,-1,6
 464 -4 464 -4 405 -4 c 0,7,8
 308 -4 308 -4 225.5 44 c 128,-1,9
 143 92 143 92 94.5 173.5 c 128,-1,10
 46 255 46 255 46 351 c 256,11,12
 46 447 46 447 95 528 c 128,-1,13
 144 609 144 609 227.5 656.5 c 128,-1,14
 311 704 311 704 409 704 c 0,15,16
 478 704 478 704 542 679.5 c 128,-1,17
 606 655 606 655 656 611 c 1,18,-1
 630 580 l 1,19,20
 586 620 586 620 529 642 c 128,-1,21
 472 664 472 664 409 664 c 0,22,23
 322 664 322 664 248.5 621.5 c 128,-1,24
 175 579 175 579 131.5 507.5 c 128,-1,25
 88 436 88 436 88 351 c 0,26,27
 88 265 88 265 131 193 c 128,-1,28
 174 121 174 121 247.5 78.5 c 128,-1,29
 321 36 321 36 408 36 c 0,30,31
 467 36 467 36 521 59 c 128,-1,32
 575 82 575 82 617 124 c 1,33,-1
 617 346 l 1,0,-1
EndSplineSet
EndChar

StartChar: I.ss01
Encoding: 65597 -1 768
Width: 456
Flags: W
LayerCount: 2
Fore
SplineSet
398 658 m 1,0,-1
 249 658 l 1,1,-1
 249 42 l 1,2,-1
 398 42 l 1,3,-1
 398 0 l 1,4,-1
 58 0 l 1,5,-1
 58 42 l 1,6,-1
 207 42 l 1,7,-1
 207 658 l 1,8,-1
 58 658 l 1,9,-1
 58 699 l 1,10,-1
 398 699 l 1,11,-1
 398 658 l 1,0,-1
EndSplineSet
EndChar

StartChar: Iogonek.ss01
Encoding: 65613 -1 784
Width: 456
Flags: W
LayerCount: 2
Fore
SplineSet
249 658 m 1,0,-1
 249 42 l 1,1,-1
 398 42 l 1,2,-1
 398 0 l 1,3,-1
 249 0 l 1,4,5
 188 -42 188 -42 161 -70.5 c 128,-1,6
 134 -99 134 -99 134 -130 c 0,7,8
 134 -154 134 -154 147 -166 c 128,-1,9
 160 -178 160 -178 181 -178 c 0,10,11
 208 -178 208 -178 234 -161 c 1,12,-1
 248 -191 l 1,13,14
 212 -214 212 -214 174 -214 c 0,15,16
 138 -214 138 -214 116.5 -193.5 c 128,-1,17
 95 -173 95 -173 95 -136 c 256,18,19
 95 -99 95 -99 119 -66.5 c 128,-1,20
 143 -34 143 -34 193 0 c 1,21,-1
 58 0 l 1,22,-1
 58 42 l 1,23,-1
 207 42 l 1,24,-1
 207 658 l 1,25,-1
 58 658 l 1,26,-1
 58 699 l 1,27,-1
 398 699 l 1,28,-1
 398 658 l 1,29,-1
 249 658 l 1,0,-1
EndSplineSet
EndChar

StartChar: J.ss01
Encoding: 65615 -1 786
Width: 467
Flags: W
LayerCount: 2
Fore
SplineSet
317 -48.5 m 128,-1,1
 270 -101 270 -101 183 -101 c 0,2,3
 129 -101 129 -101 83 -76 c 128,-1,4
 37 -51 37 -51 2 -3 c 1,5,-1
 25 30 l 1,6,7
 56 -13 56 -13 97 -35.5 c 128,-1,8
 138 -58 138 -58 183 -58 c 0,9,10
 251 -58 251 -58 287 -16.5 c 128,-1,11
 323 25 323 25 323 103 c 2,12,-1
 323 658 l 1,13,-1
 66 658 l 1,14,-1
 66 699 l 1,15,-1
 364 699 l 1,16,-1
 364 102 l 2,17,0
 364 4 364 4 317 -48.5 c 128,-1,1
EndSplineSet
EndChar

StartChar: M.ss01
Encoding: 65620 -1 791
Width: 1220
Flags: W
LayerCount: 2
Fore
SplineSet
1005.5 671.5 m 128,-1,1
 1058 639 1058 639 1087.5 581 c 128,-1,2
 1117 523 1117 523 1117 450 c 2,3,-1
 1117 0 l 1,4,-1
 1075 0 l 1,5,-1
 1075 443 l 2,6,7
 1075 505 1075 505 1049.5 555 c 128,-1,8
 1024 605 1024 605 979 633 c 128,-1,9
 934 661 934 661 878 661 c 0,10,11
 810 661 810 661 755.5 628.5 c 128,-1,12
 701 596 701 596 670 540 c 128,-1,13
 639 484 639 484 639 417 c 2,14,-1
 639 0 l 1,15,-1
 597 0 l 1,16,-1
 597 443 l 2,17,18
 597 505 597 505 571.5 555 c 128,-1,19
 546 605 546 605 501 633 c 128,-1,20
 456 661 456 661 400 661 c 0,21,22
 336 661 336 661 284 632 c 128,-1,23
 232 603 232 603 199.5 552.5 c 128,-1,24
 167 502 167 502 162 440 c 1,25,-1
 162 0 l 1,26,-1
 120 0 l 1,27,-1
 120 704 l 1,28,-1
 162 704 l 1,29,-1
 162 551 l 1,30,31
 195 622 195 622 260 663 c 128,-1,32
 325 704 325 704 409 704 c 0,33,34
 490 704 490 704 550 655 c 128,-1,35
 610 606 610 606 630 525 c 1,36,37
 658 606 658 606 726.5 655 c 128,-1,38
 795 704 795 704 887 704 c 0,39,0
 953 704 953 704 1005.5 671.5 c 128,-1,1
EndSplineSet
EndChar

StartChar: N.ss01
Encoding: 65622 -1 793
Width: 787
Flags: W
LayerCount: 2
Fore
SplineSet
563.5 671.5 m 128,-1,1
 620 639 620 639 652 581 c 128,-1,2
 684 523 684 523 684 450 c 2,3,-1
 684 0 l 1,4,-1
 642 0 l 1,5,-1
 642 443 l 2,6,7
 642 505 642 505 614.5 555 c 128,-1,8
 587 605 587 605 537.5 633 c 128,-1,9
 488 661 488 661 426 661 c 0,10,11
 355 661 355 661 296.5 632 c 128,-1,12
 238 603 238 603 202.5 552.5 c 128,-1,13
 167 502 167 502 162 439 c 1,14,-1
 162 0 l 1,15,-1
 120 0 l 1,16,-1
 120 699 l 1,17,-1
 162 699 l 1,18,-1
 162 546 l 1,19,20
 197 618 197 618 269.5 661 c 128,-1,21
 342 704 342 704 436 704 c 0,22,0
 507 704 507 704 563.5 671.5 c 128,-1,1
EndSplineSet
EndChar

